<mxfile host="app.diagrams.net" modified="2022-02-08T10:42:40.872Z" agent="5.0 (Windows NT 10.0; Win64; x64) AppleWebKit/537.36 (KHTML, like Gecko) Chrome/97.0.4692.99 Safari/537.36" etag="S6Ec-2uZxDA8eapdb9He" version="16.5.3" type="github">
  <diagram id="OSP3-zvOweL5_SzKogOt" name="第 1 页">
    <mxGraphModel dx="2533" dy="139" grid="1" gridSize="10" guides="1" tooltips="1" connect="1" arrows="1" fold="1" page="1" pageScale="1" pageWidth="827" pageHeight="1169" math="0" shadow="0">
      <root>
        <mxCell id="0" />
        <mxCell id="1" parent="0" />
        <mxCell id="V9ja9C6b1R4F-isLnQs--100" value="&lt;b&gt;筹建大数据&lt;/b&gt;" style="rounded=0;whiteSpace=wrap;html=1;fontSize=16;fontColor=#000000;dashed=1;align=center;verticalAlign=top;" parent="1" vertex="1">
          <mxGeometry x="131.5" y="1280" width="620" height="400" as="geometry" />
        </mxCell>
        <mxCell id="V9ja9C6b1R4F-isLnQs--95" value="" style="edgeStyle=orthogonalEdgeStyle;rounded=0;orthogonalLoop=1;jettySize=auto;html=1;dashed=1;fontSize=16;fontColor=#000000;fillColor=#f9f7ed;strokeColor=#36393d;" parent="1" source="V9ja9C6b1R4F-isLnQs--86" target="V9ja9C6b1R4F-isLnQs--87" edge="1">
          <mxGeometry relative="1" as="geometry" />
        </mxCell>
        <mxCell id="V9ja9C6b1R4F-isLnQs--86" value="&lt;font color=&quot;#000000&quot;&gt;数据汇集&lt;/font&gt;" style="rounded=0;whiteSpace=wrap;html=1;fontSize=16;fillColor=#f9f7ed;strokeColor=#36393d;" parent="1" vertex="1">
          <mxGeometry x="180.75" y="1360" width="120" height="60" as="geometry" />
        </mxCell>
        <mxCell id="V9ja9C6b1R4F-isLnQs--96" value="" style="edgeStyle=orthogonalEdgeStyle;rounded=0;orthogonalLoop=1;jettySize=auto;html=1;dashed=1;fontSize=16;fontColor=#000000;fillColor=#f9f7ed;strokeColor=#36393d;" parent="1" source="V9ja9C6b1R4F-isLnQs--87" target="V9ja9C6b1R4F-isLnQs--88" edge="1">
          <mxGeometry relative="1" as="geometry" />
        </mxCell>
        <mxCell id="V9ja9C6b1R4F-isLnQs--87" value="&lt;font color=&quot;#000000&quot;&gt;数据查询&lt;/font&gt;" style="rounded=0;whiteSpace=wrap;html=1;fontSize=16;fillColor=#f9f7ed;strokeColor=#36393d;" parent="1" vertex="1">
          <mxGeometry x="374.5" y="1360" width="120" height="60" as="geometry" />
        </mxCell>
        <mxCell id="V9ja9C6b1R4F-isLnQs--88" value="&lt;font color=&quot;#000000&quot;&gt;数据统计&lt;/font&gt;" style="rounded=0;whiteSpace=wrap;html=1;fontSize=16;fillColor=#f9f7ed;strokeColor=#36393d;" parent="1" vertex="1">
          <mxGeometry x="568" y="1360" width="120" height="60" as="geometry" />
        </mxCell>
        <mxCell id="V9ja9C6b1R4F-isLnQs--97" value="" style="edgeStyle=orthogonalEdgeStyle;rounded=0;orthogonalLoop=1;jettySize=auto;html=1;dashed=1;fontSize=16;fontColor=#000000;fillColor=#ffcc99;strokeColor=#36393d;" parent="1" source="V9ja9C6b1R4F-isLnQs--89" target="V9ja9C6b1R4F-isLnQs--90" edge="1">
          <mxGeometry relative="1" as="geometry" />
        </mxCell>
        <mxCell id="V9ja9C6b1R4F-isLnQs--99" value="" style="edgeStyle=orthogonalEdgeStyle;rounded=0;orthogonalLoop=1;jettySize=auto;html=1;dashed=1;fontSize=16;fontColor=#000000;entryX=0;entryY=0.5;entryDx=0;entryDy=0;exitX=0.5;exitY=1;exitDx=0;exitDy=0;" parent="1" source="V9ja9C6b1R4F-isLnQs--89" target="V9ja9C6b1R4F-isLnQs--91" edge="1">
          <mxGeometry relative="1" as="geometry">
            <mxPoint x="434.5" y="1660" as="targetPoint" />
          </mxGeometry>
        </mxCell>
        <mxCell id="V9ja9C6b1R4F-isLnQs--89" value="&lt;font color=&quot;#000000&quot;&gt;数据建模&lt;/font&gt;" style="rounded=0;whiteSpace=wrap;html=1;fontSize=16;fillColor=#ffcc99;strokeColor=#36393d;" parent="1" vertex="1">
          <mxGeometry x="374.5" y="1480" width="120" height="60" as="geometry" />
        </mxCell>
        <mxCell id="V9ja9C6b1R4F-isLnQs--90" value="&lt;font color=&quot;#000000&quot;&gt;数据加工&lt;/font&gt;" style="rounded=0;whiteSpace=wrap;html=1;fontSize=16;fillColor=#ffcc99;strokeColor=#36393d;" parent="1" vertex="1">
          <mxGeometry x="568" y="1480" width="120" height="60" as="geometry" />
        </mxCell>
        <mxCell id="V9ja9C6b1R4F-isLnQs--91" value="&lt;font color=&quot;#000000&quot;&gt;数据挖掘&lt;/font&gt;" style="rounded=0;whiteSpace=wrap;html=1;fontSize=16;fillColor=#cce5ff;strokeColor=#36393d;" parent="1" vertex="1">
          <mxGeometry x="568" y="1588" width="120" height="60" as="geometry" />
        </mxCell>
        <mxCell id="V9ja9C6b1R4F-isLnQs--101" value="第一阶段" style="text;html=1;strokeColor=#36393d;fillColor=#f9f7ed;align=center;verticalAlign=middle;whiteSpace=wrap;rounded=0;dashed=1;fontSize=12;flipV=1;" parent="1" vertex="1">
          <mxGeometry x="180.75" y="1540" width="80" height="25" as="geometry" />
        </mxCell>
        <mxCell id="V9ja9C6b1R4F-isLnQs--102" value="第二阶段" style="text;html=1;strokeColor=#36393d;fillColor=#ffcc99;align=center;verticalAlign=middle;whiteSpace=wrap;rounded=0;dashed=1;fontSize=12;flipV=1;" parent="1" vertex="1">
          <mxGeometry x="180.75" y="1577" width="80" height="25" as="geometry" />
        </mxCell>
        <mxCell id="V9ja9C6b1R4F-isLnQs--103" value="第三阶段" style="text;html=1;strokeColor=#36393d;fillColor=#cce5ff;align=center;verticalAlign=middle;whiteSpace=wrap;rounded=0;dashed=1;fontSize=12;flipV=1;" parent="1" vertex="1">
          <mxGeometry x="180.75" y="1613" width="80" height="25" as="geometry" />
        </mxCell>
        <mxCell id="V9ja9C6b1R4F-isLnQs--105" value="" style="shape=image;verticalLabelPosition=bottom;labelBackgroundColor=default;verticalAlign=top;aspect=fixed;imageAspect=0;image=https://help-static-aliyun-doc.aliyuncs.com/assets/img/zh-CN/2616360261/p269916.png;" parent="1" vertex="1">
          <mxGeometry x="90" y="1760" width="1177.78" height="530" as="geometry" />
        </mxCell>
        <mxCell id="V9ja9C6b1R4F-isLnQs--109" value="" style="shape=image;verticalLabelPosition=bottom;labelBackgroundColor=default;verticalAlign=top;aspect=fixed;imageAspect=0;image=data:image/webp,UklGRpJLAABXRUJQVlA4IIZLAADw4wCdASpWAhYBPm0ylkgkIqIhJLUrGIANiWNu/E85QV9Y0UoYD9iekT5v+G9MfkvuK+i/evZFtCMk+Xz8T/I+cv/Dfsv/mPgb+lf/L7gX6n+pv/afsb7lP69/vvyG+AP8l/x/7Ve+3/vfVZ/wv9r+QHyAf6H/a///29vUZ9AX9rfTT/dD/r/KV/Xf93+3n/e+SD9q////4PcA///tjfwD/y9af0z/tvaX/kv7r+3Pn7+K/L/2L+1/sv/bfa4/zvAb0t/q/Qz+TfbP8z/gv3X/wXsB/l/7Z/ev1/9B/yv9l/4H96/cn4Bfxj+Sf4D+w/vH/cvVf2Nuw/5v/M/5X2AvU35f/oP7h/ov/T/kfhI+D/2P92/cz3J/gP8T/sfcA/Uz/N/cF7TXgi+l+wD/L/7L/q/8B/oP/R/lvpf/qP+5/ov9f+4Ptu/QP8f/3v8v/sP2w+wn+Vf1n/i/3//R/tj/////95H/z9yH7k/+f3Tv2e/9hYpHX7mNVZ138uYzGJmnn6r9ncO5CkdnG2cqhNwxWXj5m2WSc7hLCA8YdfuY1VnXmm/2zvwd8kCYv3mVaI6wFZOchayecXS/VJXpDkOqPycYtVpf4GgTXHlx6bAZ1ZBzeGXzoZ0bSAoD7+XHk4gifGJbhNnnF0v2MAcIdB3USO6Dv8F/LaPruGAB0Jvusl2pf7i2KNMzkH551zGcN8YhBmgWGeo+MwX8cx4MwJMxh1+5jNgp6KJyXcl3JgrefS/cxqqtaNIH1jj3RqfjSIkhcWbQ33X2AcxnlIOjQ/BjlWwWUdig8toaJmlNV0MkcEDUQ8cGRN/8sf8pUlJjuiTgBTFWqjTSmNjsKUIdYBw+irtkZc0dSSxsfpNgJhOD6uJ57ZteZJ5XHCxsYJnzGh7d+sPxYYjA1RP+v4Q1D923S8oIYuH+SJaN2aCjfMzQVHDyzeaUTR6XMT9JvLYBbbjkYcByuxIb+HVrovkOO+G7l+SOzXVkm/msiiXgbJXP23mCfKMA8ekVqv9O5c9IaZ48fAz7kxEthkj8Vcky/H7+VkEHw9a4rs3Xy9g6eSx0Dgf35ItDCHUnrRgzp5YtA8qr4xskbWakEnDzWQpnPDMgoe4cg5iAGOjnMitVaxoWBsRYpNDBSYWwrgtwtPKX96SI11BgsWS8kFNKtrIArUK+m7tI5e+rG2RgVV0gzxoOdSbo4NngHJvC4l9I24DEKUaMEmi3bPOLpfBKGVsH+LeOl7fP//O2wwVuTptcLWZI7BRg53mRufHSe9/PgMBw0siEkNKywBMCKHLOSPWvKXX9m5w7j0VOo0/u1yjORAzZzydDoe8LqLLW942BzwAmE8AQ6I8yo3OKcFIAXf+Nuv3MaqoaqNFlTOJeJpST+dDKPc2Dzxv5rOmNOLfl/lEsTUpbEVMfERXJVcum1Ixsgm1jOPKCfXfBkMx19zsmY0svTeJsbnHXnFwCOYOZLQvom1JwPV/Uix32IDEW43LOAJfmWxGD58cgPXB85XODXDLteYXGwTRMXY2l8YEe3PNP0B8qliabP2M97HutiWIqFKJDXisrMrhNEQJxFUD25w223wTkRqWAPRT8nYY4jiS2Kuknu9/QhcgZ/FVnVH0WuMCLWnPpIXva1dt9PO/Wt//2RQON3mdY4eoZou2ZQ+47+3SE/W7L6GcDcMsAVBVyTfp5eV4OUUQbpmpbuQWYeTEkFRFtDnR+7h8BuBw3GtQM/iqzqep5zCOOr0qf5/QIR9yxzhFKgGjprGybFUuCcWL9LQaQWI1AVLMQwo7aAfrS/7J5DiiCLkks/EctaYQNcCbwOzzi6RRhqwMKfroZnNGeYdUHhUmJsHRwmoc5uFdm8U3eSHJLjQT58UfPnyWm9d0s6HxNHSIzNdmU9WFQ9dV0rXPPdEnFIfZVFjIT6Xm96ONOXtmHGHX7ify5wurqWIXNZpV/Vs8Zt0EBEava6I8qZWUTqeZeBkE3zyzpH63CV4AXectTB6pHC8D8VaS2Es4LUaICCcVQSTmJnegnqUmryqs684kqhTyf3yz5WBW9HXlB/6E/f7XrQE71+NNUyIvsBUWU4K9CSVdKYFEsjWA5silVPzwAT+CVZnoQQF9WWcd1X/K21BLETulvEjuk1CyKV5TfiD0QydLw60Ev+ONgQGYcuUdQZsZdwOvjEZWaT34mQEd958nOPFnTZ7kX/QQeOpYXcKTQZDW0ZSug2Mtf6M8CtAz+KrOvOMQAnAe2hGB1DX9Mem7pzXT8FiqTGF36yBjpoiGjmakDMdcXrhzdtGsv/91a9caJnNRk/62fzWfxSHHXuMhx15xdL90lqGVah7GOtJ24/Xxs7MtLO4WaelpSjF+fBY3f/C36aANt45YuAHfkBNlJF3eLAY4v7ct+5jVWgZ/FVnXnF0v3U1LVXaMe3pKCXM0bPE5OY8px2Lc6FZ15xucYgAD+/4lAG6vvsHz24jMt69mmSQ21Rh4yWsxJ6kOYm7k2cS7M1IL9l6XW8wUV3AaaJDfZevuNAJ8vXeOBmV8sfaLetLxyBlMaK3j2+Biy4kB2xj9Pz6sachLyYnuwUkpiPu49QckWrbclaBGUs27whTb/Ly1a52MPcGLmUwqwXzdmvc4NL6n+phzmsXHbWT4Rubz+lsspYd6WLJ2kWNV7ZzoOaFiMvspnsbfMdduMfrGWa9UStakwU6nurLsr682eJhqU2RHVNfM7tUPyiudbnSbfdIiMTuOr40hIPwodXV72UgeMTCSMZ3qQ3guPhI0o77jsdBN4ekbTXI7+0K0nHOsVTQCwzMIsHBb8AM+znT2Go6cCpoamJJx5AdP4v4HLLwozxw8KOtonMdYOxfN8JdSNFVFaORjNYTBGi2cd9COcAZdWYV84oxn1bwZN/ZIF0lSTC5FFkja68+3Oocd5XPxndFldpHP8eqWJ6S72od+ppWwfP4IRPZ5CPFUdupBmE8uqb+82fzNowvtdwQSI0F/wc4JhpzXLu5GW/cP/dwfnLoE8EXODD5apV5cqhmhg4ivZA5hhkqW/w6RQLAyQkpFNziT2UhgrJjcFkdVZyxfUuSTKQALW5zAkj+bcAQOyQkzRC5ODQYA4q51hwGI0yhJGkcRvP0sxrJb63UEaDKM5v95b+FJ9cUUh8lDnXElnIgE+CyGT1XoIFMc5uCq3du5weP9JI9Lsf5gf6YKQimN+DE4uLMHT5Sx8P4XxNrWI1bBHGQBmWBKfChVsp3imjx1OJclOY5Bz/tDD+Qll0VegxovZNXUcP6/0XV5ocA/5FSvKJ7b76e9QQJfV7AFjeiPZ5g3SsVEiTyGPNqnHgNkIXoPPdDWgG8hkCy/D6aztMFKKvPkyJSgd0rWDmg0H8XMOMYDa99rXPzAN3VAYl3iqAXzGPsBi5dfLqu6VTgL3S861Dum9t5izX5Mc934jEdz21LHhh6TkGU7PwD/y8N9ZOWPyjZDCd8FdsWmE0Sj7tmq/8ZKo3Zebg1+BxPV50BdskvVv47XMtVA/4trsFZKFd9J6en2ftda5xEC/GtzBXEvkTVXdEFrEqoqIOkYLXeAylQd1PmsgPgwZ/WgFRsMcUTRC4evcBpbPGMw/366aSOiMvWGx/wBl/RTTMjwc+jxY5fm9i7s7eYHGRutfmQw5wuheYDTi2UGDCDYum5jWYeLGZAbk+Vu2PQiHh0DiqdzotGOZgotBzH0JbX/ukFieOuTP49JJ8+LSJfId1RVyAb4o11buiif74BZCRLd0updq3Rnu9EkF4fle71pquofi8n7T9E1BUqgw1zKnt7369gMbPwCk3rgHPFyIa22Sx6udVOwJG/YLXdzltIC5zEj4m4YSSCmDzHrt01bER2YaUfI/EjLHEKbm/sctDe1/hYBM8cjnumCdUPNOAAX7n0+f9lP5Zm2/BBkiZU/Cr6OyQSwMbQkbtkFnaRe3zQzbhi1hyOVozR8/dWNk44zV8YWQIchuHHxJDsJVAqz6iaaI4CqyrJfyEyp2sqckKm9J5JHXd3KfcZXuvFnYJrsiLy4jLPJABBVBEL7yO3V9W1KmwZkKsTYxTnSVDGAo+CtAc0Wb1f002PPzedoUrXhhrHUzq0dIRMUC+Qxoq7uuqlEvn8CuEYfE2SFHLSZtqB5cGVYayayli1XVUrc1bZNnvpDf0Ai2bMwPr17d68VPDXagrs2vWkYrpLnrS/C1V8/MlyUlDONagBVWT+gq9UaIdOQssmC96MvagVaFsqHjwqo3yHug7nMGG62sLVUwX8GM28sSfDm874Kcs/4lSkzYfuiJ6RvlOhzgAAS6suxfXq6+QFGFcLjggNyP9T/aLChR9JAlaJs2G6u+C+/R59WJFZapZhLp1SS6RdvnGMeUaQzj4OUuvU+mpKQ2jESGUkJ9yUyXF6leabuTe+d0RVb5yW+bQDqe2HzFpQqasZmapkVKeFhDz6Y8KHpfzkSUrlG3upHbeF1xczu94tUsOOttNPdxGhbHvmmih0sDN+onKcw+oAPW++jKDg6JkNa1HbicC2P+1ejjmnL8Y5vRPwsoX2E2CVZ3RMBNuUgeMWccsyefXnVnicJVWHllhL9uvJ1AqlBL5uzuMS2q6gU7B83b/jpl6WAAC34twLdC0u9kBCbReUXjYSwlV7jXJHd1lzJ39rs2NMuDv9TKaoAHBjCacu26wbjZdoDK4GyTa3J4k0gTwjblTks0XjU+iJGcTmx0LbOZVecTqwYJNww5MLq8RYDslXLtoTVlaGlJtpY3qVUoCfLdFhlLUVYJ6KuauC/EmjvlSSmDn6eY0gWZND09IH5bYgnTA3lRQTsPb3R+iwQlMTZnngiT5S5wxpgzBWntYzBms9lRdM65Thy/aPQ1PrmoeJfGkGqLhqRpMF8XWaw1OodxDELTtBRCmAO0A0VHKD4k5yVwDC1s3f/7wIqhvdNj6We1nVnQlvo76r9LHOG6RUwM284aOgT4QYQ2GpuGbYaW2jkwvqWGw/Z3zs3wFpBFaI9lCpWZbfjGrzJovj7G1sLR4fkqGKvBzrSyL1uyabrBF1evcvck+ZTF4MPlkISsX3b6vFcw5AbYFAj40h/zBLOKc1AXKaOyeo4N8cJ4urY0BoE7OXKJXh6H6W+OuJgxYPFR4MlCLB3FGSG/PiAf2lxjq8+DU4EqrCz5ALJ7H8PldbsInllpGOuBFW7IqisiOBmzYpGINBuOe0eFn7VtVY/+TXnjv/eWR2oWr+W4AMlnhHok9K1/vGHkAVOCRGiKX5mQvSxxZfwB40Nk9ZIZtZwlk7YKVbjLUN2hWvSq/U0lqE2APnfk3CEqKlgTzZUJIVO+gVID8A6lL6Xp9c81wSoSIY0IsqdKZ/69acaiVlkgG9w6rAlQ7ayqZEzkdvFN9Sm9QMAXuPc+WX9AUMB8SVT32oio7HTMsm2SkIVkBPRQWYLI4UXZrmJe/+Ihb/INRnT3aMRZteu6ipAbHoc234v6U+6L4/z9ZO9uisgHeb2OpMwWXJ7RJ3cI+osnEt8Li94BPix39imseeBhVv1b5hHz2qwc5iGb/cDyjuWeA00R5AGS98IwE9dETnobL4YV+PcJMMRvYUo8OWv52buMyBOAQW6JpN7mOPO2D2R20l59Jyr0UtQFcKSKjP0XnBHORDiPlGBN0WB+XJy3DeNhAzhOXa0F97gQFgp0tycr4wWkGUvtY6zbie9/csDqL3h++CckQycTLlxT8/pNPm0u40GEoNkq0fTYH4Kl4rHBJY6lMylHLyiH+2Dxvg74vp58kXSFJzs5tRxCkycmPUV8rkkyygISeozsJ5JrdccSzJ01BRzZNjXbTJz62oKhEgr1EH/9JGtE0rUkdXHOWckn5rw+hoI1M23IM/D+pr4yqRTFaESovnI25KwVMGsXFEP1WENb5S0K9529RxBRegSjmiflu6RUGL0qWSCQ6EBq1uIWJQrEmVbyMXZbNtoa+OTBrj3p9IjRe3ZAkJivn/uo85/bzgXAOYIkHQNyk/f7YCl87ZG+Xsf6o43AcXLB6ddDwG93ACTvYxKPEICdvuOparyreWtDqOZfbNOklXWFI6vI2VH/AIOwh4BBdAKJDmuwGyteFJG/2b6r0Wr90r/G77Hk0p7HbmBAj31fIxxd8MkxRzMHDwZnBfkipB48dj4JYG6ri3wh0Skr97fyqrfLq8vuFtR7pjE7gSlEjrqDrKAw9+MrKGfhPcQSEw5qLP6LDFZ2nQ15mlDVxljWF2WAKAtN8Oy5JougeZCwaWjBXY2kQPSZhDrUH5a+CH2jGQAtEPejibZuatfKteBH+FgctG2V6uRsXtPW9vpCm8pdu59eQUu6jWfNZq7ogTc+3vMxIL1v/FYy/ebATmP1/SDB3eFPn7CwdEJujlCr9r318TyUvO7G5I4hIxczGAs26jM0tBAhg8eWG+CZpcJ9dorTtSzh8/7XdQVIWr0VM8k6FIKVfCdjrI2NWw9qofyC1JH/7jfq14koKidehD5/0p43oSwGbaikaPAu4ieBbupi6DCmKbEwvdyqfosAC8ylUcn5Hamoee8gxEYWirweZUzecIZLP3AdFsVqsYMCyf+FbRkQHEHNpF4ghwPAvEVpy2pH22jFdqkEmrSPHHFhxxRgb4kERH1u+D8oBWUfasNbWkcwKmu/Qa/WqzAxWHG4K25QYyXyOzUpDynfrGYM8wu26wEC2Lzj7w4JWM3oC7Etb1XIlRcscIyjQC1lrPITYeoo/fHMgARP+iWzCfK9iy7CYKu0u36i8IYZ1U5H4fAN1HYYMdV6xxRnoTSqiXFxGP1rteWOBVf5lY8ASfpi9CRxIe87VWjFm7c70NMO2x5sSxZ9ST4MvPbTpN2jOvDoPopOy0wcN17o5sOAazoDVLpKfiOnFGRRcliJ5yn8xNLrKxA6Rg6sZe/OlnS+luzkfhvQNj45NrIl/cMkj2IH1UW1v1ie8SPegQQx9p3+aZ5lzydIGPTmqv3BvEVFBxuuSvlzw2gS8D9r6v0XDw7ZgUJG0pJ/xRz8274pH6Bier0e4vwjJe+Ljdzq/0N4vPoUGUbnfU3tY/rkxwsfvbRRlnK9KFLdVJPUerE3fjHzLy4jXVoge6b0Hg4t9yhqioT+LSHQlbSL7BDWk7wsghYHf0uZ1b/OX3OBJy0cBe7T0oXlVFiIR8GxSzOUTIIYeNeCp752Q/sA3UuqVxAUP0cA/fkYlsGG8Zn8fYY+kulBNAJUa6vqQQQYP3eEY074Psy+ZGZiAKlSSnZps0lL9M+mcwmR/eO/VAPswnGxY40l4Nluq/RmsLb+2WuSbXIkPbLTCntoi/lrXRHyFDtuayIhoSX6t48TAPDwyxsKDC43/xP8VSXra0iUJJ3BF8T1F/kPfaO6sHMIzioWBaGctzZQY28p2PaF24QZMPVtFBXmFR7K7NIPaS40NrfGHhqQ228RsAcJJMvtXmKtEm5fDYduAcWSwG9UDgtmOkK28dMbbh/hPTwLjEb7vdklA9e0BaKtE1FpgPKvm3VnnqaKb38CQH3I9SZnlf4i2AHnVV8AbiUKK4885cf3bhsWCFXCqwNZW5+wuuQDvF2d9MQUZ9Q9hANQsIJYIZFnNmM/GBUy5sfv98+4oy4Jg9ZJ7z/1DccMbPHhCb4Rmiu5wzbSx8GugWBYc1GO9iojy7fISAxHazpVbjyh0dmwS6fLMr6U4OihKut+A/b8QASmuo4PidMmWv/LcWUGN4AqM+7T4tzAqwR29X9GkFJDk9g6/hqOplN888QDeVW5VrYR+CqKaOcDl54evjwzUKnx9nM5DdmZNLNIWEEnxqx/bYmNpjDyL51ErLNOZVRfeOyYShIM+EDqy2oydGfO0NcA7Teb5zakCxOzO1hqmKLDPar8bqLdFuSOsDweeS9XR5E6U9CIh6TuF/1IsPcg1ra6Jjh45aDdwZlBQzfdp64l1BJiXa8ridllD0Jbl4HrVAd6T28XqZ2iv3K+aiAaxtzhlFUsvgMD9b+Bv+rY8VqmUeXwnphic9Jf3JF31aXJ4JgUlShXN6dzMGHQm72XzQ4VqhfnaaBYfTf98YmkKT4stD9uoFN/YcA3jgrVARyj6B3GPjIpn7ibpn4mjny30wfAPEl65Ea57pGtIl6IPiOpRRK7MGyPB+q/UoitPjS0oHKsmYpC8vJOkF8bKmESIH7aWb34Q8PNpuyCBMp5IySQ8TlDnaUGFJZgoz0k4wRymwiqa9pAtApRGplLtldNHVa8V/R2M5ZfFWkWTahaOyOJ0Nao1/T1u+L7mF6s4uFAptwQWOu2+c/8t+urWUSF41ERWNBm0FhBs9sCLPw9cxo8zB015gXlBdW7KoFv97rgmQdlVlBfOyXREJncw0Z48PGgS3raFYudZJnJI4cR1Q+GH1I51LnCM2ZZaEC6QZ44KHhBOnlWosSNcZ/bZ9FZX4HooGm+SnqvzUQuVv50akhzIWLJ+rfDhiIdNFBpD8+idwXUQUGw7cKZauarrewMskvcl7a8Q2F/tC2uF+uruyuEMJBXyFCuv8M7/4TWr3EEZ6dabGv/IjJsAroVf+72DsWRaXDM2cwpxFYX2oj2zEv4BT7ey8t4880Hk2AfQFG4CPGTv2uiFmzyEwhwWVl1ukvYoS3EY0A59kx1EBvIc5icavZ5sLST5GzBte6AAAAAaRQEjLQAk3NmTjt29mKAhqtK81oUXQTPj9u1oYTMVg6SKMiWYbEq1I6VjWViHKlUnJAGZR5VNYhXUUcR3Pnr3EP5sspAvjs8wyyFxgNsL7r8LahGpaqOT0mXK8FWnXkpztiLJgJh23yLurObWekyQ8VS/bSoYtzoDJ5ASypZIy4SbT/9K8J3lFtaNaZDRAog7tWqhV4CBHR4+s3yGy17WfC6t7wzH+T5+e40S8qln0GQAuctmlbCwT5p5eY1ySAFDzCmlzrfNbW1wPH+8uuPcLr8lxRzIQC0qR14+tglzERvqowOm+FuuzIskr2ubFk2+JhkNsrJ6ozG8vADYGRDXpwKgXkGQixB8NBaYLYrWoLVU5DA5iW0G+H3XQcSD9sH6ObeLAmH43iZkTBfo1PKNGyyj4uiRAQHRv7S4vYad7JpvhOzo3hY3+ZwrsBPPcIBaD0EJD6HSW4z++qWe+I0CT40X+MqgPSWerkzS+Uf78mCLj0xf+HsbNMMNqK7AA+fTMQsn3r2ODMBEegb8BlJzVQSfbvSfWagK4qZrnglS0OuKbogFvlKKiuz1r3fMEwRXn1IWj8NiwDEGj4AgWiuu+fA1H2gY5X17wWAYxKFsJc71PsKy1yir8ZH/fApYEuoLj1SvzGSoqm20etutVvmJffe/zloVnhZp2Q964bN7+sToqkUFuQqbCj9flGh/LF6ZkVBAfDJ0p7ICVE2UhrKxnVizKpGGJfYqYk7uu5F8AT/rMev5CNaHzYDKIcbCluJ96N79BgSMG7GTkvBAsSeO+QSRUajLSeS/nLaBh6K2cvxUHHgAAFb2IwoWJlPsqDzWSBlP1Rl2xkUVhYB0VnpURcgAcF4jagkpdib3kclxTn5ZG5hmXTbGRl88iZHNM35SuuyhY9FclyELMbpr/zMJ/jaD1CK/InlkrRthzcv4h0Ud01SxSU0QXfsjTl4TuFN07b/CNj8OgzdmCeLxjmFndkkFrpx6mzQhlYAebWeAPnHfgCC7qiK4xADro6PP5Z2K/qiddNSIpWOinaY+QmjSc0bd0+SbqqXDdCOh/v6htHUqSm2xRZQyrugk51ldPK8NawkkE3+8P3HnY8sLHGSAjAihJyYKoffE0+LXlqvEUcoI8x6dhvKOGqRXh8R2pMHw/KDCyprmSQ61XT4J3t1boJ1tBQUlawp4LxzQ1IGoabORBJnQ3qmbZ0GPHRlkmDtAEX53rT+Dqm5D4cuWBlSU6IgIWjS/EJ8Uynf7e77Wax8RyzcyURGa6nbH6gGCn4lwCVEdf9PsvAQU15m7/3RNNjSWRZ+nz0Zc+DBcQ+oNeUy+xzQbKyxLqDf6WvfYqloOW4MOzkendahnlOZrt10BW0j4LZmKUsY5ZSG1hcyl34MZMX+WQxmC8hGWZqNq3m7hw5ZpmFl7G0JXWQoj/yT8F/QCjEsOLXoTNQ9eD6ZNoeOw5myjfL5Da8noBVtdXKSg5KODtGSCg1X8SZe4EfkIq5gXgvgM+aCAglbdL+VKe4oBzvmY+4VcI5HtdJ2IVofOOBSzxwjPHB7KSmOixWqbCGoJ8eql0MGNEUEe+oB1cnoZLsISSZ+p79eAbqDS+1i5G+qL9vx0W/EMt31B2ODNC61HNevPbNNrjEwDcNnRAt0NiCYQ2b877AZGNdevQZKHDFq7vh0lDsAgWRjqamUwpSaBfcsbI00Aq7NLEvZTQYjepCWLwJPJRqEK+tGSprmgAOn3Plt+KB5NUQfLIHy1S4QdFUSZj+ful7VM043gotE9gnM9oIXNFKmI3M3M1NSyTwIuOvM22TRY9aY/zWEbd84FGJriBsDNHnx8hL/fyB2kn+NOTTZ7fIv1w451Ttq5ipYcLECj1XJ4hE4N0uO2VJ1KrwP+bEvEz7XCZBqjO+tG3UHa39jUG2SpjfGkP/w9loEZFY9BZNSY2P+j0G1kGPEZutGt+2HedgqU97MHfu0nOGIsGcV75f4eua0oqK/L+mxaAgMo/Q3fvfyT+NrZIrjPi3/uaaMMvBRbo0xLYHKE+MiYsiAn6PlO3rvM/I9xIz46n4IQAAAfA89XoAfy97gAV/PqAM05Tugc7iTPxhn2wzBs8O2irINlBgAYT0R/gOQYnOTORpSRdslBDkFX0gDJ+RYe29kwxYCQywntVgS159vAYdFAIzNwvqOvp03wIqO6ZTaU8MVQ6XXuSYobTICDsIYFPEvpFCrKt4n2WA3dgLyiT0eJBBvaRoHqWwf8xYgM5R+yGqOivtGrK2y8z9Yjlt1Z+ULHCCOE/sEgKmpe315exma+JfLmnWbthajt1b+1tC6Nk3bwdZQZyOZ0IuO6k62gUGT795rqjfQOnbMEBZ/JhMQD9kTNM5EG9qzOAA08cOcnAUQr2HlAoNFQe0xYqPAEAE7lb3zO/IaJhet3zFuYGKYYR4r6FwPAn/mAHJCsgBg/9FDxmiVIsNCY/2W42aW2aPkfCnjNy+ezyu8TlWHHT80xve1xiqlw4WPM+qYEBG3AWGb0wKte7wvWUiZGaZ+Xq27LE5o/HJg+kr7R9Tm1dvbIPkGixjQy0SJ+/x534TAiJv54P9b6TXGzFV2TN43lo7gVyt4ljGUaLwWcdqxS8+PeaFmqsKeFpgIsDah2CQNF4fGR98JYKSJbpsAg74d8Eb2lJOb5H2pZHPbq1HAF79/Z2fg/KDCa7ixSt7x+r1IIyoxIRLoEzrmyL1rj9acFKhAsJHVX9DtUkNC5WQDqQq0Sqw4Hq61vYY5kSCYiLmy6TWgA5vS6BXdO/z+eOrvo6nr5TvcB55xYOHzOZ9N/l0R7zCQwqOAqjfkYcO3T63Ids0Ztpi+t4ltsZfUkqk/CoWtaqfAK6LFR/P33ZZ9kDyaMhO6vOMYq8qiYkefZw/lfwoTgOMXzS0cVhu1TY4QKtlmfCd/Ox484cMX2PFwqDt2mK62VkScbpyF+1X717vie279atYPF+fQBGsxvadFfX6FB83NUh8zqdT3qdo8OCjn8Nhx+USHackksF4tMCBdyy/q2mno7kn+9xnEjppUrjIV0V5gof4oBEuDitWrf+M4EWQTxapEWPZSCmzu4B9lxWqRCA1nr2xhVa90UAt8QOHsBwM3OFwTpQlGT2mNmiPFQ6ItavM48AoG0ywXnl9bcYTVbQqyc5d/9/xGda1MlPu3Z74eFBoCmsJl76GS30mf5q9zLzG+j05FoR8Z02tGm87vT81HZ2QYaIeJ0M/RhpDGc8+VcJFU88zCd8ple96tVNDsyMpjTCb4Ve7rB+jxxkMHpBf2LZX78GXcyvorjUiIMw++1e6WDU6Udr9PpYnG5tz3vOgO/zzQA2vkapRhASCyMUwkpqWdM6GnRDYbAUTWuHI5/RtOqnwAhGjxLsHeoMsrbaF1tBxOyfIOPqz2CrDxN+RMWqI1wmGIL2jbrcsHBRurgdoWs4hH/FkJptWEnMMj/Tbkb0STSwcImbw/Cu/PUyOtIwLtYUMaNblGG2mlpvKtWMt4poDIXASOEl/a7BmKudWQT2TTn1XQBrzcqTCg3FmOMmisGzy29y4kJKlJVcIYGEKisnTbDXYSakycKQtRyf42IyFqGGjyxHrzCZq8RG3o2+4Dxfcha2yejPu5Ln0KNbN+eC+q4ARl8LfR66ZbEqA5OSx7lTS8e5Z/Fsai1XClugdhtXcO1uVFW11axHd0SxuVYQpEv5/wQ/UM4xvIwuKkItylqWvbW/1thNC1OG5Md/taF8ndeT4JOkCuVwbYj1Prbn/gWg4Kr3Y4eKLzXTmH/8KEwLUmSGT6rgirvKFHX5G+a+FQyIEbzALbOaZyNuDqBkiuYcs41Q1+TM08WDpIPDLtuJVucozTtu8+DsCuvk2RxyQpJApweHnA2dPcBXeGyqrrj3CXFRDHouVThJQr8NQNZ8JXKor7NGf0aUy/KjXqAWbl+ulDJvC8JL5Axa/4KQRrL+NW9hqgg3it1dqT/GJpXYNDiBDDb1HsxTU86LP3llpROrzpcr1YxsvKhFmnIgGzrfgkzCt3NzpSV5+0ACCuOItI0V28PMFF1sJpQAB5pybGFsCI03d4vcSkPqo9YeU79oAYS4IE1ntMeZOdaLN2E4K19hNSWylszY1mfpIOxUm5XOwhxzWdmuYQFrCZcelvdXWNMIaccQWJ4lmRRwBz/arPlriBS66VIrp1K7GhiIjO4KBwEx1haknPvIJlFLW7hYWg1zieFIAuZXDtVXmgwLZgdmYqTlWSgpRQnEA6RpKAFSc7zAd8cH8qbhEX+VRyLnUcb1PHXy+F/x8AWv651GwQHpkXhqUYKb7Ul2i4NXt8hu8sQN7S/sPKbQkuM2fIEkBtuqY/S7Xo2Jo9UywKKzg1SbBAic+8F00WxufIRwG8Od1mCgMAO5X9rhZ2ejDeT8Y29jz3rip4MPBsNQA9DrNWp2NAnn5P4S0IhBydYAOsl5sDhqsUbBtLHyPrOwTuHMm/dt/nPrAzdlqlxaitAXwA7Mc9iqgyrArIA/smGpNVp9AEb/8rMH0pA87WjTPQd3wHA52kOIZ0SG+hBGpUTYOhVJVKHf1SxxNpOCxWUlxXQEizQdeSTfEZN0OmLR8MuX7D+Z8y3GsMyIT/iZtKP2AeAmatO7+ffWwKgAShkEAxySXJPjdsw36BJOrqVjyzGVwas+nR0BPYx6pOrTy89SPwBSYxcPCeJ+SFmvnpMmbasWSmPDYqNLRNpZt8X1Ttg0ebNTwrvFBKVttyAooUuxhBX2q8PuR4r0pTVUyVXaccmJQmi4MEib9FDCNFiRizf1iMhW1JGAefPFUjpv7wGSdut3HKNk2amgqIxKpOTUDMd9qnQGsprCEuZYqRxj72Hn3GE+SeCa9MK9uT89m2ZbtIEpT1n212YRmUWJJZUk3sS3Utowc7jrSdelc7rUeYqZ30oivX6alU+pFzcOeTNe5Uwaxg+n8roJF3rNdBNRAF/E2nJPzCkwf4m9Eo0EID9Iej6nTORF+sgIac6HrQndfTFj1ORqTYnYHuI6J/cXR0VplzZWGpESdDUfnPsXWTU+QBkEhVj+EFJ3VBNrm8jaR9R4IqNLEIn428eQm972u/2BR6BEl3ov5Qk+AU0v+/14tffzlCrI6GFKc3nz28nV42+MFdY7L88m0bKW7pgJ6fxPbhHVweHh6BxG58uIEUIfjoTN9kFryL4CHz/q/AZM13Kx3wGx+tU+lmuRJG4Sexi3o+SivGAILDygI90jQstTGOfmkgwLSv6a2WPN6SYc1Pc+joUnPRRd7BQxq8YAX6sQLWD4w2+GLpBWtE5FTbiKQXgSwRSH2wV9Ton0AAyUTChEVBEC7EivFGnl5MsslMFmafo0R5HpZOolXJcqp+8V9mSlYP4Pc1zYJy9fdnNU4lssIjQ2lFvZFC8Cm8zQYD22WLDp7FePDrxbW4X0cFwdXCjiSF4chnvU1si+9F7BNc5nvIJj1jSBpcfRmfGrg2fwJR5krhjeBbUIMJ+IYgp/31sBW/E7sSITmcQ+afsS7n8vthWNenqrAmy1vYQOMO6a3o/rhEdzMDa4ZlhzPnaZlghTuAuZU2iEBmyDNwEtv+esz8XDhmsheN55XZdNlRl6zJtUFp6MtGxbjsS2/Fj5uUDhJ0m61v4w8SwkBgR6UF9E5VYcOdx+0NRfr+xF99vQUrzgLUwIbx+sWsukqoQLCvK44Q1118BbDL+Ygs3pPbVJL1Nl6cOzXcJFzI7DGHdnTZxJq5aW9mn8CQMYiFhPLvlFVhabARNKcsKTqZGdBcoeavEsLvXiL4u3JaclJxKzo+Ps5q6qpRF26SjWCTMPLSz9Qa27MQa0BqNXpX/P33Q3IV99PxsvZOnQ5L816UZgYfmlIHdnEIoEcdwh2cm9yDTdiPbR8V4UKQuk5d0XLdsM1XVQnplbpBJjcjZsMRAmaTxkcQIePjm6ueuAMZEIyujioNhRnvOg+Cxzkc01L+lnMY33xAnsYutVtlu8c+LUeteAiM2YLQTRHX/WFqnFUqp8/3E+DtU77T7v+FgHDoRvRmzPNURYyUUF/ZWBBty7GlqBAwvQl6mF+OsQYz1n2G1GcDJQF6RWMqykaSPjOxsX//yQXi94dChc0o5fKfIbv4p4sQqPSKU2+twUSiomwacaWW49Ejs9iq7xHKcjEnHezmh9Qh8AHR1jF+cH5EZBZOwiJ/fi9owuqPAk+96BnnQJIok1YWIMDv4D4nfbcRCpbXi/010l/X5KnltKjSnITo2Ds7C5Vqoi59p8AAkzM+v9QQTzHMGxkjcocjPvgJ25jhqZ7m2RJVLkfuPfaxuu1nm35h+QOVsmgB9FAdoAlcuZ/Hod77aO9CDU/GWudV0Kw1GulTYSJSMVm+Ryr+NPvMIBubnl7rCf7O2GWcVH3R70UiHUBpQSZautUitp2NinKjJF1fb9p2tEasYw/43DN73NihpIYgcRu94N6pqmI66WHTUkTUJOk6hmHDcbm8m+fNMWYcdBbBUT71iwR5NH4hyORyM0+sk9YB3r7bAvwr+k8qoYoa41ULKQIR25Ld+h+0wnvWDQH3Iyym2Yhu8QOsmYGm4p+EMkfjzwo6e8dEMKYHkraFiIcDVXA3K0xTyrMHtPJfXagdVCyf3h8vPaweF1nTNPzCGUuEg98usRXfb4xNGWtPtW/DMr7LOwQzJ1NvNJBYVMSOuXj1PzjJLo6hlLwejm5/lujbXDRN0Yv7dtMVKguFiF8GlnghC/Y+T89ILssm+UeYRUCXDHbNzStSzDq5Hu1Lddl9DWbRN3QL8nMm8tLNI/9AhUXtQyE7EwpkMG8LigQaiOPYX1Dt8Q2hwAgpi8znIlX533mt0R6cbgEdy40MnHYamXiV/kcu5Ov7U8UxgyiyXS8TYmq6VNbo8rWDfWcujOf1Z6L6O/8ncwe2MSph0udAfahPaWCLxhqYbx/0lyAvy9YDgT80JQpfBlBmQLy5wgo7PeQuQWuLd3PHjdZG+piHSP7pl5jvZcIxJ87IXc4SJ5b/WAw26D67RmL4aX1iP75pihhEo4bloMX6FEZdDW7+tC8Iwy2NmwlA923KNQs7DzxLN4IaEszKyIlXaih5FcCcGJ8v+wDM3Ik8/F3g9fluF7a6eavYr3Jue6ciHBobZnyUj/j63HjjV5pfldVWwLECsUgcn+Fx1Qg0SX55wbrZEoAWCPAElk1O2JRpOFU5AEusNCixwNgOMY4ZeAf3/jqlOi5cKd6IOo5unpCW4ERjLfd/eI2XWElPP0/WIoKXCqkPzJqFF4STadXOF84iLgKlvhY5Hjij1fBLKjVfkQxHxiPGDfKhQaAtPeeIQR9LMnaCQlvCv5mNFLd5l4OV+ZgCPzf+P3PLhcfy5ZXWluKS9yZ4gihQ5w4/rnqrRbs89Y4vyg4wjskAjX6EC6PJDRBZqtzekgJkxJe1i/9pMTrQWW5rTXsDdSxgnpdwCnMoTVw2la/ITolquAUaB5iTdBbLNH61v+AuypupFRJUC4OjYs4alFvs+mSwMTEzXslhJFxBZzuW2unVJZHUFU9TbRvas0DaRT3cjRPrY7ONCsrAU0ScEJhdagifu0GZe45YV+qfM2h8vBkTumkxwUiICLA0/1KrhYfY/Mul6me50c8inkSTZVihH/mQVKwzMqPouP8oGLKaeZrKQpGhDHc5K6oNxHywE0V8tLeyqTwEF17JYFskE+iPckbbyZeSvDjHdDXjRo8IIIRVrWK4A5cITTwTIXhxod/17/pQiE2KRKHdhdhfjQ7fXH2QNd/S/fyO0XgCfO1Iw5P1UQLZ6fBj/VAPXI7qQhBA5OPOyL1YDJqux3t8dw1131OlV/kRwweqyCXMBuRtCs/coRpkOgwk/Fy6sYA0/NH7B9WN5AUzWPBneV1Fx+vBAbZtdFN4arRAdVEj1zD5Jq7+kv1jzT0BK1JmWc2ADBNJjIRYtVvPYpp2svuKatT42N4zxoebDs6q7BR29NC/tvaZ5S3NJ7LfBDXHdiS8UlH6j3gBqlVR2OEI9CCZkLXlp7+RIJZpTZCrKRVs7sqWzNomhHyzwI22tuHpcpTv2A4+E/hDnM96ueYdZshc79YKnScC8gaRRKo3Vq6j71coeCjc87I9T0J4D9DU8ZIz1eYQqHggKzFJcD5TX3CV2OA6PY3C9BqSRrioX8sIB5K81qlu6IZYwRAelKoTGevWHKGOObj9esEKMzEvKv4185hXICIcXKxdu0++p7+FGpI+albYAZFMewvBY882xS+jZ4Qbs6J18i0exWR/nk1Ly3cOa7JDqpYWKXf2WomYf0iWmtrO/Q4HnO6VKTT6OCih/V296pVGhFTrTesnhpjWMnakYMegqG3KuimphqrSJnBYCtZCPhJGbp6/XKpSLTa/7Ev2BHYyLGlv/OHaADnuJbX9VEcDUCcE7bBch2K7fgrfM486CE0eWRec5RHxm0UFWU9DIfhtt9gXs2FNd/uK4Wg9lHDbGc25aGy1H2q77rFLHaLllH4tXIV87xcHn/AvI7e91l0S7+1g6rH0cAJZ3Y+RNcsnDByqNr6fBG3s6mJO94tT4dQghgmJ61+v2rHIHi8te1bDZu+6TXPSzPujaCRvW7GsfPF7C+MJY0oT2W+hE06CDn+RGCjAPkIJue/+oiyWyrf423ovejakatw7ALDG2XfhGLQv2udh8VyDGbBy15aFJ23jN9wMd2AbCJlMEc0DVj6ZreMuQI/urR3hWKTIvE44nfD7v4JzpyxmlNNAk7hU4Ni8nuDjS1ZCdYyWgDh9aadnNO3Ui8dQAAAD/Sgzkzgtbs/iYluZPrgU/BnmbLNHiHp19y569uTfn1ut91rTddvE6WjsfOsKawHFNugOKdg5wBXnDFAM6XbBIUJL9CsyssVlpwxj85eWESLKkrOPjELU4cuPEwHWig3+vaB8KY7kDl7r4pGgPk7wtC160vFQ7T/x6ySafktVj1blS/GRn2fEGdHtuMeDu7LTvp+qWh7aur/p4T+Gw4jbCdsWgXmsXDxgCBunmDme/GQ60HMfwtKtNBcUtNMFa95a2QmYyHvnX6F1Z3Pg/QCVPZtCpjHHZZ7+wW2FRPTAkqmjTMBs4elWnF0s57XcYhBN7sgmDKIaQj8+Vj/jaEteCxRhioVBX9sb8qDWiSQpul86Hd1R1ujbTR0t0GZ6+bfy+YoLz2JGJpD8cxEXfZFh33HBfAD7MivFYWpxvnWohYqPvsbZ2WgAMGKb5S2oXLNs7XJrj4JbQ/fTQThgytfCtfsIng1tChKRmd8FFtGit5fx21oJ+jUIuk9k8csMesDQQLnRA/3i2BgG3gc3z0X7Llm3ZlKgwAe4LiMv52SQ4R8kz+5ATmyKqAELdhnrKM11onbjAgHnJOgk2B2tGZkN3ngejGktznfAx1kO7sH8NCw8otBy+L7yZP07PyLsjYkH2hITZOKAF8JOd06swezSytalvdEjSjvfiLtZgZGH3cdV16ziRMMBLcf/jmZ4mYD1//8pNerb+Zy9MipSIXpw9Nikd1PQu44EkjrvhNsMGPD7bsYzO3WW9g2uS6FQc/PzLst6TMCIpp+fi/mJA0tML1B/jXfagp0e1j+G6L2mHRkStA8qyMbOaO1n8UWCB6WrQ+bVbfAutxDXKaGmwE4nNIgFxkLcqxDYjq0hOijXBzO98sftqVas1eOS4CMNKhqD8WYPtFx0YDYLYX6/lWylmIgW0z0JGYOGKiZV9NXvJl18PkJKVWxnaQJPetTtr8c5UCGj8AgBf9w6tw1Xgac5NYKort9t/EGvargq2f1L9ZGzpV5myHYQuVTxVYxO7q26+iQ8hQ47xkPYSQxJbVgjKi9vMzP5PiEbjhSW9DaySiqReRvSUcaxv5jGSpRMP0ovTjLN0uwB8EUA2TdkIGmq+xxKdGIzuaG5D/K7QBNnuLKju7F/pJaOg4a+jgBXX0hGnUVbv70wjpmcGgeBhL6oRc1CewJpQ4KgHo8tFCDOG8v4RFP07UtqnQOcdAcmlzO5wxhc90yNwZjH8CxCOTM5yQDfhC76hHTUJ55M6q+XGeIZMLDi2F48jC6tIU9lGfWNZfaLGpVjEP9HCHxjuHyAOwu1iJP/y05MBQM8nBHViH+ps5zQYDEMidNsG78oWYHUBztatyG5bchTuLf+X3kWQcWB787dxlfUTUZ1oF5rFqBfd3BpumkL/iH2YjfiShXU3jv5CUUjSiKt3zV8M3UAcxJ6uQ86rFnFtim4xaAHhmM6e++s1D4yIK5YXvMIrINEMm0I9TgdniBGn1ELWxj8nHmij32TpEmlwq2Lx+ShNadbHtiVnPO6Eo/Y25Ck8BOagP3Ak1WIp3iNhQUJH5maMRMYgSq4fwpp6qVimKDQ5IMQZ/iRQNyTMvxKWw94NYMXE5ldIBoodkq8M/zrCjrJwHksUgyXEjnbRrOhwxOgAxT+qDBoitCJitsJ+AC1c8wSoDqzR/K4Hf+K84AyOY4xs1v4Z31E1+WOR83oAGX0Ec2TS4iibk1FavEgwWpwuL+YGC5n4ltPB9ZS7AI79/U2QSq5bZbwt7M7+Uokt6rkiFMbVKr/GfAUwZrjtqSQXHvTN9feQuP12CUwlATmTaqOl8uK1OTsk+i5MG5FZnKeCZLg5ONFIU46jjrM7deEoXN48AwXt+PdR+XPWlicrg1Dd5Wjm43KDfKsdjySIbPQFveweXTi8FSYqoNyAp4/a/ekJYBrxUlH7rfUtIG6ADMx3dRC+tyuFP337apYgfk9G1Huco4YD9zgfFsCAi/2iDxUw9Nf3SySrZCKFo4EJaPuWYaSxG1bcS4J1fJAsyK6zHVe8E0uzeFsjinr9C2B2ouJ6gtomYX2B2/w8VbmkhStSmtyfozljBauOVcTknVhmPqtVdRXRfH8Y72lwj4URXBvqfbTmguIEj0Gpn/ShmA/4X9bA2Dn5S0XcmwVa8j3czwod6csK9QRULfNn2cv9eXJfKG1I+G/JGFZukzR+epS1VEZPyzgt0zu701sTo4FRJkL9V04QAFPKqR1fvytU3B+WcyrPGGX95TPhyJEwQCNW+m+ZpFMWrq0PGqvX7rgrckvaBMdlPTXt6M8jJfaQk1BQrJdtSo2vpV/o5dNa/GO6xFyJYITXwKiQ6aiaEFjWAHWSweXcmvgKYSygDw4o1sYBTlanpgFPALdW7Bvk92tldUVPMajv4Mny8w/5yUynnTLrzFmZpw8oDekfTYVQNX5xscrOxQfYu9czGF1xUPKUxFscyVJ6JWRsbbOUaaZ9MExdn7FH/zCzM1DnYhvMe8RqgtbhuZFiA+roXszmn2z2Uj6bPEK0K+x+3fbZLwotRr3AD/d/eguz4lhDTqzYjvn7UZ52UWajVGutl8no1r9btO4ORHXtk7i47eqb1sIIxy9muYyErT8Ca2TBNY25lmwq1JH9h14rqJl8mgEHddTRzPsh7d3MRo1JWRqoYvVA4lbLqWyIWJPOv1ohiRbTf9W1MBuIMUuPgbMSLGkVo+vYVjv7C3/NIwXMz2wKgRxVFtuwVPYguYtoKNCaM5G9H7rob0VTsuqPmmIwck6+kHUTCz0s+ZKFcntOCv82eeYbpXlC3v3L25zZbof/li5zcMCEYwDZWZMT9iV1gyfZMVqSuffNk+/N6rYiSdABAMCKcieHTN5pXNRcLmjpicS2Y7gj/D6XL+Bhpl6pnLIua23l5lWHzU7X1PXEa/AYQAEtwEU4AWfC2MnAjEMvdM/OqIb0JSvTmxgbCL+00t2KjIr24prNM+mHkkAJ90/0KYY/Ah+BUUdfa4GbwFQmgZwsMhWEJX1x+/CAfrTsrtyJ0oN9Nwy3W4QUTvvv78OdJfU1H3w0GWX5LBqm5SXMxbSa34xbTJ0KNlLsWa+FAazOLPxSvdTE3KpZN88uLdHnnvKJkN+T5DTVrhrDww/f009sUAXtF5Y9mwxq6BB4xLTFFjJHyfIjpj7RMRmSuP797bH1mbTrqBJDwQ8Ycl47bCHm6Ji9o9Ibqlm47KyGoD1wFrqr0fQ6NpBc6eAQSdtkMFuWv8X1BizDcm5PYrE79FrUjFgP5RunZNrpUGuNgzs/vjYvhvd+dEAVDwpwitnLgbZcAhV94MZX/9/8KPp0X6CFKGZyx/UlMOOv0DRqPdU/E1P1TYswsc6gp7SVjbcebxJR7m/bE4JbqRD+XeqWXBRF1QBTUEnBaVsHEnvmL5mcpC03gLc+8nyXMyjzHt4uPmH672i8cqXQ3h7vP1hQSL1vYMie6qN+K+UzAkgk5nfCbSPz5z0Ub2ikQZnEsOpEUi7WBkKKAWYNUmeYaFEhBFXgGzVpsmGuE17nCrpivjGpYmSVMFlIEcaLNlj2HB08H3PY3Fp2vnTA3u8BrC3eHb+02Aif6rCtuzR14qoPSvq/kb2Aq9LDef0gTKvbIcBuELCL9I93dQjtXvuwij8B4onVkhc6lqMLUDC+E5WBBpNJ1raqc55qrf8x0RGwMiPYT2mBRqO9r+kC0fqjTJ1SuEoUXFG63/m5R+rCDfz3ygT2uFdsv4Y5ipWxZCdPMkbOkX4+dVBpLtE5duJ0AXcJRYRGWX3E2AVdqLT6JKL7mpDN8aKEF0RxCaS6d6etjuLZjOnb3Xv4smQBKwEdF7/7p4GeAArgDL4vdpCIgBWDS8zs7/ClwzVHOtvfRqHh2uq1B2g1vH/T9UL30P7yZ9lS0iLUTt2IbhXkaWCVQth6wWFFG+Yexe0+/SHkE1SS2d2AhRuPYtPYc1IbxlN0lCPEBbERYpLZDjDnsQSQlEDYPb7pKYiNA0xK5yDerXBul1DgxvKCd3bCTuZWhEr6XeKa2WjLGXem9TarBnHrXQKJLyDRLKkUHPFsPIN3+xf2jem/oOOIJcxmHWFzEUVnZW+VVYF57Xg1OnpM/8K2Xht1XVWz53KaWaL3qW41SytMphb2V3aBJ9/jnAftm/gJHlIUa0wYDy8nGxaIiqdNF/u6HRnyaOPzfh/YDWlynkyY10VVtfmyd++8f0/S306OAEQbGbTePrMe1kuK/rkEMg2PCCXM7SDAu+OMIs9gUpaOThphTgwRmAXYlkHspwKTpfRKar9qlCiPyN1tnIEt6TUOOSX/N0EhCYxfF0abEQrJ6kmKkjrRNgeppwHqA42g2Mvu+/tbaf/2KIHzSIOGFgwCvZGnR8pel+3oxmAlzwInXcuzaNDbvQ5d0ExZ8lOD0QJqQK2M77CRrDWm0+FTZ03z4aFZ2GkfuNprNpttaDiSGguJjXKovRmIBM/fTuNCdanb61TdWMt2QKbZakEiSfnXgMLi2KTJ97lKec/ON9uEPUCGR8FbMbqDicDi/dDMfzU0l+5hjlPpzvIV+/1ZPrFGFCQcJeALJyLPUx/jcnWxbL+KRWuKMVy2XcVy6R8L7JgDzorw9/3BGX6d+U7sSTlWsjLJhf/w72cRp9yCkuKan4LVjRAxI567Roc3Ie6d3344TupYbW6KZq9BDOEoTrnuuuNC/uODkx2xExJQX30Q/qKlA1qODzrdpL4ur5ZwT0mBQIJZWvuUoACnRxSfQ7sGBzJfkicXwdhBLS8LL4rPTFC/r/AjhTtCzpukMn7EdBhyCciPQ9z6ylh8QlhNZvKhuWQAnB7AC08dmp/h26naz7ZEgigU8oM7vzvKwnzdij2hmc0bm0gMJAvJcqCGr4/e8GT/HskpGjpFrvk2yZyS5ptkXrurfu20GqcX/bcD83oqEuhfGHKy7AwPbVcBLIFDDXMCtFEF7Pu9U0XBMgWD/+wLf1eNgrvzuldJSjlPpMba6KA8/h3P8yaOCyPZPso3iQiFgJ4Or1DlSZ5pW1PdWuQ+C+Y/7QceDJ3bdKxSCwc+QKUqCNWyhkryzxq18Hy7fuYBhO9hAjjMFxjw+8bA/t5LfK07c5ZO5ARAlFZJDykS+1bIOKnansQI4FvHrBCG8BXQXZly0gC3curBSGAV8tWWZ4rKNsfHKlNrNkncx1fQAJK6CzYjiG4N9zj5LtearR9kGKG9UKcJDgM5NLOVtQN0c0zwFOwjxHAj0lFQiZh8JdBubSHEueMDnKbbxOBDQdzybWYISNxY6xDRrHvVVsb61p8CG4TtO4pu0dh8eqxD6bzresExmP2bdQXFCVXfhn53KHrq915ct/hz+u3Y3Q39ZNYMS/trF2Rv6RX7YhoUsmplHGFR/tbhoSXU9GveE2DahCVJgWuFMncXFSSU4jPTz3+5n6vDrEJECPFWafR3a3GD1/c8Tb5yBbBnnumLJ1OEa4z+x//2UpQQzkD+R9PHdKhcf8G20ziwFWM0cqGTRDPdaY/OPRTa9NhYZn0xVr31KIzb3UduTOaC+cDoejqiLIvKy/r24AjgoZ7SaBLsnosaStmLp3d6PDVe3WwOhS5exfEgaX9m21K7QzN2kpXUyfGcPeeHvawZdNuFDBW9Naz84QqLbtnQvCeVZ4EloBYMD9iWeC9p3bBRqmxSjwy0w5YxWdV+buvam1QGWicncs3OCeyjMADTqjQ8Dbap+W/KSW0q+GQvqPwhPhNAyYoYZyjMzme1oGKF6GCtUX7qXaLbYGbjblZ3N7EA19vYBNyg0Uv6aSai1gR2stfepVWk+yafRX2F1prd6RcsgkX5EkNMr1UV/L1ExB5KbzocCM2Hzia0A15bS/jwjn3onCnGxpESEhvfKcfiRVm4wHzBF5oBLjnrQNxqvd3iVVRlhUEUuXEpKY2aJC2TntkQpuf0J1tStM9hv/QsNnV4FYxU2+qBf6VNydsGOz0/yGgKpore2QYsXsgF4+2O0dSPdIorAEDt97sCPFo9rrrJ/pIZaAAAX0ILqd4VoA28x40VzET6MPiNDWabfI60kM1v7+gmCKLNcc/8wXF7p9ac4WieNDboEqxYZ8xpJvKWyd26YL7nmKSKO/iSkxVhgbnEdornvh0H4Wh6tKevRCgV1KfAIg44gkrhKtYUmeDFxpcqk4y56TO9srgYjXKQZQagZ37+9uLVXGNOv8Qwp7mrFlpOUl9zUzUcVs+6BHANwt6/J4hBAjc3ad8lJDAjIXKek1HZas7omYLjJvnPh0BPUXNc/RPlWWilgayv4eOGJ2UmWpI1J7X0I2lWQ9w8yulXe0Ztv+4hIzMSXK0aekCUUDcpvbfnVRUpVj1ieYQI6iUauN9MxcLHZwdGGk6PGr2soI3uF2HSgagZFazpg91ngqCYgRJ7qWd7RXA52KePiw9ccOYT/OESP/sI7QkU5tMZ5+AvJy0MBamUW/tDVvD89HcltdydxOdQOFaTJdpQW0kLMa6PjgSY+NjiMNNNCFE3XQSouOP62h7agTkTMoORKlH6sqvBbnTk9/EtKaLb0n1hfAa6s/5tR96dQVN4URuFNVWhF2k/37povl+vL7ED3kyyMmRHO0Jr4Ic21nEgtlnRKD1u8CPzxcYwN7rKvp7PKaslBSiThFaw7dlr64p8LXh0ZCRS5Lb5Kmln+kro/ks4gubUVoziAut2dbceUUGBOaxw8lLAwOaxz4SjuEqlwQ4B+qvXWz8NvoO1NY/LDva5ALwSH4dVut9P7QypgOnyoZw1VQlAHua9nBeX5pfV0c8b883SoI0sMUGKAx39Vf2QBOUi6gFUoFUohqfrNg9LePNfVUULVjLPaqxV20ADmsl/gRhPGvaCHYWKtnwGE3rd1bddVSLRyP2IX4i7e2/YC9ehzSQNnyt6Zew3cX1PydUaHgbMqLqVSOAczovWz5MkyWsi3ilnjDTLbqcSZRm/tZh/9cDIw+hJArmoA8CrERIZD3Llh4NxPgzHNbCXdgoVl5Xulrj+Pznh1QngQ5wOSkIvrQ/C7A6Q6CRNRi16hRXrY6oxoJiej6AIAONdJitBM48nh2FFzBLTwX7i/sMXcI48KZyEIVBHGJRK5RXqGzrVBwUFJODRE13epqpW3z6iVniIjsCIVCQF4/Zs8Y0mYn5cl2o8ovnJ+GDKDhf6r3iqppMyzOs4kJUgXFFiU44TXigj7l3Exg0sHAAiS9HBzRYw4otKNEBPGioiFbFCpqMTUlSMAAAGfE2hLrDhRL4k/NbFrk/jvjg9vfyomrDLn9jaVkk4CWAMq4Pi30hrBmoQAtX4PNAzfVFSYN87i1PxNQ4lkE3xJEQ3cuSLbT6g708hCQtxUQro7k4hG321Zf8Kh2g6pqfWeYsawVHsJhITbj7fXjYWpD6G0DaJMjM6HVYZJvoasKHhjmox7xm3OiWrfuMjUd0u5JzMVRfR12MCXstesHWuKDdr77U9VbVZsHb4v38w9BvGEpNNJiSf56VqlTw2CnnseudQVdNArjr6lB9fM/+8xb4nEnWPkZYje7JByXQAIAtQ1Hax42HuaQMARevf2Zfk8iwdTxoUhffzt/ruv5psI8WiN33amBKODNlr5BPNB181egSidJZD/w9xtJeCIvr7KCMyDYilfp1elQIOo1gynxfyUDMNZrBWtuXR2AceGwADip1fBO4FHhKxE4ekTUYKnLMOinlC3cx1r2NGmP+13IDFogEjGPL7EG6LgZ8ETScTF5mHruBdbsLHilicFDd5IsAKESG/cULgmV1Hr5kz+ijhkIwCDHGSRn2Oq9SQssZfcfuyLjCOFvZz+NKsFhkkCNVtzSzfN5uPbZlbwBdOZhOM9et17Ib+XLgV++InFFL/AyzW5lUFgaEkOJ88I37KgWx2IGy5lM8I7evfwiZ6u3FpWjel8ClE2VPNdAsvQOICdtvY34UJ/MkBVahyCXQHGyQFTHsHpflDD2KdD2oWHtXK85EbnvYul2TI1W5KOScUxT+TG3mEuqq+6puPIs6jZNT3dbTSxvZNdQmgQUNqJnLzoMZ9XENoJeQaS8X7wyPR3y+SUkI9zCXKc3Pk1GATZvZ+XhLiZKxx4ePrwdVnGzcDJQwXxlA0N9SDVw6w9/fOvrUF1sJgQx15nim9QrqpdXUiAUM1ZMDCczFVPB74qpvTbfUAAAAAAAfHcGQ4XZP1ctYjZk19v4On/tQc4U5Jn5RZR1xwDw5MXeu2FaPDaidRdJ31hXo8C4VpEBQFAH1PakN7JjaiKCe0FSH6X8ENM6y6pg1FRz5E/Jpr+fV0hi7bgsq78eEHMKrvua3qiFn6OEhocKpD1/frcsMpSjPuN73lLkGPWZdEYwyQO5xYQID8OYxJz+K8AdP9i1pZr0tnxVoLuAAAAAAAA==;" parent="1" vertex="1">
          <mxGeometry x="142.5" y="2365" width="598" height="278" as="geometry" />
        </mxCell>
        <mxCell id="V9ja9C6b1R4F-isLnQs--110" value="" style="shape=image;verticalLabelPosition=bottom;labelBackgroundColor=default;verticalAlign=top;aspect=fixed;imageAspect=0;image=data:image/webp,UklGRoqJAABXRUJQVlA4IH6JAADQTQKdASo4BFsCPm00lkikIqIhJFNJ6IANiWVu/HRZbQ7LJafH5X/Ad0HGvgH87/d/3N/vPu28g9l/rL7/+tf7z7xedfsryWfOP1L/i/3z/I/+f/H//////bL/Ef9X+/fuH8k/0T/z/za+gP9TP9h/gf8p+wvxqfsz7nv77/5vy3+BP85/vX/f/3P7//9v6df9D/1P9l7rv7d/t//L/xP9d8hP9I/wH/d/P/vPP3s9g7+ef7T///vt8OX/c/b74Y/6d/xP24/3nyO/0f/Bf+38////4f3Sv+Ff1b+w/139jv7D8jvBz7n/d/2T/wfp7+O/Q/4n+//t1/cvcDzF+r/2HmV/K/t5+f/wH+a/8H9+9wf9p/ifyG9JfjJ/e/5T95P8l8hH5P/Nv8T/bv3m/vvq5/aLvddz/3f+/9Qj2G+v/9n/F/vj7dPy//J/0X7y+7/2E/8v+Q+AP+hf2L/s/4L3O/6HiL/nf+l7A39S/0H/n/2fuz/4//p/335y++n9M/2n/s/2PwI/z3++/9z/HDB8d62bb4vbBO407hWWS74Wc35fuH5uXZcvoT279jE2djLfKToCfRVvyjLgui3DnDgOfziyFlRM956RuRc/2T6rY6dCnyMwIOIFmO/DiKYpW+fVQFl4u0Xmc/l7jk3H3qluOmBUtBdYxE0HRtiJ2qKEpttDo08D1BSEnY6dCn1yg5VVVVVVVVVVVUchrXPHkB2qd/QI03NFyaiNqgErmx+9dBtk4QXbrItGVOPTGuWnMW50eCvqhpCDDkFba06ANTSE9dBtk7HToU+uUHKqqqqqqo8Nssy2wUoslRFWwjoOUXcWFrUHKqqo7E6KC3cie4Q/uPDME14xeZBOBQabIU2bscxmjp0KfXKDlVVUZAMSUncE0fx4vvroNsnY6NagNDqqLaGDnSI+vWdKFuFh2KnYAD+S556CPjPVIU+uUFVmT4FE6Vh9Z4CxR7g7iaGv4z0vCh7o2XWK9hQX4nZtd2zbBJ66DbJ2OkHPUYHcD6ftxgBqH3S73rUklVVVVVVSBzS/kIVEUJEyoSBB1UGaxcENTdhE5NHzQyRE/EEpqvGQDK53tu8Kn95uMP5KY3Wbg4pBtAFqEuCex7RgqMaEIxioDArVeA9Wjmpg90XQp9cnPYRSu1q7vk7u5NkLmxYBqM17KKy5Oqhedklw8cjX1f5UiJ2sp9coOVVVVVR3qWtdCXSIOiFIKVxOIrbup30GtHbobW2CT1qEEg2+zzLlp3N//lf5tslb4kDhTlVR+5KPKAdDbJ2OnAQktxkz1Eoj30OYBS2gROdnASJfPTedmOjV7nSFSnQp9coOVVVVDejfibiXGz5DhcoOVVUeTPu85AQgJkTLn/r7mQuAE/JWOmfK6JKF1Bggff8AHm5bMx+qKEgxjobqwWg7G0tQE0Ty5Qcqqo7ErL7Qp8pHkvdm14Mc/Yg+Vzzhsc/Fhd7nQaptKajy6WTkhtk7HToU+uUFVml1RpMACo7lLv/QrORIDLOKDRGXXaTsdOhT42wTZf1KOurttqSF+s35J9x2QsrWP7WlXrAj6KSKLPWl9zdlPWBQBiDfLnyB9VpGlsJTwYRmhD2iFq2lnB3y5V6oAgqoG2TsdN/DyWsndoep9CZHAudkRQgLvCmw+etF2nToU+uUHKqqo5rJHWr6/rJPXQbWsoiQW3Rlsb28anNbPpzwLB2r42qPz+DjnA822mpQ8ht0nJIJ+1+VVUY8XlkaFuSpmE68G97c4k9dBtk7HToU+P20/jDHChtbYJPWn4PtyY6ImFcbojIeyRt9VR4PEGrgpQ2tV5tfDZQFI8XdqZEhNpnQbZDJuVCWdLMR6X4BChIzNlQ4MEmCgUJe7nUlQRFGNde306B3tLLM9F2iu5nc3ICHFFSiHcp2NwB6iJnmKOq6PRXnTt2SlbK+0Qua2Vj2Z7giSwo17d8xb05Pj+q+ugs1RBFsbYU4ewmZQbFeUNxUPG5mc2RhdvQkZJjj6Vod5vURR086dCm8JBgDTn+/IeTYZK9LmfaaQN2Gs4sfUBuRAEE0Kbk7ZQ1cXQwBB44Ty5moXztKIgxdUS5n1QfA9Q20l5vF2hhYZWPVQRo9iPolpBvyT2EBoloWx9LHToVKoTBBgvlQDuaat7bjpM0+eHVsSWfXfJFrxGxEAtBLM1+sNtfvER18cpZwUPF2s0NRetgFK6jXgpYmYzGuJzrPzaE2YemC08HlEUen/XQxAtpqCU5eHd/PSVevTYMKa/RYlVR6k/swWIkTNaEtfINsnY6dCn1yg5YnPVOYTGWMgsdEM+7bft6Da3aykrtNHpeJHt06UFEmhv1mPn2rvzz2cMwEc2uFPhwlOuZowdNumEfo1gdWMvatTgPUGqN1Y4Ju/4KYXmqNCOZUZ7r3ApauBGgrtAmIcQBE4ZMNsnY6dCn1yg5VWJusDhKbHiExqaUhP5nkyoNV9Scr5Q4aJ1yWwSebOwiHKKprcJ2c4T+xi5Ixn6AiuNRbcQQF63BlWpeHyA+v4kV+jzcusadagWe6YwBF+q0waOmUo0lCRcrEOeQ5mwYGFdL1TSDfTN4AYxLS9MwobW2CT10G2TsfOPKakBLJ65w1/LB2J0rriHnvxuUXrbWiJZr1XaS884Q8XuJ24dSzsKF6iwjWZzPoa6WJWd1YuhRWjZT65Oh86TUvG3yeIMSv1f+LFs6x+6RzfK+HbtTzdEjTz/MZzMXdeVPuonQp9coOVVVVVVV6vo+tm6i3KvMdcrXD3vnJ1E1BqakZFY719B4v4lUx1V2E1UtmiaXVb4LjBIfpD2ERZB2TQi9voQNTdiSSJyjvLJDwM7cs3sTqT72V2LCV9LgQ1mCsuhrnRGdDuHXVm+cqdBi3xf2Gr7TWjdOunfgVo3n8zpTpMPPXw3+n9KO/9OWSpXx7LkPnqPk10XiKn1B+P0YSC1J1tHDXFOztMbOqUz4gbWFfzsdOJMI9Ya750LpjmTy2vOnRUnu8EpxDByC2pSyehc9eWHbfdUtpw6bfcn+RYkOi8DaBjnip9fbahM/KzQDLwXfDlkqreh4Kva+NkS8FvUVMILS/gxgQUhThgB0vZqB+0BsRpNQFbt+8kvnsgXL0qm5KSYjbBJ5fNwf56/tdkxhaILatCi2JDP9yTlMyr30KmVe1shqlT1qIQVxudJemUlIgWy/ramEBKBqk5xQv3whZLhZC6yoR+FtKh//SNFzj9se72zow2qML3pGYgdlmDfVZ1eT8OdEXNECQmEnIGQCQefB0VPwAz8ba8LFMIKfe3nAmClsnd1059LNFj3/IU+uMMsTyoUIS17kKFw/bbbECV3YZbLS44+wMB6fHH9oFYOkimNet6B4+KE4B9Aubwa6MTdBPSIowO+kWJ4qoQN3QSmYXcOGIFjCsp87ZzDgyDjB5nLtYY7mDk58OITnyVX5fQpu4WDIpNHVoaiLvslVQoIyoJyVQ25iVBbYG4zabIXX0UIBEFlhm8u6zMrTeuIOzlYrZQcOdarw7qdOhT6w/cx3Q9lbB0HPSIhhgoRf4AjYJ90NAKd9n+RJ5+sbdM1mxdPykNYlzb/3zNHtKcLT2mZ/rzkyWidhA7s0F0rMczSBe+G7oW2CPUAQ91eLIw1Da01+Dy7vX3HYTAGQ14n9xEW1WNwiG+UjajOrSii4ApMhz4cJmFryrSFi+JMD02kKCqMrt2Su8Cmczv0LM6cwhQUOf2v9NhXX6waj2MZNiom+ZUxhjvDC7jIqYunPTfbsbUBITjr4Y/BLvyKentNE1GPMdzNbBJ714k8lTlts9xUcCzDw2n9LZyqwRf/Cy3bxOv2q1iNlkrMX6JZ7uOazYaRu6wbfIRTf+JBUaYOYf8GJgImMXAjxP6PiA1ds8C6appZRd7Prnqp0sSuzTsjnv6byARQxwxH19MCjrBKL+qckXAtgdDpXV2n9qPJPDfkPlqXUXw/n2HbV/a6XZznMehZZ6xs2Ss2Ro1FbSKJ3+UeXjSuexnLO3EHOaE9+X4FIrk6+da+jJiA8fAtntWxv6PjyFeI7KpRHdKii0Yu76ztpsG04HcB0sdJbVGXP4jiHwvMQ+2/83d1GQqBwLDwy8pHJk+m/tR4mloSA7pTQx809pAWVzG7fnhTTHhGuu8xyYJ8xpGy6yFQ5nZgoYDbJ2NltfI1L2dwGZCk26PJgLJFZ0ln5BQpzrX0vWm0asHIyK4QWYoPuqo8CRDucAdUkaBTaHhDfjA9sJw2qHie/0Og6x+MtbkA6OjqE+cu8AZL0ilb4y2SBj20X0xzwB6DgMvwp9Y9YLqLhMNICX0UlUrh5RC8ME+hYdEpagvWPn+R58ZRzdZacJ99/0Zw68HAcev6cxNWNunIFITfr6kXQKeEmD3tdbXb/h6u+7XCYnws6DXkw4TppgMR3yjtJyA4/mxkIfEAckzYeheKzhg6LEIJdCn1yg5VVVVVVVGvdjEt24NQWNqOkkNNzkBwk8L1BvFgR/HMd68mqM7kj6cwoEGVmyumkHVI3OP+YkLz0cajlxylxaHUAFvldH00dzaG66zP81RTOHld1JgG91pqqVl/G5icFuqSarrkrVqj/XPN/SXbhMJQ59xMkrlnPmPj6nnWlSd4OAyFt6DbJ2OnQp9coOUZAVeWxBzj7ovd0GfihTkHH3YvrVSDhsFEPPbajWwmAHOkIpR/sUpVtYP5F3lImnppDEzM3CISCRtaraHRISekEC256zIOhrWByaX+d8muvrp6YhB01twjB+zVvH9lmGVNMY8YDcwUQUDAuQ1SgIlmWsfZT65QcqqqqqqK42d0Fa83vt5xG0tcQ9x3OGrGQmi1LBr5R4K187HTgbuYYgQMG7OnQptTsKIaTog+DF21q0Shi66aL6XIJkyvTv6aEkfwerz66iYXyrNLrScCaf2v7gGfPC9rInqjIiv5cTrCzNE03wZjfTVQQc2Uz1J/jZT65Qcqqqqo9Fp4lhlntlJTElDf3euJ3zKrGYRa4N4NNqmHlyd+QbZOLKaRP3Yu7PCfKY2/prMvK4SC+3u2faDjNaYmZy8EpiX9mMypxwcYKcRG2j1Hmt+YkbVIg7DCr9uHLT6lyvxud5bxAWIK8LWpWesNdBtk7HToU+uUHKqqqqocND6xNChtbYJbGu3BMnXtjs87ECoZiPATwOqZwVn4Rw1VG8sndOg5VVVVVVVVVVVVVVVVQuW2NmdQbZGEUQuK59hV+CpZWSItrDLi72GZ6Z1ElKRJ7WRQZo0en/DAssOMDF1xUAdGi1GatxBXiYuESabPP1pHEIB0cglr2adQRMgCEdyj9zEnDmqdwCLCuIRhjt0WA+iXNdInwa/Kqqqqqqqqqqqqqqqqqh/2EgV9Z62wRG9Aj9+lZ/PMVtws63Wn1XkfSihwuHGssyIlnTp9I/WRpJ7xzCx2/+1VFJLNe10Gsw8nvDsvKoFIXfnURPqEqxM8YjggufVilLyhdBZrViNJLzo/IeNx57toPKqXbvAn1CWzy+MgWKCBV+ps02x1WLrhq0oyGBlI1wgqHyS+Om2jABjWz22s4EH/IWXnZbj+5cGcBaJM5Ar29Ot6bw80lTZpIQoyg5RWbZokChE+U1zFWOxIFLZAWEaLGH2bh9tje9nFLUQx4AkrFxmYboLYOJFSRsHxNtBEsBZC0wMw9EW4B1mF4sEKZjKT5U4JF4oHxkabQD2oHFcQCeSch6NFWARPlNcwZDcDfd+TCg5VIRH3nAGSFfqYcrWfhVvmoydEk7sd57CUPI1Kza2tsEnrosUxjGMYxjGMW6SnOc5znLK18t+//51yg4boXUMEKhDsIQliIdbjDpKVydQnCslS1rUYwgcl0MNBku7GzzbaCNlo2EW5gtZ2OnQp9c10g2ydjp0KfXKDlVVVVVVVVVVVVVVFrtOCp4hrZ7ZY5Hhg/tT+oeGoGUfN42K9gNy7NyoMtXi0a/f5s8LU8ff/kKfXKDonQnY6dCn1yg5VVVVVVVVVVVVVVVVRfn7eYeAgavZ5QyG87s/ETQ5k5po0K37AdbgcqqqqqrE6E7HToU+uUHKqqqqqqqqqqqqqqqqNbirX+qOwER4x08LmVGrPiVcKmSm3Zr6PzIHcM1LkisT65QcqqsToTsdOhT65QcqqqqqqqqqqqqqqqqpAhpFJ0K2wSeugivwp2OnQp9gFINsnY6dCn1yg5VVVVVVVVVVVVVVR7zatWMDbSJNh9oBRBMvHOhcRHiddyj0WWqM3y/qV0M0TuFVHx0527mExGS3O5mCGRr9Md8DhoXKDlVVWJ0J2OnQp9coOVVVVVVVVVVVVVVVVUIAAD+0i61JJTKDfz9yyRxsceJcXJ0FaosboTl0KeiMcrBTUWCEtQQj8snjysOHDZzwKMd9X4G0q3KmWIlB6fRXxZQK52uouuC3FFbxenhtOLWTp6NjGO5yfhfLc9YUX0wY0cN54/uj/Ad2bWMqC86AdFeaeX+MTC0G+gcK9LQ1TCaCIHvUKsddYmXfHf+hhEmNKx5rvgZTwDmIEx0Im5PBlqvGoZKwes8ZB3ccCqTxmy70PU0nDgkQl/xan7oV+LIGoWfnMF5M0TGRkCiG2gPzbiMWHIKHlRtj5tvBojhV9SreiuBiNlKarKL37rWfA9pQq9Pkl3xypef7pVGvjohQLMoFSCOIP4fuuC6Teqlf/1DxidhAuvx4FFRgBsKM47BzYfg16JjmOodxkVl7GzcQiNR3EJAKQTSfD5eeiNc1w0Uv+xW7O/dFm7DSWnXpgADhcjYy0mZmoa4Dmv0N2za2UUlhHGazWVQHZFi25M6/U1zIatfpPYClV8Y3pvYSEicdix2Y8XSGhuwW9KDSrXadthsg04yhU0BxzMAGj2dJDcLeXgrP0FIDw1SJ0mAkCCYAE9Wu5Z8Nd/HUNKzwPShlYb26TAN9DXQLbrba3AmHVuQ8T8anJXFsrxcKW/3vV4U0AZm85/eZLEQ8/jK+l9Bvj/iupymBFrnpEyWxJE2OcX0e7F2SGXjqiSoIPF4B9lZjqkuefIQfL4JCv0rBbIsixFJGfgvlX5uz/NrjvZTAamyDwhMxCo2ZrpgFyPptEwmyyQRg4q3fLlTaPI82f9XpX8i1V2096WLY645xK44bjU1KqU97hkyDc1lS4dr8D8YcFRrofFUhy8JIWZEzQHyuqB2x8aAJsbBJh91HldzJcHiMPAWeZv5xnAXJTLkVS7q3wFDhcmuDAVuxlgiJPE20TS7PvuzFpxFDUCaAp3MpWIknDLIJMM3mvv+vVI791Es7a23T+Y1GAYY/CWBXigBgyv4mxkgZ/qSgTtj+OIyBQbIrBhTECbWHRMdqCmbWh+p8msPhUcF1m/asPB4vYvzkAYnXB1hoo8I4HoXY1nOZ4BGo7SPW5rbVAHKn770f29VMrin7ca4UfUtATSkYeklNVD++0yiSttFBwpnI8fw3KJ9vsm/7sMTwioD2XkSr2JCkRygp+UIGK1RoAXDopMIVNewmWmmEudliD2YrfaDlf4nazdqHPUDCSfEaiLZuEEsiB3miAPYI6hcHvZCMZv/1X7aj/PY9cWCQzsX2SF48ckCgRmKvY7TWI/e413leIFFpHfLVA3a1ET/i44u+p6kuNd2YrOnIyeNtK1Gh2nQhYdOhk0VTDyM/djOic4NG/XHJV+1AYHb5U7/XQ92Fb/H728W2XILvrMQRjCaLubbHvFc3i3F/L+/6pWjn2u8blgQuIalN6OE5e8bzPUnzHJ8b32wWxe4ytu4wFHrO0mMLrM0Gytx6JU2AAmXNuiaX8h/qP6ivtCuoJHjUzLbulpeqTI8zPUpDEtEKYciBfthHrMqkgO/Re4RkQ8i0ZEx7NrFU1jhiNcuxSbctcfSY5bOshoOTfaTW3JdLavbusUXP2/w7m7Z6ELKWTFXiT34mw0ydxpSUItiy23TLSqmLK9b8F5eSuhOPqtsuXav8mDqQnSu08+MXXOA3nbqiiIhHXsx0FFmZ/TxZc0bsTTM8FURHY4+ixj/ALRvHDOudaIY3PK6TRVjMQjNiOFazH+2rwQJx/x2muGGsv+nLp905XWYigQMko0tEd1yiP74elhRt0n6SoqOZLqpyDTl3GB86AcsAoloaZYCEVlVTiU0/dgtr9As6JuxQ7LXhpygn0QEze+KW6rlSFL3fdI4hwGcy9+MXC+MOBqeKeRi5I7cc3MTrq75YyaIdyBtzxr5j+yWtc9s8llLridh/ggW/AGMfWqIEyrQPwOJdJhr/bEJfqIPwUUdbGN1ZlwPmh4ZH8mKHlTzXXHwQhayuTlhiom6FSNFqQx+ufPLFpTUFYrbIxhjkDDV/sLkahrV6Bpxtwi5SuFpP6ahC03HAYhsob0iK4mJkmZoIdHq+QH7+/bjthdk8L7Dsdzif+9+9UeANDwTg5Ukv40PzlA5LQkKsG2TbKVDsOn7sPkhtJgv/u96b97YN5Ygmn3gHMdwaAry9xhIevtOSVDPRVASAi+ZRfYvLXtVcF669cOWfPAgV5jEGrUw8SV5qzxM/2LkrYnV3Px/JSkUKrIGU1dMltGhXwS7xJWfewIRA1SwrMD7DMKCOYq4Qq0vZWKrXb2qiURmQ9WqUGxCU+G2z8DLJt2Xf0UeUQkuDynZ63Ry8BtkZW3plbP3Pwfj1qqzv8R/tfbVpx9c8FbLb/fe6sfF+n7pg8nYQHjUWGhN/6/CIPzZXyUeBca5BFrtCA53eGpRV0QaBe5juFLGwcel7JrCqP5ynU8G/cSfVBEgdk5lhownTAhHzv1zXbETXf/SuldIxXe6iXyecwvFHsDc7e4e+Foz31Q0dEjsFnsi56fguAf8HpQNB5TspN9A+Zy6s+PbHk1+Dx7EvVE3urNhhPFgszRCNlzQPKASg2G1/YGT2TEAoTaaGgu1XdzpH6Ptsic0TVSaLQZiRTdIKEILRum4FSptQrG0p64LhUvRhsO9k0MWJCNXVIL3IdrxVQakbR+I5B3TSK/Tp9pxqxMRsazL1/195JX8QwELhNk8GIi6UxmGU7oVTpWVFpJG/r2O/ttLoBulTq01frAE9vfkF4/UEZzNmswWjSNnQwbfkcuYRwTgNh0xcJh+1PUUFn8t5GIf7CAQTUjuhe+3T1U7z9w4QcHoJBwes1ToLqDwelSKBm15tKP0IusOATrh3BPaxOnFKmPCl4tzge2evy8SkX84hfLNRyUCFcXLmqMf88TKg3D5p25d+TJUc8L2tQJMefEv2wta8a4WcAbG6kfU70MdvREYkjJFgj5km6ZtSnBi147x/kjeUsryRDTjy/NNXOBaN8yOvyT/2aoHvqK+g+yJ51VgJkVaiOFCoyKiq+ApAzRqnv5yUxBOFv7lbfReedr/5Q8fYS2ofKt7LRUfDeJ5Yxsepwf00JMdbRFbarAFstajrSmxzcad2kWYjcgqeMT8LWti5K8rmvoe5BwhKa5vTloepB/MR9FBXAtMtmq8DGlXT8qaOMII0px6PMVMA24vbni84zZVQa7xR5ckF1+uKlXV7gC6CdL7OfxBWjmGItKof24unRInQXAs6A9ouBSUE0gQvG3wU2AY2oOJVIeQdSreCOZO7KCoXPCNGePt3p0uOr8MDd7JFUFc2Qh5ThE0dUGa4yUztVaeHslMh2SoIiiowkWKCMuzfaTCRHRPj3eQz6wL3EAEn9gY+/Y91b+uSgF36UHKqUpzJT64o2FZs/k46r+StSbaJYdfLWF9Yt2gZJ+yUWRNWnX5wzsjuFZJ6KDtnDa7j6ixp/BknwlwbqT96ClW6T9v2QAROETBO8KQAB+dJF3smZ72h75Q19cXf73yu/83YlJItTIzzORsTu05n+9cMiQxRh75o042XZ4WcX5IjNOoFO1kFm5ftsO6AMyln/L1vJAF7WpDj7yS23j4053Vo2e3aIo+8qJydBd0uoEgo1bENKfUbhfMuvWxtq2sfOv+ThvQ+R/xAY+cZ9JXj4FEKrVPbrbo3QHB+JqgGI/piniVbfn6uW+saWIj0gEkwEQczUsg0o/riMpHmG8roWoPc7cvXqCdBftpalnl98MNZRwWphdJkrzDs3aLekwpAdxqmTVOk7ZUU+u5ZekQiZVcT13sMezPAls0e4JrLlBvpNxgeDYf86dKMhHYlnCUd5pUwQYIAXwRbEl01AhSDxN2F8xXH943rtC4NXG+bfqICosUEDCWsmgfqgfi73mvVVpsLTkidSBnyLr65oQzTw6mq6m73xSeOGfUPsp988OShuVp0GXIrd6jROOzR5UVzSnZF7zzSzpe4qxG6agBvthJTZctRy+1Bx0VxzrkkfVBCRDGCZ08J6bHeD43CKjka43c9jFD9bP9y8bhNq8nvwrujf8gS29xXbIsqafrX4F0rmI9ZY5xsfrzbHO9MfL0DGQ6spBkz3MCOaPMm7jyF5O4AuY7cx9FR8frxx44wpNSK9+3oJNrt5IA3NQlM1jmy9DItWa9ngQSE/QThfqD31pKQpAROCBUpJNKF+wnH3G8jy9VJFvgd1h6rPov2ORFaS73pyr0iR+n4RsKHWeMCTMD+PGBaAMjwBP9mQWa5D659oVjq0D5PnG4ZuOHMEuNUR2sS5fmUd1feO//YChkR2we/W0R2nc5cCV000A0SkfQhm1rXij8o4SXXOLRXsHLdftfilvit8XnTpBcKRNRkytB9I0WQuIjY0I5XuiFDXaaVph7ol8Wv9jHbZ6xdzTGMs7WUXNIzhD4OKAeEQNPZtUus1PEDocVJEJUaFYlXGSXKAR4zqBI7zcy13ACgk3HraCEo4MPxwrB8CmlZh6S9usGKA0SfzvmciGhWQfxI3JRBxpuA2PzRC1RoPKLxm9BVESn2PpF1A6A6Zuq13RWyRMjFj6lZBOB1n11O18ABHDa+q/OQppY8omhzfJyPw4Qti2mBnPAwNYj05k9AWgd6Eabbl2ZwGGZnXRPrtUZab1Y21CW4E/Cdu4P0x1zUe3ZPSSaq9nrYhuXeyZYYi88TjyhNt6dlZPusWcNEOiGdoAXkH8y+uGFyRYeDIW4fAf/TZ4OQBOZH4uDWdphRxrFKSvJy1ufQrvVDRiFEC++O+qwxxsKPQbAE1IsJdkB3kGClq1HQmNvH+OK/OXsolEL6OFr4jU5XIXWLvkmBjoN+ykHAcYdH+KF6WaV4rmmSY8MMvobyixP/jdUpjdHCcOWsIlg935ojNK4V2qewV2cEbCwRX6RVaqHc/pmfbKq7RTlUl0GCGGWAlPIdXWKQx3Z+IOaAiKBGZtTkBxuFq6ZSR8+NgyXFXEW5dM+rMz2FMcy5g0p6SoASYu8UyPqcFvEn7nzpHuBxRiHWsAlokY3FEuJZLsLb0QcowhIOr/zpKUJkaTaIU8xxJMEWLGFsHMNEawJTS3FHH88kBu2ZfpYYBXkxnwuD3JiwphKVNPctxZ+aWp9b626qeMdRqtKxn1Rraq/3NcGHA7VnaACWyuiMwxisovuH7CnXBihiMQVDfdoTczVSxes+ow8LSTVKdHYs3G73s8JS/mCGbiPGR4j9DK7Kzn2rwosNOuCQuryr/6zzqNxUKW0oqSiy1Q5p3nVFulrkveXMeRkppE/kz43V9SPs3xQdlBpC4ozHGY0JJgt0aUroXyeNH1WzzM/EGJTFPbV4hbiz4LjhIlAh7KinvyeaBplIOv/uxkEr4IHIozhvhspE1uXuzTezKxXZ3bw/c+/vIVj/5RDnu/YKlI/4vnqvUJgR7TbLRCvQ6/do4pBB7gOm1n6U4cDZt+B6nnBeUd+k3B2eFpCtblypVTYS/qCJTsxWbm7AOwyh1EBqEcmmBKm1sfYcL7G3TuoQUuhkIIpD3xHsXQiLp+apOkxahKYOfYsz2619C1jfa1t1SEFR8RR3XKvk6U5+1oPZ9pWb4TFgJPRun4rhTL8KmbAhKK7HV/YXo2ciKUilCRntwcG1P946A8RXLof8DUZKi8iBAG1sA3kFie0XcOgLGFfxnaF/PAsPMLRQOaf5ZomFBr8qNhB1cUHTxORVZppPMEfaTcq63hiE9/XuxD45MYlc+FtHG4SIwbGmpY64/AnT8ZAlnuA8gHBh1/kQeKesHkxF/ZMFVUafouHd7WxJIqpLI62TdKwfNNQV7KwJVpqWlLEyQPrdzM6fhXqx9I7Kywo10tysXNQ5nGGb6kACP8F6YKude72CBeGDN0DgN6wGeHRyEtXo6kEmKu64NTVh3856oEuIGJRD+8w2lzpCBUe6QkxUFF9CeKJSbr+tXflrwud0IXfqPkntvnkFPbnHWpoOw17hI4ghJyW4R2LkB2UKrSWvgA6zCJfjRqzv2yDP0VucQ3UkFSYkbkHHda57la+lC6bghCVOc5aXZD3v0IyjYDRF9/gbYtMrpqZA4BUtDZ4BhI5eOLn1LHGbI/iDIodGghViV+U/0sJ3zbOsYTyOJO2X7P9XUlO/TyPcBLKmBLkfevYjYS8N+cYuWZ5jqGJLS8FvJPE4POKJHK+23cVSBP8xqe2VH2rOai5bHgBJ6XY4cPdR0vbUHSSYJjU7/ttAw4NDzdqiybMWND/tJo8MbjGI4Go7TnFLMo8R82Re9eugX9hFlE8Dt0FicbTbwafRgC26JKOJvLyUSp6t5LWJDujcH9Qv2NRYmgqCN2D4dr3X/pDfYz5mt26OrQYbtXWUxC41OFvj/66Z72bYmL2e2++iCxrZEyV7EPKD95Ndx27sBNJs11TX3GArxF/Kkct9M0TTx6bUhStnoI+S/mGAPswRSnK+LpWoUl+SmbMyTpYqoAiOQWGCnrMYOaE7XjRADyp3LGWOHvEQfnjLuIRnacurLyklftYnNcMmFJH51mzhhpeqHY+Q/N+6NXPav0+vzjn+DoYYyk4Z/FPXEJZL/BEflZXBS8xAUd6bmp7l2aDm/PpQ8xlqf1fn+Iqg+NVHnQ2QYrZ6aWvoPQIzzv7qCq0VIou2QK5Fy48SAvFbhcVYhsjrBZYHl7KLaQZiPv65bweLrM08bvH3Z36mHGPMyLXD8MKeamu2QzMJaLTsURb/+3HkZXdqwcuWqYnzVeFEUGi8wWx/XWXvagAaXK437Km88EbJgfwyRASkqiMIGMWiv1eJ0MU5K+s1d3mAOVvGwRxvyUHyjJ6Zo9bQkQcQd6LUqmN56ixqaNUsjtia2ootCBbsS3eistXyBb1p/30ZkH/KpzP5M+jjt9AG+lGmECP9jRCof2ikoCogHLdLQ8D9hrcQCtnMk91+HuSGd4+C2TAhc/xctIuXp0HyBJODOMBTjPyybit8Is/zNxWu8sdCOfbHjOg1YrLc5hBrPaOoKVxAjoLKnmd4SInASW/gQy2AcDZQ4wb66r5ih6kJRlS9BGVg/55ynv0j4r+heN3bgMdoq12eGk0sj2eoaRLSdg6rdLbMujw4n5yrY1/N83hIdvlqIM1tNI0m1Nzdrs3GEEwNmNGENUmBDLQpmWDHgN7itiB1GrVzGoTUveSLrJcRYPe77Zi6fwNDeYsgRoOQTI7LLFCFqd0tyhsAo43uIicZgmP1/sO8XZU9i8ZDwfsiQ8NRHOaqm/V6bGDnltu5jy5ZtEl2SrjU1PU1Wdv7U+03w1z7uxsum1U5TCnP+8btLQVw/kQZFnwuf0KDrgL643/rfkhlkP0Ntlrb2wJT96P+I/lixGTtILK8qoA5JotGAblYLshaxNeszeqnA+uca3QoheWTAt339PkT+S14gOs/wIsU2ZazyBh4s/smXK7ITSVEP2f7Wd0joWlycENGr7eUuaHub1cXb4zLYlCH18d29jh7VrcZPAuYNTuqmt2hf5PPx2bQr1FPkjtdBHz0zk8KxFe2wB3RLbgF0p7qswwjy1Oi4Udu091MAAVLH7qj/JbaRTMxGqgzy24iOFfCFhdruJZo4gw2Ugdf8EdsLL/Co5EkdwQ6daWC4ntKdLGWgPqmFQumdU6Sv9KIwokwhSnhmHgtA00yhD3eT47AwzizbzpfX+/O2RcLcLvc2StwYRQDy28rsa9VVHBCqwRGYZloJxMAHe6BTp1MVZj89pnhKQLyFKzcuviRjUPHLOxrp+G15of5M6JFWjjzgIfFI9TiuC5n1uuOBLEnYa3pQ1LC3GlTlk6buaft+PWtPx0CI0WDlMlEj7TqAJrXvWy41jTYhTysi9dZ0NF54ztrJQSdTefGahKdOmnClnAui0f+iLFqj1wP+DjABK9nicD4jrKDywNnjRmVPIkqZ7YYFGb2TWiC8Mo7uL5paqcmqiIyXNGSLqxw48OtwhLVhw+Mg8gEmKlv029irV1y9oz4bYjpJu39E6x+gC6ji5kLOkFr+qJaVoR9H7zZlBB3/X8jSB3yeCw24YD/XcWbAMtyXZlkJJ/dtEvhB1oXywzOsbcc9AJx0e3ycfFOW1/QyZ09O7YW6nS6qckUMDRhEP+6XAELZrWF76oCejAXteBkZISHLB2Nq9Eaw5C8gxum+nNDEMs+tQYv++BxrxGZ9HvYWde0sigXPuG9CmuEu/4mFvRxuVIZXwWipLU97GR9MokvTFGD1TJacdCCKbx4EPw70K6btPcWeqZxa9CK3tgfE4AWDASy8yQjEnYoDmRyWu3ldNwNg9vNc6eJJVKkVmFRnqGoKrV/TlWTyoVoQ6jCqBldlzPYkca0mmOqeFK4nCuUuk1WDqtCzhxnimfSCeleZCpTYDL7alZipQoR7RVpUJpQadUHAfTb3uymyi5XobMKzqj5q/8gI8R3GUbD07TKXHShSEukZ3C4sSRBxAy0FhYMw/ria4O007MyZT2tzmZUdJ8msBV7g7+KTna1trOgZ2rOyxgzxFcgxofjDraB3humo1LWxbK8tKrqOe6L6bzB4uAon77e/JXx5FcQp0753MJnvZi6cnjk/3r2u3P16//Si7PhTXRqy9UbNu++kpvFLr4rXG0Z2456aEGz+joa5h6bK9vRdIrcpKAu52PGkHu7GdGKWLRtRllaCYbPbxmz1s8TKBzhsMzYE+E0QHfGHr/XUp/5vNdjoBEOIer3+46fRa6UhbISuXyXn/baaf0AXAgBxDkgAaNRpGyzz+Ex3b437jZtSrIutOlu8y55D1JwtmHi4XqOmtgn6+hiMSPw2kouQLH0/z2jnFaA/vwCnrWmUgDTcW+WKSaDJ8KgY64zkfLeomVr8xP94YWsDWP2OuVdnlKBU6Ns1hIyE9qmRyXSMHeB97UoTqpaexa187aNlFNMp+zx9dSlc/0QrsFWP+H7GWHaI/I+fQN4vC195xDe60MoYM7rEJ+Zb2uhFNpBN18NrV2CfGp9kvQyqAd9uFn+XLM/W64RiYBJ95XGILN9Oje3xbhR3KW6o4cNZcEGo3JrJyNCz3YiMplYjK9RD5t9k2vxO7VerGYK+6WDJZw2JRmFk4slcbpuz95gSapcn48iyRGKyEG86cbghf+oX1qlDtsJ6hM5q/V9w/1RCRIBez8+V0JJAXsA8JzeKu26BpsxhiuLKPZXa1z/hYpz/IPigW/Y7yfw/e1uOHfRwvKPqUtJFitSXkOq+iQ+XovD949QD10VF0lL4TwQozGGw6TeBu07NGH/yOIwSL6U0/BsBI7zs+nQWkWzbWWTCK9LMak3W08PbTmyCLmK2z8tVvTAh6GuHrwS1JBoKxWcs/3NVEsPyIKQIZg9kLrcvDNH5/fB5gvTD98gmWVzcseWmpT0EdpIWqBNryvjXWUr5FlS9RsopplP2ePrqYEa1mh8G1Rgvvce7OlxZ1rPIo06K2CazPJZKadz/wIt/73UolF5CcHHlztvty7m1UBCi7sLyIHd9LeV0Qyv9SBZRN86+qC02XKb7yiegJnGl8E2JcZ7X6S9NIVhSTY94vBEntexdhFumqGq/HBUhbJp9kioHrYnGpfyBDYA95SFDwvoisoFr+6uGJ0wBdAdmvIwOOIJN73ziovKRgby5Llqb+LhBgLD+AsiDyihCx3myi1mdksDQXsP8Tl+ysXepL2T2s2/WdnLQ/ryJX+tHHNwcuyHVEfoDXUMCPUT/9DmLU/uaMOtAW+NU5G6eVrNTvkIJzXCmttQNkdn+I82uNMupmK4BrSNJV/KXhRKs6PYGhp8KDH6DO/NI+e5j/zHCLbk/RGKtF9QHcWclKr+LcucblWs7dD3OKHkPzeCWpH8baQHHqvP6M3742RGv5utOmPVdBxcJRF4ciGvM/69KUSJMewH97IOQpC42INt7zlXFmazZif5VP2ymwNLGac+F6mHkH6cIaH42MlPykIljul3LvoaWicqUNl7wcVkxNwTOHYxnKNGQh5OQlvlKUo2nOXJd0CHKwmDpryY2LeiaGv6aV7qUQToXwcmIwLzeo2DIJSP+ixWtvumeOq/zL2Zi8SA4bnP9Q4yb1p0ma5j1VCwQNpf37zY6jyFIOnH6JvNnWYaHVSj2U9KVQYKPXzzm6AOa4eP5dbTnYRcDRuvEMqJSCEcK0l/QBdqOEQJAN2y/2/bNDuqd9TNEFMCMu7XAXMy/7hDI48WyKNKPE0uaQns8Domagob0LMLeZB85GEAZNLe/KNOTUrMYlBgSyeoM8nggbxpPkmY7Ac9cEE5pERTgJxzHqgeaap8V3Ll0zX39zSdc13lfnvtpii/EXWgNj56zNypSj+Zm9VKH154NoSEx/DNdEG9XisFbpDYuUM7p4ZrJdyUetNksuFG/MexHyJSw6K8Xkb+dio3OInUMo61jPnSzEhorMFk3UiwZ4XaAbYMEAjCedGS2X+DecYOlz65rA+F6iGSqN72ErTjFdXDwoj2c5K4GKHcdUGpEgzw7U+LNgZuUTlSGg0ycvaoD2fuYvErXAFrfC77IvKKnd/0GxK8/SNEyIeJApm+Rm9GG4CW8Dt5FXAYCnOLezXLJI3rqrergfVj/gnx91F2y7MKnCreQht20iehY1IdcBRED8TT/iyCUJkajcOwYS6ajrEn9BmOSOD1tf0RkomGdHRMywrSIqjQ0TQ9eczQ1aU97G9TZvlrJG5kgfDlXbbznkCR4V6nsJMRvQcLDdeWZmAZH2Gp/PcWwV/IvaZUw1nkvsVLZB5nsclfkHqSNB30xsu5ZCYuSaD9DP5atbOIhTQQHeSK9GOOUwkBApwN3Tm1BYswzbAqm90iqN6RD6gwZpKMtf5PBmEhUCMc0tohbU7/ozk6gAAAAAAAAAAJ9jUbTv5QnvAhnsDpjcvP7C4tUb5Hs+AcIAAFy5DUuAve5LCrQBQ00di30x8GpKgaQxCcJHcaGgCgIqEr7UAkxJvsWtupavk12Wywq8MiCq9kljULNSmm52h9ryzDnLFaiLy7JzCRD7UrWzNVbgncRU6aRPPFINLgUaynu+X7HHMC10QSTOzpXNRKRDna25cBJdpjWcgYeIiyV+T7FjAXgugrsQL08ne/LSldS/ECLHJFOPOuwZahDbf+V7LtnTqI0z7l+wjzR0DiKBoaRG3M1emNqM40NZPUMf4QMedf1aD6GzxVgStq2GSswmUpui1gSqnVTLkgpx0sHebaVDdwpavibPJkjGziaRCN+enZrkGy1tm842SOy5hdSSFJtKb2JqAoeovuKqY2EIekjy6zMqbEKEWc3Hjif3xksypUMtO7aO9hflKBhN8MAqc5pwOVRYFLdNl01pDRSpAuRIuRydWtN3TdAlzcYGy0L7AAlnGMlsRkiuKSRpwIkNmCxsLcA+wTy49lVDER3tb02wuDimztOsuO8Sgq0MlM/ipoprVsm392SxuKFMJbhn5DzoGOBuwOqRXE1B9iuvcmd3IV2QZi7VJtG4rlqaVa4bZnrVRa2oBijWdjKLgjmQyRYRVDKJvMPEG4OOB6K7p77s9aK5sMkLAU7uCIdMsHMjpf+PuHvwSVejO8RxLrvfa/iHTv4QZ1izIGuDP6KkMMcsR8uyHhoumX1cf24H4aFnIG9Et4/qdwYME+5JnVVbfiI8rU+Z47hRihz9aJsLQ+rHaPLbUHdCjhCnOU+q1nQG9HS02vjrYN44tHGNoPDdvam9eqDowp9egoyoqWSSwgGUidsBODnVrn72nDXRIT56un4BP4MiNxotD2hXDlMdX/c6q/HfGI0nBXxxDzDEbeT2ccuTV0szra7HvHa9shXxMym97YTC0U1SmhMV1znxGLEE6OnoushzV2FGKTD8DLE26zcWIN1rcFlqgmtQoyU6ZLOfgA9nu/8LKchS1hiS5uz4YU8EWRGg5vo2B7MPpQQnYk5Fh3X45G2srcv3fXApnxXDzUjZO9Oc4XBuBr4jr+xD5ZKEwYmArX24C2li2dfn5GJnjzlTwhKa7/8psLPHYjwMSUSXkASCUjM4VxGoSQXtMfzmfbE2RdISdIpfmK7UFu1p1BjGvZH3u+VtW4sgI9Q1Z162WRJjDqZB68Ti6QogbwGMwpf2W65w1zfFoHHoX4AQ6U4icM30f7ByjGYg4PqYnHHOjV8XgJZPL+HK+DsGT2wqjokjaecnJg8nTZTCqIZWBhcvupKukXTBEv9cpPkXvtE22wkbrfBTbnKFmjya78ELPiu3R4qnzhvjiKXx5pmj8iqWw4LKVu7dSBGQw28HMrHFX7hBwU82U4RnrPx96ydJEAOEk/FuxGS/Q7Sk3K4XEX4zvgmKXxwA0qTDbCAdHT/lvNlKmivIh10PpXq5wrt/j87wqb3enSsOWgfgOkvOdNNyzdVo/CbWnlWo5mexXdMahC3Q6MU87AF3esYwA5d6bInsv5zHPRzqArWE1Pj0RnBKSCLUPBlAxzdYqxRg5oYJ56PAxNkhL+91wGy+IDQLn+oZgpLApM3F3m0JwRw5cv4YZN1steDxV25ReOrsBRPfUlhc7d7g6UGbdpGykfEgAy2kmtgH635LdwyrNyFgD9IvWRp5Krv6/EZOf7ntlPivltlXeOp3w0Pfxt3WOaOeyGbF8HwKdUNqnNFLI7W8QGtsobDhf9/vuVcsW0WnyF6IFTGO2iBiZQ9rnF8B0aISJxS/gndjZXD7Pg9UEZf5K9AesU93ZOz2Rz/50scKwdNYvxSXB7b5irXTFTVnpnu5I/yA2N2PUH4ag4Tt/IL0gwXX3MIYEavPmy+DoGs8w/33xyZ3OY0slZptzlf5/KvPtgcbcZEa6EGqGjWO1ERHJ594+jAy5otCFsIxSGnfhDlf4C9C+ShseyuVLATdBtmRPl+qdqtmjUqgfm57wwi2LCKJ3i7c/7QDoPPXcNK4JiTTkZSnyRAZhxlqJrf8zbN7uo7n/uNu/ltf9kdYtbuWRkIhyIuDpH5lWqCXQ2yW32CtTAOY+wuhP/kLrss563XO7X8lVbwqVXwQtbb1g07kcbcIXxZlmcE1q/qx25cEVnz5F8RNaDML+V+1+t+B9IljWOQmGlaRKpOE+ZkGit8BMIMo7AMCfoB0MlNJrFFh8jNkpi3z55hIw5b0t1MXfa+85BujphVy6jp335J5JdYfPq53bMi5Fuw3SDrPmQX83rv66ONB4jfyptdyZJknKDE1jED8gNQBQvDQOaHad3ZFUMee6BbaLnRIuHAfWMid0ZufN/BNeFQIBdJDpCTQ/pk6acS9r0NgExjhi9nNHxws1cdrYPbd9q4M/sxoWvH0nAN/rv3EdrouYNm7n8uPbGhXc3TAfDEAsyunhdRnHFb4GPyYR9qQDUUQ5SmgWyBVlaYIHRc9f85s+7fO2LhKl3vBmtXfE4ZWSCN6prcjLRtkZY+iGmSCcTx9jyFnPZCOQs7Cv+XoR+vHKGta2KpyE4NkSpToWo39gKtBXccn9+d8UmxmTn9MLx8EbxnAetgk8vBBDWoogY4imtumP42Eo3qfk1dnPllBxww5WwjjKNuDhOs0kPvkllYqTeE6PpWfVo+cj6kHZR0NnO/iCGpY/zLItBMjAqYRBlcMDeAyMJxXZtn0GIGV1xcLNN3JxgqR6ADD95Rk1IhqxfKUAhmRZRUd3HfWx+XYvS8lv1ZdvIvgowQ+zWSgZIZelPZiZbmrn3T7ynp121ml21Y7AFI+LgJjuPGbWpwkZoPAhzRKZwjU/Tc1bL/HKh74oeEgesMQxCTeoQ6gxDwyo1LF5FAaOlyXGOwC01NvnwcTBvAFwj6dbOTBKbpDut+Kp+bKWnOqy27AG/sUHm02sgy0qi2awvGKPvsZ/BBQ9CtXgFOi5RmqM8egesQ64BXwTL5D5xIzORXtO8yWyRD/paZwTB5IOyZ/SDYmrVOIclaTqM+cDOBxOdDRwW5rnX4Su7qzm5u6i5VfkxAfn4ZZXVLu7l6j+nATT1AXeTZC3aLLyl5tQd3fwqbMwN/XamoTJmNqZlMLXY3xpmDzbfFv20dzy29X3a37oN4MW5OIbm882wGSCbF4FrifTkeBQVaU3i9f5J5jrDXIlwlGHGvt8C3895nDmtVnWJTaVNz/114zf6TFLZUgZz3KZnFQMNVtMe3EY9KN4kL7ufBiqVDAnxKsjJbbLNQ7HmxZDtGQW928d2JP4fc9wMFaDfeRtTaaAYmE/j2Jt1j6hDWI7DCeEoIv7AOjrxzWO6kq5SxDEUNasIExr6RJJU5dCqR9Q/IiJkdfgorBzhX713oe+172pwkZIyrTiaGgPreok3WJk7NwEy0ir9giT2zv8veuFAijlC1sgZNO1nf+wWvBe/zpIuAC1H8c/iW8tSgzPpssIKEpr7nYv9HmctdvUxSwczwSBHxwpsG3KAGG2ALf6FhwW2fo4SY5L6QFM0P6DnG9T/kyeiH2igwoEWbZJ0wWIU7z2Hg3RTklD6ejyXWcpOPoBfdBgAUivTxLOBSffX8a+wkMjHXSr53DqhH0y/DHChZm7bzLqFIqUx4pXc+AClRBfzGxdpm6c9juY0N8vQKFby2k1lhv++d+J5W0FCSgHVTxm6DXN9drPvtBrJRfIn7SzebIJJfKBUWJU4LwRhCWqfT5Pqw6amv6j2CG/gIksCvJ49ED88XOnedr0YlhE1XU4Fk/E0IKIaMD6WKhkBN/RmjIdpxi3BCo7ve1QAkW+E4jE8qUfoR1XV2YlZhgLbUhR1ReD4R8BpWKLVK5SzikcBoNkh7e1upUNXNRlmvhSY1crznvP+gNqea+xVkXNU06C9JdiZLerAzP4ABcVAWgM0MXStAJUHTpcLX0TRRHe986wuXKzBM+WTA1CpeRyYRYRBouAfhTBkJCNlSCZLI5otVlbRwHNy5MyBPRq+vSL2O0r/54w4bHRmNb6J6Bd0wmlt+GIsmXatFyLStar4VAofHmf4uQMtGdmjzCTNBEbXG+kcVAn1CboYOofPn5XLVtgLUNeV59l8prqEUbSvT4vZLupsgdoQffP/x/IOYI3QBI1iTev8UsLQvylDtwzwdnjwZtcVa+JYMEWFoZkM9X385lMZGWZ+z6JMFVzFAmnJBUnfSLF9vICA9EDZQAGhV1Q3ojLK/RY3cX/eQRNoV4su8nWc/CaQP3kYibu/MBZRrPgpvGi5mgEseJKhNZPeR4rR9eRY0/NRsoAM9YLJZsReZpI0GYpV1nlb0N0jUfyDspjeSJQb+jbIe3oGAhB9wRZX6ZgXJp1qh1qm4Mae3ThN6X3u+0eMXauAZhowhsw5jULp0TYJzS/v48iu4b8Xs+jAACw5EBmffbH6PbEo0GnW8/C8ItUQsCArEFVRXNdOv+wEbVsB069NeUv8fRq0OVou4jk8RhgLA4/BJCIrdV27YyWxnHYldOEbiPs0MA86MFwPdWXZjZE5NbqdzN4INMPgZtWTNQ7tHJcN13uG3PVS1FZjP2M4vgSg+V6Ca/GAq6ORQ7YQ2EWYT8R60BEWHWT2VBlimS6Zb5GR+nHY7BmWHTzoI1u9R2PsInA+6+9pJRzZKbRzeziQoZ5LZ5KBrYJDl/KAc17d/cUoNznbtC9tyNfR670SLpbgHsrl9cTYj1LAyutgjeTJZvPm2BJ4gABupPofYOORzC9zydommHeQEw/7BOf49p2fyKNo1VWB9NITufvFcNxG/Hj7H+gaI3lng7Ji0K9B7inizBQMzuUBoJ+0gACi1UdOO/tqoIsO/iln2RD3xh+soiW5NUHRa2FwPbvVhXn9DNSKBjTqS+eElffAcUACBaqaNSpYKVSrp6DggqUf0CgnG59FcLrukSCA9Xuxb96SbAbIz1WZaZIq5QO/ya73ZxKzhu6DeSRaiHWiPTwsX9Lejq5z0qrJZsdNKYr4z5wWIO/rHUlzCa7kDCcoaZpPAP3GeyhrvhuWbfUg735V68CnT+/Okf2FeJzq7iQhzqe/rCcl1faIUjY8/ZddJnt/+pIgyd2pSfOUXBclx52dRhv7ACoVUIdg32dzHXW6iOwsncrSegGtm4PAw8vAe0DI+y5wlhkAKTdcXTkozk6CAejGRJICMmO8H9byTp9c9YiL9TlgQ3Hrr3WIi8VSviAIXwSUbjPpJy/LmnNyYDH/RJv+c7NgRoYGOrwKP0teVbDZGHydyLnibG4v6HRmxwYum1Edju3uTiauCXnnbWu760oeZIMujgpLr6RGkKcg75r2aXPom08PFAXAQ0elEJv0QGzy+dEww4ERvJPaQap27Cl82jhtiJgSERRgNL/aQRn/0N5+3/pLtMHqKe94Jy3LYtMigcWw6kZxGJLA8BqTc/zASQCm6fmwZY6mJeET/bjl8DcDmBkP/4JwyK1weJK3muAvtl1sWs0q03LfkTVhICBnEf/ZjDFyQB7xlH+ae3skWSFpepHOfJhshdMc3AHzJmoWy2mozZtrBLEItPx2zUIosPLdVy8UAthYZbivVoVQzRiiCjBm0V3nBWykLhsRlmv5TVfMZZ3EtyEKYf075WKc83Me+BJWtp+eo9xsmOoJM2F+nE4ei09Nh59kRn5nx0MsPekQyv8SM5YxhNBHufwGmRLHRe3N/GY2JtO3zD882jcrBpHBlEMoCPeAT219pv4wMkRvLnUeVOi1oKnsH94I/wLTmsEd2fl2vEUpS94MJxJW1PZixF02sgW9GKC45sMJECpNI7m2ajq9Xvzvk8m0KHEJuHzi134DdcVRLdPjHLXMk6IvbIRY7Sypljyez16IOQeTSZ4VQM7ZDaCn+zzY20Rjm3o8zL/xWyrieb7bNZ1GJ+XujfJ8Wn0sKtg4hCX/k1oJmsjRyN6weVj3a3hiKk1WEFUfYLRPhM3jefZhWgywRSjXYSedaWRQuOBXOtN2aKJIdxtzYdr2efpIvtF8T+GjXL/VNCBwLBgrVWFuodVMG4gIY/BoVuiMtlb/pYK9Y8loeii/9Odj+QMAY/gw3mgS3LyYI4QBvD4le04tcM5+xfNjtmhxNvcxlj3URmg/l/AuBdUhID4blS372RT0mrtBrdUk5jUwFlbxZUs7atjiL+U+Kf0uhF2qnQkwtWG0odC+Tc8MB6xr0EzDgCnXj/k//iOErnSxCu/g45CvpVHlP8kHp9toNNInz/Z9LT18egk/jDDx9BpPMXky5Cg5aCAdDs4fd+laF6M5+PsNwdKbe5vOPIL72qO0vjh8vTEK2AYkjtufm5rK/PlB45l9nEFsyAHRefy/mHLf1Cv6JughTorqnEIudolys8O9A4Zwlsc5H0YFZ8zJ6D4lW00MJMfHEDoGLbkvV+6VIOU937/W/f1s3bpYm0RafkPqLghRznvn9DvcnpK8eZ4KTcLLNHWx3O057LF3m1j1iILYmOVQapFkekJTF43AK5W67+kn9FWwcBJIqYcrjDHTKsl+rFGJVvs6B26JD+kR3HSTHvrwivoGLr36ND6gEOq8BkQZo+woM3U7OZCLGqQR1dm7pNDXKMuzz9Qk3hY5WctDzOBc32nva+q7GPNaNOhsPMPgqpyxbedIRj0jy7L5vT9uhh+/TIRBc/Yki1Q1ijN/ufKqdzKG76M9ACCjkIiea9BPvRbWJEQec56jr8DkD4rw09pEEGa53FWkmgYBG1gBs/VabIWb92DP2jU3NeWexn+na7lZG7CssMDGVD8jv2Jl11PhZir7rnlKA95RKvz+xirnGqdgf5f876bcTRt76n5jFiqhYIcuhHneYfbELis0XJfd/1bidiVD3s6W6xpUFzhYz9Kxrp2NMYFhvYulpKgS6GvgeTUp5a6etuyV1G4lcT5kqFN5KUa7lQp58wdaNF2VhxH2FuP6DbXhLIJDtz9LSQ1c/DMcELncYnINz24M+SFRNTLyM8AysYtt9OhPI3gjn5IKPDjJMPkqJK9YMMZWCC0MAfhfNtwqoO9l6Wq5m+DfLJMNCw9CLK9/51wosThIKZvWErnxK5t2dL40TKKjwQofjTEPymXo7Bw7GE2Sh3Nmr0JjYH2ERpkG+TQumRwL7Vxn+c6uhJ3wPm9+P8hXoCH3hUrseSC4pi7Y5fyrkHclKKPrtnoWpWDqH8iDIs+Fz+hQG8k9rApT8kMsh+fKLRZet79KOSj8LCixxSK8U1a4w7gSxsHcVRL8QvdFWYioy458h0SXHjMqAEkSJ1SUdIlSHxcQIXFDU4hQVNXgtI1cny0rL4YsnV5WqW8fPSRAmLKCnp1IMj6UYGDO7+XsXs+BIJo5Vuqws/83CAGuiP06acK8zU7xKl6IS+7jvrGWE6StIA1I8PwEFXF9h767FOEtTg+qNgBqLFoqvjYaun8lvzYfXQezAL9HwS9WVxabpxntxtgdzAzn1u44gHDeulBja2NZzRDQcbiCgmc1aTLV1cJFHu6dTg1kBRzIyRy93Fw1krHQa7ilIwdLEQnecQ7W9MHCx/PAVj8fHIX9vGnDMlUz2QSqkoDo515LB2cd4s2CMiVquCtQ+wEFdE6hW7lHqAmogsDaCC5yqBfdSMoN90rVgWWssfScIFeyWIZnq6H1MOXUfidWPX0XPwQoE9tg+Fpypz8C/PFy5+SPdpXL806qSXNacF956uOQJWOUktWU7rOsr1TTtwF0QoB6D0qlQ8lMNE/Nk7X+vTwUdWt/ByMSFAB8M9exrtej3QPxu2VfKAmH9eQ4hA8aG03JXQnuUbjmCrQwvBoqdINIvQHbiMjpt6ad4OESh8aDrBAv8f8pNCUWvZmsIlyayGFZBmdlxfPNwatkjkAHDeVkDbeDjnqj30rdfTfYie96NfEgkop1YARxyXhOP6T1ZrbHuHYU7cXj8O9rMz3Uzhz1LtobUOItQM+6yRenSFU45t774hf9Chek3xGf3y8HhPXAdKv60Tc1TmoCsIiWKcq3PShTyU5cEl8eD1KEiRz+tzsYlK+qcumEdiycios9yzTtjyFUC3Le6n3X4Vzky7qysJWOATUvdpOnRv4eSGrU6Hkjo+QI29ip4+QMzi3lE5kbLvUHMmHlcD8cO20sWj2EupM1ZcjP9SbpvnL/1f7sj3BHPR7YsAhLjO/3uTp+V/Khs2M+dmmOs7qUpuU9qAF1jBw5zPEgCNc0RbYreN76Wum8i6LZQQfvGYybnlhYk1aW/dfyHAZF2VMMbZ5+lbdtB1Ty9nb9MTATQe/EfyawJ30NkCc05ldi5wboGDKzjY0+axVvgF+qa1Ej4U+ZiD9Cj0ku15O78kWx3v2aKrKvFesGU6dHmfrLTbJLE3nZ7SYYDcpNF8kjWqTf/9evIsqfScGoaraHqL7RP76Mp53DMan1JFzx3Je9pdNJZuw6MZDvcFv0JVu6sUREcobOKYC5Sepj4e8/Uw/l+PmAAATbJpAXehaHztz1lMUU8xA6iGHF+Y3sgZbphX3VzAclnaiurfjOTIBBSNYp1/sbikQ2Ntf2/rYhO3djime4DEFIvu03ffJoaqIO1OK/PG57rd0BM+Zl2XuOYzstxz8lRtgl5BEUkkG70PnkhaWpsycqi6gHbUeYzwQ+IObWcmfSEflT4zaW9FMFL71UXD/KRx9esxwZifzWvnoBmE7WkEPhMQCMsKtfuJ+3cWrgnsM31BJ0d4VoehImEojJG+PaIMls/axYszHD7nGEsoG7KwLzoAm418mmJeMiZr23kDz/5M1Zu09zd/CLFSo8Eq+n9RJ6RQ8LPoy8w1Ys7bm8O0dmuoK87tiA1vJTeMG632Asc8NwLbqYPsMU+NV3K3bBqxrXCDvfRQfCmfyXgRBM/5mTqYSpCl56aDPmlvERFmLM2hfykYOdF4jLC6/LOlieprBYrGxjR8e7c3SwlNqlmDK4tOuBa0KNG7D5njujVTQec91fj/TWd2BnZcUQ7Tmtd3on2QJDhRFrePdC3CdcIkVpnSNvNP0ywV2P9Jk59kLBgRgGrjci+cYjdrw2839fPJ3Z+OZ7UavUG07qrQ0ErNY5VsamQNQ8Vkw/E9+8UaLTAV1XZon6tXbtJlK0YjTxyPt7mI8hIejLfFjHQGiLDvzWrnvB6HnB7BuOPPmQWCkIRZFahnD91CTudQ4t699vK1F7q1J8UcM2LXHiPSD94RZX3+iFAXItyuo0/HRYygm6/RC5iJH6UPv07QuHslRmXUYk/qmbWcGexRC6v6ymVUdstHVGJ4SMp1LqMeHm8zpZjx8j4gex2c6taSJW2OmV/Jdt+y3O1bN/qSUXwiRFNF7BQNj3g5o8NCzcG/wzbd48SQlsixg88OKdam+0QeypW1bolPlbKBqhP8N+43D0OSOvN3d0Y17dh3owYxkGR5beNqe/NPp7j5BojSPGiIjRoVBofNdvxJnRHAsykPgg07/AbaRiOa0GaJ4ABP6q9p7GjjDuQWf3u4c6vebxj0yqfF2qGvyM6Go/BShHASfEe8Ur8047Vg8Uh9n4IkLE/XvC72j4GAeTBTDT756+1FtdLfi/ryl+FXPvNszRE/V7UrnkLay009Ka/zzrmKjBpVh++6CBS5ocJm72mwn41l6QpWjVI9SCbqdGFTgIfKFDgEk2+8NzJudC16mqN2SXmfNavdre6IBbZAzVydIUheLazmywUwUPLKSZQiJLxEripPhSuve/cmasokwp1/5eXNAQrIUsGLayek1TMYVtbuFeNS7/6SQUIrVrGjRkKaTmGRnf/slJ5Bnx7sxcDivSgzLvoIr8zNukftq6ZrOsUrpGtGYvhXfMXcD5O21fftU6CLx5ePlxWvGxiCZADLqNMMU7N545qdE5memWl8gaH86XFY90wAALGDQ3ScuSN2yK5AHVQMYDDPcfwfoO5PSpYI97SQgkt0kgKuTOMROEveIpQaDWR4O3x4NCpe7QrClX1xnvcD1fGZoTPWstMJyCyx1CT7jfHju+LJxGEDnxQFQzKwywGTHPY+03SaIZSb3eTJb77EzLcOGwiFYcBwNX1ZHNZLPXzR8sPIm70fZtBNqtnlCY/iMHn6hoYOSnUKRvsnQxjcTP11jIjCYE5+0jnDukgSbabBmyW8C4GvQPD3GQkY54/K91KW0sMMW7Lti4JIq4I3JLajbB4Ixs1OSCOtKoquHc5qqFnv7quvYAxX0/Hq31yyrPapXisJv9zcJBvlkkkRbAIu2eYq5HeMeTHacanSNqDyf9MIw84zlDBHhyx1FKMB5ymXB2xZkhcEJ9VUaWDB+BG9gdaaYwJxIAzsGoFL9s8Rb0DfytuGicy+73aZrc5KJM4A5YTSvEu2X4GBuIH6x8sBaCRTx5S8j+M9D9jtxIXftHGzcmQ1QEARLiQBorgyT/7szODyTVl/2V3JuOc3hvHDfRAwZzLWj5OqoDwoFNDx7pXCQuwJG06Tj8Tcp0XUA5RW7KYZ9GAV4icQXFSxqp7xdR0TFTVwdA1pCGDxTon/FhOYVM8cfwF7CGj7D9dIfXtQ55iY6z4tECNMgKp4CoTZ0XLxdWoaKS/rL/KAzmmODs+8hOWv8xE2dXapJJAye4GPV617CCyuJCcw2lR/EvGYU27qDo1pOH+yVi976GRk5SxfdPKWXonNixEFXDeEhpqgKo8CdMmJHxG2B3d3H8ICh2+v7GOekAQ3HeN4Lt3G2F4bR0BXNbx7V15lVIynb+tBG7n4J+gOJPAVCqCYJ+gKb/05JrH7LuEcBVfVMpDB62/+KRJZMIjn/mi5sc8MWGNgeSz7PyWutH3XQG1cbN94aJXHfE2Ge5lCZFxKgesS9Z2gXfhwtMuAAnKruuf1jGShBhTsCIb8CgL6w+L6jUUENQvDu34i2zX1M6T+DB1TLsVgPotM7BQKVHWxvPUIcnpagaSKgHKhR6un+kVu7OC3Dj8ITyXBPZjg5EW+nLTXjG4aRuziTmzJfCt674kx6UAuyWUwXj6qa8BeZVUt2b8gXHNOZEYyFGyuZ8hgezDIuBtVcq15a7Nn244c5AyRgstgOO8Jv9566H61YHJ1GSFtKF0C5lYIYOb1mrQ7XOHtvGBZ4kFMB0/vi+jxn0A6d6QKCE0NVMJNV4fOApdDU5EIcYbdcs5CGEmvmUPHC8G1q2nc+LaW3osz60Fws1nbRoKlfK1cS1olVCb+OpMQ5npgrZ61dU2m4/EpRJWrxqQIXFDO7gjyoTr9ZfCROamW/dB69TB4E8yG/rLl2bvEpWbPx+KC1UmSfQEYPRxaQzCLgOjNxZl2pA3PufzaL81U5CADvO02ilWRcgWi/mQ+4NtA6Gm0kWsWWuL4BsYVXn//0kIC8JPZVnLPjOlddQXQe3SlF+CH9Vc7XsSnFdpOcg61XN7gdPXr6K2k7ehSA+QTzyu16ndEz58gZqujzyUbkozXrV3caQthmvBrOLgIq3Tsx9kNCKutGDU3TrStP+pDWDJp1AsrsfDBNQstzXfhxx3GppMTZRYIVGm3hOMsGHofsZQYYOkNHcf3IxMKgUbTTZ80crMlM1Ewb8bC1nCClH7WFGog6mUKHsxB0y9nOb50LWpYz0dhCJxv28V9sx591vyvrhYbPbGLys0c1K6VBYcwFV6Bc1eM807xDYWGqngNAaAVEVglKkaGwfhRSTzAeZgWA94AkfFdei3N57ArVKaZCzHhWPHgoEKk3UVepyllckeH7dtUqMz9OnTZBLENSkpoTX4YHiJQgcIyZArOyirnfI0XYh0U+XpydNn5k1fOq7iCGCzo0yheY2DSJHAmL5/NY68S1SDtpQOaW0UGWlNRrwQIyFE06G0rdRzf2677UhWsWAhOXIqGAwANQQfgvXEhKUHkU7BDYioGLTpEfN7WuwsQm7NYfv90yeFR/x7+Ptc2D5D8+RQCQeHwCD+g5yZwSfprTLt8fNG4dcK6GY7nD/jPSq3l+DuLWwUWvHbr15TEogiEDuGla6XyRZuV6drwWQQXFMnrruj77nnPSx7CP2XYNh44yljmLnRI8ZBAZ5EuJGCgyiQv/Wnnf+ircNZuEF276wRbfM6Bmbex/Fl2+3MzYXgkBXgg2/RwhGLQ0Ap9vxrdOjJUkUgefL7ZvHlO/2qjMxsjoy+uRS0fqJDbvwvjVTOV1mRGlU2kZHpuRwBQsDPHMoeE96t1DzTUa4PLf8jnh2WMRCmZOFgjdPaeCcR6ZScpjFamOksXgmkXrzHFbsFRaLzW4LiTdYqK+dAC6dkShLG/Byjcd+N9996/Cx6T/gSQn8c1N07DTQIK9mLwva1yh9LtZD7JIJ3LnhoOoWD14f5BqsfZbd2WBcoebS/LJ71qIsFp+S3z3zhE9y5NB8VHyOBueAssd7KamqYECUdHcaHgP5LAlv02F5v9tYAg6GSrFObH3IDiyw4bQlWFcOOybcImmsZr6LyV4tuw+mfyjgXP0DoXzMYnbkvqWbXaCjZD81ulfcVqsrGnMBPAs/IlK8NRHBdtYUxC1co2jJt+ONl731/px1GsqQrBCwnCD+GYEZkUDPfCxVGBDXYlgi19APp4S24DotB5a7/h2LXZOheqMZQVAfIgSNDIQsRUXEFMv/H4FJLBrKi1yPHEtk1wQEKVvhMJPEuE+ROhRouzYUDWG/+wq7Pd0vSrppu+aes8yXTXy9nQfaw0K1R7GNBCSHSAMvHM7K1+na4Hw/LnjRQXP7YtAA8Xc+2OsFCPL7YE+WIpuYOKppM4Sc+YP81R8STuU8ROnqBU0rYEl56OV7v9zNsAk1Vs45b2GVuwUf3xVTlbQKdfctsQhrxo0/VAyYNBFrMReQkor+IRkUkc4qQbaVqY1dLeIuInz2uec8RL8tlRWcABjZ0oJAc6PAhP9rrfGwuiN5UPJvXCRphgGwFS1hMuuJUQRKqyO2vSoP4xy5Ip/bki/YfLDtkr7RtYJJU8zHCviV9YrP3F7C00RVFmAKwxYKqqzyJXdJ6yM0ge9t+sPHOje8Vk23nwrUvt/AJnSJQWYp9BH6dB4KfWyGi9xBWO7TiBDaZ5aV3YPJt0X0Hoe1CWqiC5bl+6oKGQXtaTy6KQfdCpzFsqFrI/8vRXwrc3ZvHGCahJYygBFyzol2u3+wH7dpTloXNE10Z/WkrqvaO5cv3MIBkxh//r3acAOwaI/y2uH5kY5hnZuZD0J1bVkkTgGZPkigI1L/N6szjkDvUzEmGMTiiHFlR7HsLgf6HMEh6/VU9DFEG4gsN8Y4eUa60camATd0K+HcIe2Zq1l5OC3rtvZhJFqGWt6zxqCP9riDy4AEH6KScdLFZUnH/zjG/yGmcWda5u/1PCb3Pu1Z3As4sGY6NcwJpiSl2P/VtpbR1psOuJ5bqCBp8kTFWJAsY3oAfwR3TBfWbN1ScRepiO2keKfclh5/3+IUwej4HkPSj+yXu0htxenRpbg4HnipnkCJtSgS4EQ2xofrnDGOvWFzy/2QXg8dgRWsYnT6FIZu1yPxByAWMLK9SpO9ChnbQKQhRKrrP4G9+XIoCbv5588IKVKeO83xITiS9K44cDAR6oQaSTFZyJl9ilW1mOyCQKsxdxP2goZeRL6zMkrdh96HWkDApCHHCox8RoSJRM0qPAdmUO59Ga/PTdUjqrdrX4Gr/hbfvui0AAfeRXO4J5v9dZAfXA4+IKLSzGu9apvCo6BfAVfefgJlEHIdhPa0YR+E9RuUF7msY1NSKXZh+fj9N+AWBBwjERXO/XhM9CxQ7RtaoY08us7IZ5OSFZFzAvprg+pQt2jSYCycE20WJzZpNNnzSlsuB/JpJ1L3gXKDleuGO8tURtgvM8NqYuHYF9Db5sdFRQ7+nSpkLJ8yLF0Ok7boLyM4j8wRo+y4jFc1rW//V3dpK+xL4gIwU6z2v1xAywVIFUaK5DvwFKotvPzhhmKoJrOk9NMVms07D4E9jpXh7jZ8QJdWIkS++yv2ux4SLlHrXHdvyKbJ5PJtJpl+OQOTjVss8/Sd/Ei6/QIaZvpy+6RrW4vIyyIOS6uNzvowCwTCAFarxNBAxfHU6Deqt00w6lJKCRd9q1VVS6i3g578bbwBVIGCK2lgisdHo4FsSmHxkG/uFyld+eyxd7Y846r8p3RRT83jCS640Qd88ZFgt5ym/ROx789yH/8RJz4swrby38TTZrP7YMyBHaVZ8VCXkaUjAPhZ+Gq409XAm7ljDZO4Q+aCii7wakP+PtnD8omwxqeQLHZT7KDJkJrjrf5BsLAXBAOlz4WMDrnEJLW/hXrPCEz4nSk+XzdAv7bIwK6x0OurZKU4U/6W+AH4oTp7Lp1MiTYGQ9KlztmTtemC9u7yX54WFl0zbdPi+LBH6rcFRNf2nhmTG1reRBLKHJ5DeAlOxbwetoh0A4bD7eGnrFyme9zFMnGfrJuGyRW6PicfA+1mZYyAndcA9jLpAI0uy0clw7Jvz53ts7JdKwUO8LnWIVg/SS3bB6nr4O6SUEIZ1N5Ee+c56JHLYZUUc0yqS3Xjvgni+1PQaze4lbZUBGicT+Ai32SP//yfsVy8o8FwDFpzJHtREXufazxdLeQSfSXJvz8DRvKuXy6+7TcFICQO35oT7UMUybrEd5zprFSPqDZgNDPUBmjG2YOHrSkSt3pKiWDRzmCJcQCOeg+i1AzBK9UEdu+aPDrirqOA1kT61b9e+RipKSkxuFHOk41OblcWiRY+pwNUwjuZroDLN+Qp1Ke6aM3DQNFqrw5UJf2IRZ+dZr8IinWFUwlJ+GvO92RCKsJ/CWbs3NKRectF6XDr+1DZ7T+3osmpMD2W18otgkueR1qBad2SNSbc5nmriBYKGCV62dEmTOD0nPXEDmZRE6PTTJFd09BiZXEi+CKXNKPHqa7tcDnCryLWFzA6A9V9stj24vdXAijISTM8Fogk88cC88Ddhd4Ag+GR1AmJLRmqR2erfID4We6yLmNCXFsn/4h5Gy7s/XV0AD6aW46odwr7IgU4dfb72r2Mca92zck5Gqgfgpv9sMGdkFeZAzkoEjj/8I1FvWd2gBS50Z+O9GWC27MBvKM2L1pNEjK23jZoV9YsZo6Lqqx6sY2lKEZclMztz2hu+MZRVgdGY5CjlKqFpMBWzhJjZzO1YE2/k/44HA2nKiEbCo3Q3PiHqjE8iKAepm+dKEm5dCdpz1fyWfMWaU3E4UkG9RmVdqasy5hDF74reL+3ITi9mfAMwqpidrxm/AoRHp2Q/xzT1uM7QkctRHuCA5CPKlnI6rLTETECZOy9D8QPwZib24E/AkzgqEoTX6s7r8OnW2yiSY1OmdmWxI06XjqYGb4AsQjdR5mb6gTeufIEiau7MPmWZVFche9MeZa/wm4q10IU22uIIg6zE8/t7yg72edf3xJWq4muSc20uS8/GZNyOkOCYrGq/07sX1bUiXlKTKWhmy2v7ANAfCHY0P/1lg/BRgRSwSStLwWc8Eo106ZI5NM/SBrBBH2drf7/EoOwCqvUxGVJpknUe+o4xzU45qTAIMbjltAKmfR1BLcmmPORYjI8FcVXVZrl859P+u3Ct8YnQ+2J0q8DqUsnNlVQPtHIznCFWIxMVCIC9XjDgHxkZsmh5tzGTqz7shyBxHwI/DvAW3IvZOpSCQuVTWqgTbh624t3WsxSEB2DDz+ffq67H+yQWgiawAR0ZMPBW73RBvthBZI50xYwELI1g3YpHvV4vWe7X4jdtvHfNfH3YSs9uOXk7aqLI4Zkfg12HlG7Apu2COHdN6eXgmDTeganelZbCwymV8npjMMdfD2aViDsEKKw4fdr5a3OMnHtdeu0iAuMP7KS5VM/M7Cb2PnLB9+mG6Uv5ZoUjEbO4cd57HaB33UAUwutEujipwQSY3OlLNOWK0fsQIiNuYvAqQsmVW9cMgwtqw/bglSuc7gTiIssm/z0+dS8FA/y5ZC9SM+jGcAFAkOwxH2Q2zW9kinxmN4kQFeWh4xJWjjKqPcz6B7YbjXeO26+ks/0naYbJYxh/VflhZKnBe4PO7Kg5eVoFHa0G9++ydOmF9ukK2lzMEGsePSwpFP2Tv1NsQXIueRWIPGi+9zSDqzkWP3iQclslzynUGM7VZEaVHDwEI2dD8IWij5gz5jQsTI4PK/svYo87LBoAoXTvivsC/UDZIZNzI1/Y3Y/gXRbvd5pzVtxgrfo3j70xpw9lC+nRzahYGZ6kaxKcmJZl0wjXtw+cJBPTcowArZr+Pj+d2w363BtU7PfjoOYfda7KdRAs+7Oz3wJUUWVWXwjIhWBsuLHSuoV/0+k6i8h9hg9Cb78q/q/55Z4067BHE+4RCHZo7+6PH33F6LFqviSuB9KbKpqneYF6umawm+Nvej9ZuvDpH21dUAbuPHkAkoch3lUUsRE1ZUFttuo0K41CFSs0fsIfgOwco/8CFrtwVVUsweX9t3+e4rTswC1rT7CMSFzSXpeX8SomOgD8q/UzeN9bShU3ghz9cgCj0Mc+B4rclHmqSwCR2CihJwIy1v5kztkvzGislM0kapolGLKmImYIEXD6PjDnjcpD0G24eAcikeXv1+jZSl+XbryqEG/x8STlCi23/XyxN/W641LTLSGt0/tvgKgyIlYFrIA+mZTc0HMdDDqPw4DMfnLEFtjly/u8A5P8pH2k9nxVnIQCY8hPMa8dybLuw/0Dsqzcc/doux1lg50QiX6K0QHK5ZqV7GxTAOFNhO7c+ijsOVdbOIOXL/sGGQSTpWhU7tJL/Znt6onUa2RfLnsUcIfTxQaj8oOPabIOQpAP0s1BiTUT6m7g3mUXSshAXluFJDQxmIO0iQjxu32pIvNFAu/DUpFUPMdiTWZAd72ssGXW+cVqY26hkNXCEn34Ab/RztMV1k9jZVmBZvm123AM+x0rlXC7g6oLHVFTnIvz6PdZeRMx4t5ZbLZDaeN2KlEwcBxVDhY1nDezAbkGYAFeFp3Jzgq77mSqVZG/RQ778ajhPP4VugM1WiebGeInQ9aKvnjQj1Qj+ytZ9EirLa4+yWIUQObdXcJ4upRT7Pp6cnIzIppYItc2T+EELhC1ZOpTf+x8G3ZNs/mM9hp6RcKnA0MbBKw4+5GAG/VKrTagLuX+kLYeVFdpUuoiB5bERaZop8sn8wRsn4QkSV2Wwq1TESmdTER1TPIBHRa0O2o3QeWVWxSt7bAAmqXsrjbwD53cOUDpP175V33+rbffqiJTzzE1rnT7a89QaEWqdxioHumuYqERoChi9Xzf6bguaZMmY0h9jbTfn73PM4IVMLUBYVituQWwSFDii1An0pVu6xpFMS3xEvThFSNxPyQJu+URH67sD0I5MwIsWwTkZNxAZjZ87g6GNBFDiwWV3NzuuFgjSlYBSvQiBZq10DJNg65HdMcDmjvn7di2e/wAMvTbph5V25DbDz+Bw3xjuPU+IXGcnfzq//3LQHqCrcnrEIGIe8xdGwLHRRdHPDPiqd/KLLzHgzcEitNTvNRQE3Z2ZOO8mAYF/gqQw1K6BAu/rJx45KS6k4dG2MaSBbtKlh0Vq51483773YptYTtQaZDZzzaeypTsX3eljsamz68EPdLwWITjvusUQM8xBgHwRXhCfq7kLPQDEy/f9WKdreh5E/nW1YJ9+smPY6rEZyByta49YrTCW/ql9IZS1C3VUHtP0Y8qly2QGaYRR5qzbvSIYHIJvbBJabiTnGwTeSdUTCCM3kAbjGEMVm61Hqed7eYDKPMY9k+NyO0/Vrt2EdIJpCC8CwD7BK+glGyPGun+ObN4PBeFoR4LxBcKCrYog22jl9RhPVSKsyKv//B9rtBNAwO8YKD5tuj82+61dECwcMaMVqDW2oEWvZgnMerm2W93512hhijhEJfcgaRFVz3ppWuPpZZ6dMPTcL7ri/ifH/D121P3sRvD4n0erDkPXzfqLAnGID7NUN0SmtGpjcEe9exP2c478PYj/uu0b1Z5qRX+2DhG4nA8JvCs0bhedsRzlZh0Oynjgu9a3Z8JdVvb4oNapteOjpThE04Tgbbrvfwya8n4+eGPmPS0/EkU0SlmFbin4Ek6yrpkGON04v+IHg3/VptxCThCLcubRAACxpXFXMyFRxlenpE4Gz+OTmVJE2lg1aq5wLGzcdeIFXh0qvCiId0KDWDiYxNCfyJDGn4jNVgHnQN72E01r9fo12LFsdnY1GH37E59dX+0jY8jxdZ/5NCmQNFmO/dqXgjd9eRfkkMkW/pxZ/XE2NWHc7aCWyrKPG4EIYTctMre/XQ3GknQPBMDjDb7yYVdoa26+dfAHEHxJytswlMzpphaIGBY3Su+CuZAZNvPUNRhsJVngK7ftKhvsgeaTeQbcsB9pH9qC5DbnuEnH6peX8He3u1lgQPvzkV1ZH6Jev6PLtaqoD+u4PropyOCOBQhOxpxkyfwSnoThqiTzlvwofCuyMFZFYsaBAyVeNr3iKbZaPgjfREuSuwJk2WqeBWIMUCa4Dex82YDi5Pj4Dq7WG1vHObiHa/p2kMeRYWAzrrVG7+PHorJkX2OiIF4iPjrzNwk9hPIvvuOX8cV1LFbfjwtMoBZkRuWBt+rGHdUiZASGY2hM9cR/kfBRgFBgpbeG5uLZhr5HMFw2jsLUJa4rckJdx39kTwVZcur5KLKpQmVo/RQYH29khJJFB5tsPgRTrb2XgXQ+/+0oow8S9/J4izBj1KL7HDZy3cnEQj0DsYS9ohcNx02aHvR5ejxKdXIoa8Lafsn2L2oTwOd1mZQbYYxr4gO3xs8lEXYZ6xMLnabCwYI4v6LQRob8X+Gelr0gRdDA1Hoc1xoDwmPqj+qekxXLjruxlvx2rCuuTmEdV2JbGgDJ/kfajUgcXAe3Ejt7O4uhQ/el0q5rxbIFxzv7L8DgKNqE7aYQgSQlIdMgdYBU9UrO6ADmr8WcjzQql6ox+4dBch5zjuOMk/KC9rfdAEGjlJbiJJIGI2Yp6sXiGfLoRdZe9clyqcnDmv3fk6GyAY9sl1lLEKAilkhn3Bv8d+G7hx+wGgdUuT/LMFIVN1vKkRGZ+n08ADYR3JQC0qtt7ZV5Ml3oykHWVkX+Dt6rH6DJD9lUMfJufhjOs0uhYCFYVA+sHcWbthRph1SUfMpTO0Wbbhb/XdN+53ryaSVltWR75MmL9TFWAzDPfFa+69tzx/EetaBb3TUrq2+xvNDThXnnkdly0QyO4i6iwHVog8beJvOqxuwsXN3K+1E58/8nlxk5UThj30Engtx9yVUjBGF9HqwPsOOTHRsNIHpjnpZvXrQsyftbYRemWC2MvwwKNRKYXR/e2046L9Utx142RqwiHvpQ30qSyOhrZ7K2mvk9M2doTthBV18Ng9nzH+zr1QeStDFxtdWk96U3btHoRiJ44Trmy4TMdUriGSi/y2nkvYDvjBY7tjWPQceYcEOVT5sUa6WfjZSyG0dBWKsprG33x24ybdiEetrpYQvqr8vd+eQWDPVbiDd3i2c2lh+CGjDZUAABZAdXzuHtge8Zd/FERwEmmaI1iU4nD9LXbxUzDK9H18/b3AyMBPi5icAd02Qok3u+qr364eP97bmf4WGKjyElB2ySKsVl5QC96YBdT5Blk3cZBa18gVRwOM7g8Fd2C4s5KMt4A6gcJGG49TWFGVIMqvq3nYPP8qh9x1UboEwXb5+ag+UvrC5qgvvXOBMYdY0bgDkHu8f913gxEAR7zWWYyPLh9niX3nqBx8rTkyRuzmJP79OCl/l5Axe2yYl2eQcOpMZH/+qVF007LESs8ueyBUEZq7hMxXOyRoM4lbyBvG+QZwsDUFhudckv1YvCNKRuGDHLjOl/oCYWaI4KN0AA3VDE3pAGF9GlZLuV7t1V7crD8jTT2V8nT1jPfUTCGIIcAy1H0ZcEar2l7YI1ZAyS7HbVS0BTGvsAur2Sa4zVgTJOCoFOCTtPAyiXPt57WAUlcJU2BWwNLNIB15PARLjW1jVieOnFfifKbpDfF7tpgjkwe2gPHY4DcOuZb28d9kaiZNRCtkjyP5mnop8YmLO0O4NJrZnKmY7/R1hws2DZYhq50XcMDko+zQGy89szRaGfHyZ4wyMAZlCFAcnE1PbcqywEesqiLFrRdYrXmS7IDX+ycdL6QL+Bj++WY5y0iY0XnZXjWRhANEy8nGB0U5m1V1tqMm9pQ/DYeoRqnj0JsBTJw2XlpiGa/9DWbSjBefehgXSIgQElXcLaDZLai/2oszh5JVpXmZQQynA0nnE5pBgEqjbplMz1pZtXQ7iK1onKbYJxviMeOcgoc7hj2NRqascBOh4xHU3lvvrSJJYsmDSikPuFBVE5jNDbiTs9ucFYTct3YFernOmLEjxLESp5OFjt3R1O9mqnsriGSEdtP26wKJIlNnhRigPUniPO06dTJHhTTpjhOmi8ZlnQ7jn0/EH2c6DRTlybEy3T2vauMle0U58WZ8WWwaYdH716sjMp5jqKK8ACjTjeWK9sa10xAj8bmHwiRDaV0cQuU37J3P3lJ0KlWMf+H0CNVtnm/p6SBEZd5YHmt4BwxolAjdymhUMompThieDWNd4vrR46Cb6os+oYmxvDhZ+uLeOTsuTTncNXaX0eIiE6KIJmQ/vuX6dhHiorrfwo196/eBd/WT5NVOwjk2dBX2judlkVlNcxcpUNZXDd6O1l/W+Z5Df/9YOukV0lBufpFbrq+73RMyRc9KwX6b3bWyRTUucc2qHqGxs6OHslaecHmZhFEYlO9CHRDNe3Y4RuTeEbsL/UEnxyhDQCdQEoXWIPFjYYXfUoFRSiQyUVKLnYgt/UwlGUVQdqd4fTQNSiHUgIvPAnpKt6p54a3n9XoWdEApXWvXxkipOb9Nxek3cRPSpxX3HtZV7iQj+Y9Cu3dRgLYEFnnXNfCPcrscOx8iD9PUcKmVJk8WJtDW8/0GQ/EL19RpEHM/7B8GVOUvhaO0mYwAeDnCPOFjTkjWjz+iBx+j0V8ftTbNt3nuefS1s6UtroSLxx82lrYf3kqxWjuQ9Nlvi0VPFmSwPFHtj6diJ37XdSPEZQohfMMV1HTRFW+zcIWksmvZQxZFmaEZ0uNzqbMx1AP/bS+mSyHZGUsMsBDNTgPWQYlqwankR070uBSIITU/Bbv2jR1siI1dW8d83WOVGhPwyS+RmnS6XzPbaQqryCQuVSQAHL5eGSkN+54II/9RJmy2O4i3QH882Bybh7ksJ7ZKg9JE/ifUT5g1MzNsIEtXBFRuuJVyIvZHxClahQazYfkhah3yihJMT6N6BrYAUVZtmzEsuikT7XP0b1dCZIkgKWi0UiEA1IPJKNyiynILaXFm7qHe1yEAg/Sux7Qrawb6G4KAuul5h7XT1Gy8Ocd3zOPuK+h8XkGOJFTwXYnmdb3s1mdL8YwRJd7LEnso0WqDF9prKqFq6iHyEmCfEc1hluwavl8Tnug3a5bWPZCj1defUIfbW+BrYBUUq9YKZZWxikrVIjnEx9VkSLjpE/RGfOlx9gt2nDuv0uZVYExmEYkvAFGfPncpSKLU81rbeUWKcZ9Qb0ryqn2rWAtXun+b8kMvNSMiJPn23I7+n/tnCj/fiiqd8BMNbq6LVudve+ntKCpMED4xs6WzZIS9AL+ithU9yVPCd/R7HHs1kwjCscDERQPcmYREQJdaQmAq9k1/BbFb1kKxsCyzeTKDqwYQDNiinfwktHsWVwQRYSxOubZPrXeCDYR2hB3+zYwwbP+/cYC4qin2/jSSD6qFqO7QdfdzL49/I+/B9yS2ZmB3ZjF8DUypTijXeBdaLuOd+I2PouJML6T931quPrJ3KStRO8SKwuxF7pPX6edZs71lcDQ3G1Sjr/jqwT5Ne482uMO27uJHkeKB+kEw4GPFvD8yZcsJ7rB3pVALDYN5T5e3KKvhyXoNwC4puXVpZU88rh/Yg+mZUxCr+jmAmip7qLzEJ0I0eFWHo/kffrf1DAIa3PztFVFM42R3tXPq7O5tB9PVAiOpC3HkEcHMd86nOnXrCiw4qq5vtuEnUSjjnVkaPdbY5YKXGSFQ/LjfcY453mFlBJXSXIqLOYugt2xe9yKRWfUTwoLXVf7lGpiOtGnF2OJFRr1uNY1L1c98kKikBbDzWOdJ8/XNHmHq9r+M691mp1INmGJpHCG7IbhBJwKNiw/7wJ9cPhdWk2SUgV+GRIFEHQZazVDY17NQ8R096hNz0e4t2sblJprte93AZyqISBwvTaO+LkXqlIZPetHI6PZK8NP+rg3NR8resE73mF3JlMJbUM+hAa9IsbkB78j+wDAe2e3nb1LvwCddSWRC+NZX8mgNvazb2F/HL/fWyNAPwVcMNcFFkkZlc6UNN/Mc3AV9qnbsU48lu53f7BtKRgyVjOn3tDUkzxDZGRM4hCbyEhbGdWkHhzAB6JYbM2od1yjAx0fW6szjWtEX+JMxFMNJAINioZV9hBoZHzG9/bOuJXita2pM3C9l5F2AUKcQ/dbKu+Wqw7o3TGNy3yT42U2N4XAxpUEwRAP7AoKxh1DaDh/RUntX42tBNZR7k9HkHWR6Ph5LLl8rS07YLXexUvCgMmdZyH4+0OwCytGr9KWYZrfNrapLHfz/+JLVKucnyV2xcbGfx48Vuk4H3datG0BmOz9dJFuG5qRURAWWTviXwDHJdPStk+OcHxFRzARF3yUds+pZPSEC5bDmKCSk4detWpVnA3qPMlglEz2NKOh0nf4ubsjvspz7Ys6vCnmSznlLVifEugCqgLudh574ES7Yso4XC5ZszSPqXcooDQWkmvU+9DdQ7pccj5vy2KSplQWgKMS6fOW8bMbmt714VN/Imx4yKK6YGc9fVVMmrBgFRXxbbVNyS/b2glsZ1kI/lmojBiYNPNrizf9pKkTt+Sk3DYfLY979wkqjuGS6RduY3g5boVoCxMQ4OxUNuQo3kNZae1UBaV6MoqWksPN/y5QJGTzwdv17U4L9b6c3xqdXpcXPtJShUTA17FoJKPhcL7dk2DYtVrj1CUY5yvKj/VPQ1hLZpTtRYJKc+judblVZg+Yrx3l03J5fR4kYrKyv8QSMOAzCOEqkDXOfjr/izaOpFMx56r4EnXbGvUemWxELOGwLZa/ENKVNCto6W9Y/2wi9i73Eq36Cgv+yb+UoPtwrzxZJbJiOlZQM2/DTUmL2ritnTjWkxC7TudrBFl+zKa9FTVMLGwuO86tgFiDTkZZWzeCWpOQoTxQDW1UBQoY7aCxBC+/EHNuhc+hFaiRNuR96+WngKYfjGcop9lMMkAMXfplVWAByWoAGIVOGZXgEvMBdF5pvcP+HkvxlJKkpHU35keTRYrSmplOytLTZ44OUSX9Wh7goJ/X8GDQJ0P7IxVZgMKlDIUH5LhMpYTsq6nx5E7y1kV/XjPNAp+dPeB936aUOZPctt0o1q68iybnC52GBWkLoNID2VL9Tai3SVbvE6hHMxky1fCF/6+TcMWWD55bdBujwz9yJsUN8xayi6vephVLSWzWGg8GoMtDe7bvJoJ/UmS92craJ7YAXFyigruhgLt3cwNxA/Vnl4Hl5q6d1SRbfN3uj0htUYmxjQ9FH1FABae0BV7wHBCqIB1eK5PgpUlZo+dZ0uFrdEcg9oSHSTN5oYxfG5VS8g0qfuPPS/HQBfIWuPvcYqRvphlcBW4CyfhN843YUoEos+KzZtcqn9usQMwPMR9L31OjR4h8xXn3sx9dF30HbRfoAd1K/QwSykDyJQ1n3gRAubg5XH6TZ3ouyG8E00xdYGZoTzvcg4L8QyAGptRISikYJnrszq1jOIfehbSTOd9TozM3BYSmIn+GTOKqjvd3tcyReoH4GQFKM6VDN+arsL1r6xnGQ8HzWn1x7eqvi+/lH5lmh2Yj21HuLMjRSUwEvPYVz4xKTswmH7CSW1dl/jiuF2axxrG/Pmb7KgAfRWd9UblyChTYf11Bkypkkx+g47E54NugZ5iB6LKd5jzkhtONZqr1s/M+xIReMG+Ke6jxfdPX56jg49HtDDSM5+YR4SyEvY1BM2otloKDQspZCUSMbek7jRMy4xvd86dC3NQX4GgEUX5Onp/ipNucHAxNRctm84/AgGHRMXqY401ThKYOVRunnKWgZ78eOiQKXi/dFx1IkRWwwAx8C1i39Cn1jmWPoDfQf4kV0kkjxvoFRvxEcv8xKcFgV0ctbkm0QHK5bWo7jYpmTsx86ZK9YVlCCL6Yiz31nk2CkW6DanHF+yW5PwEneujgvoQ/OIJiVHjzIblr2Z0TdVGG2OK2Y4cS43G1qJCJtQZDLESGPlQJwjov3l30LXRKfBJgYJDDmwgtgRO7ZG/+lTnmUuYxlZlotKt9ZYHI8ziaMsZUTC4g1GBKmtbn7ZaMp80uVFB35a754ObI3G4KftcTvP6Jxoxd3kyoHieG0QWa3L+DeRpfbeNNbFeiwjQPT07PBR3H1XsjT1fFwe09LUJPv5MTaUWX7bC6NznmFBeaG2DoLgWiA5+S8Hyr16h/kVvSs7E9WKch/iu0esyHed8XXOPo/8f7aj/Jare0i8bwg2I5RjZR2afVbHpcpBurMkje35bzgMEvMpBTjwMjPDxT2GfRnVZW5cBLI0hC7Rj0NGDZAVrtXNliOhU4S8lWhqzm8ydBUhn/1+zJGXc2Pgwp+AuhFr1dKV5PA9Xc/+URcF9zxqxGM4Iyd/uqpt2i+R5u63siNq2XrTDjP6pRFj+FvXbZAmFmtF8Er/yT4YC5YfNnKEPiKabaNcyMmm5pYXotEeX7MzpgAyFgO/FiGAfVJZNIJkVtScYE3t/3pog8stOAXsjRJQeFe+O+JsBnlA45enh5vW5okzlH5xK/EsN3x4eTKtEL5ApDqHibBSk3OZnjK1AaW30/Nj5FqnKYFDkOk8ERwsvRqeZ9qcseUqLHigoqUsSVlYIm/Zv1XUK+FPcOcAZxtz51/d/yBb6OBjAi0YLwiflM7WzYefxAS+NWMl8rBsbgfct0/6LUXbO/VZvCZ0k42EZ3DJ726KjIdwEUpTquN66NvOW35wSSuLGt0lnQjzdrAO0zOvySvJxFJNghLDwcMd4MQtOwkA/ujv127FFM+xg9xkowtx9RXye+JZYxsg5j16rDCV9I+fSSp60VoCv+omGN6gSHU3SfCpY6VLHid2p82n/Cp2TbtGzxBp3GQpglYMLw9YgP5vOiMms82MwrJxSjjITLBBvYPYMSRXa8UpqTlrPFLTSvtfnOlK0Ll0JLd3XAoEddTUnec2O867CkKI1N1UxlCOOntHeqC2PimHCU4/17hmT2WPpQVSK8ZbyR1Awg/fmxXSwwmqRWRdClyWKCa13pw0itX6S8NRjqCqiRDsQiqTFl008Ry50kEU35Quc8bEJHJ7UYLWLtMW9BT+d3oGa7eSYCp5Hfr9jodje9gv9C6NvZGE5GnhFmrHMuHGl9HMf32QIOBYyx70pioTW94GSJUhTSXX+1XJ2+/VMDZW5a+Vfn5qp6vHIoR4t0YUntgCK+x5EUyhg1cYZ7Xk3bQ2IgrIVTfvKhQn5gmaSS97t7KP8Eg8ov3upRszjWPmsSVmc/NRkniw7bRzDyxRj6eHwsAbpCOgsYWW8n1+QSeVqCer1iyIIJULQOoed/OEpKlxjDdwjcMjD11FFAQlpraZbQM9gXalb5+wHpadw1ngAo7Q+PtbpCKVAM2uLaISZ+jaRlnwODLlJFIEdWi0lMG9DD8LJgl9madfGtjbuBQhbrfH4w84O8/sACD+FHPN/QMB61JulrI8rlbkz3i+cj7TBfGCJ4Imp4GOBw66jlSaZYTBsvxulbYe/Sewg1evMqInTcTriq4Wunv06r5C9YUGP6iv0xFTD7QUgbugy+rW1p4cmEZWRg4ZhA7pCJ/L3tEpmWWf9rqk+YzgKeEAAFuWEOnh0KYBK9+Zb20oVXGBhNylvbD2lZcGlNGhdaUlAiACWpj9Y/NS0E9GaMAM/fF2PIJPK1Aw/TcWkohbRFc12RTRy+ayJUW76fPNMJx3Su4BM6jjEprWVV5OI6G3E368QHd0s8aaZ7BdO4lTIgErF+aS9kYnbzOpN1j1yHe7VtVeYHGXcuYGiae4UH3au5sNP3B6E+Zs5WTfrY6BAY1cEKLZJKtGAGJMxldCblbt6DEWAiFyH6bK0dIMRoWaB8Cz+DbFoeaQzlv2vqRROl64q8wMx9I0pmutSRquBFy//rAWT2geYVHK850rIc8AdOL7TlJse0LXKyUOPXq7KA0M7lsUsA7hdhBjNx3V9dTJhH7IMEPOsOFZ74LoKiftKGuWnZA5aPzoWduAxGLmLAwaaFAST/ayV18qrYnPtT8uRFtl0Oee3wPeko2rVKokUJVV3f9Th+rYf3un57uaJ9iXP90PMdOzT2Zli8O5x4NufnwKFiwykARwq+0vxxNCPqucaSt/ypPSjIZGKR3qpUW28cnQHA6tLhIM6wJrvSLv969ud68VJNjVwQotkkq0Y301NUaBMxsYsGsxO6jYofiH78FaHf6OI3QobLb6jEqSt6VxzQn9IEdxNflCVpR1RVGokYxC8bHj5WxB1QuJBJT+54sbCSqMQ7t5Md0JgBwK12UbYcVzxa2sSPSHZ6Ap8eTN7uxCQNJDRhUbYuVDkgFVTPn1owsueQjkDYnMxZROzELb2loit4771PkIuOZCseqUQzfEZ+PYU93GMUlt+4fTPRcXr92GibtKoOdmZy0+U50ehjaYWSvliYWX1t3/OIXGIyQPxuc8rJRhFeSCwA6mrZvbpSnhL5zdlZwRrxKtQHHLW9SChEj3gu5p7QIh4bbHxRpG1NYDX0/M9qDPboc74PpycRqF4tzaY3yLJmkQus2gHQvTYZkCTvuglKV3FrVQ675AOhJSfElZQUHsRuPfIJpQjaA2L9OmKRj6R7dFsRvxkR7+Z4wyUz61zvj7lG1bFkcJBZ5GUFU/LSsAB5BS8YWVPR1w4raa7L1u6O2B9gI98JYeO9pFMxA18ihuPuGB1HYVkv3CJcwsS8THJ3cOQaV+GVqTx3CG2CPLI5WMpl6CREhMgxlYKjJ98oMBSbl8+J65H5wBh8Ogw8g8AGdpgnON2ryRU/qvmA2aXlFFqsyVNiB7e/vthjdEAJbFhimiqeOqm0y12veMdy3CKo3soBeQcANRvizqB68Z2UvTuSjQXPRutMobAjYUrA8WSBOU0bZjw5fNUtR1xHGTKDv6oGcCDLgbU+ZnNezVxVJwudveebTogjy+Z+1BtUZNUvBIDkPsocXCNEh5OMBgBI5rhC6a3QIfkWGpapCv7UBZ8BgyglbA5+ydbYfAmcg+0n0DKhwRxSjCX00Zd+FW3g0pRfz6DvEJTAYb9lqOPwswegP48o7v7/ZDvSpFMt97b0jXxMFmO9iBu4bersYmoEg+XKLE0geJb6BDoom5amYBkp+f1iycMT6AnIXnOG/pTB36KQWqJJN/RmdYNDv8Exy/l//1EkO64m7YTJ6jnGXu/nO8GHhbuC7INyJEaTCql90RVkNrYLLoCSi8W8xBK/Bh5NecaIK383/Bni5JwWP42tOBJGFMM84jpxSxQzGJr2bKDjtHq0Af3nIN86LPqHw23LaEpBEfTSnm1PAjJd3/FCobBcAy0NhwSPcePAZm3mxfvs/JZIU+eYMaGtIVL/CDmit/yCdr5PnTd7JCs3Im8cdzwJEgqtBH2+loO4iKh4cxaAh4k9LXPkZU5VVykNuEOS/g18p1Pk1lBWvLBfGHzam7EkxheVifumYiDq85ZJbYOu2U0coRQemOm+Z7rEreq16PJqoccLmEgjv6ufzsJxZNs6kd+FzC2jM2VqG2owbCa1vB22sC4WuLI8vr8EW9k6pyCN6gEEDI5ysfgb/4ZpD9xSOrXPJw7AuOxfNxCMGdjZlzlRLj3iaxfnDoNJoLxKtJW/DlDY03wlFPhWeeMMV/GJbLXKLd/2f7fVwKOfovwW0UN7LEQyRMFc1XoLqpLO0L5Rlo9jhiwqq4UaWvseessoPADM9WHwVzl/mW6zW8e759dIqMBu/nSh+IeDNmYWcZ4+4zjRCAAuP+7SqxqiU2hP88YQdOsebaJ4GccGXP8MbqqeMRO7AAAAp2Mu4t+24FRMlgK0deQVNibWwhBhTSKJiKs/4OWRr9K+CfK6uOS19nYiEtF/lMUFzz7tj46zPryQ/3Z0NUdVhLKYwYm3HOf1VC0bAcJ28/vP3ERXin+hnD/qru5Z3HQefRLGNMbPlmdQL63gI2qcVYDpzbHoZ4bzotuv5/tqdhTD8IPt8iy+gIPPFlvPFTZ3DpDqvAO/zLalI2rDzfu3D3aWlP0MXe13s4X3IUGbYF89q++QknVS/4E1ygHz3oNG7M3dxRqbua/EMROPWc514vLedgfM9dXniVX+EUeQDaVKQo3sU4gUte923tl6IldNyQ7FRTK0S/KkObggfbwndzf5yNvrj0UI9kTUYfoLaRFh+5OjPDM8QPPTZNTaMTVzx3jcmcekO1dTirZ0Mj4ZewQt/wbOkKW3P9Xkn+K6IAA1yLV0zovnDxFqlJUNFMqMJxCPycswV9+trFtDHYkQlTEnD6i8eVyTtEVi3ePtmdBCBiwepGpB9W5ogHfngYkYks8n9oRRcap+8vhju5H2Gsp/y/eN4tarWD9V32xV47aulqpzVge3wO1zXUDtC/9a0MmK7PuAtii4R40erWsZTHMiSJmczY1NGSQ7jNEW17JqpsVwKotCULThW592+qPQVWZWIl69fjH8+CKUj0ei6Gmvd7Z/f34AWPPk7J09nyhQCv0efYfZjU3p+247aFE4ZYhOgvEYA/TByLo7H3SILUKI4pf0uisj8Hhqt7HNx2rNN5sxg6OQ+J6pWVNr0PUAqGmLJaKqcVOU9YwBvqnH13UTQ00gQEQr00Ko2VJ6M/bXSbwDA2r0LK6TEp2PYt3WbltmmDHzih8Tk9YcrsenGePATgACId6CyOh6CYMMJcYNAxn9uiArIFI5JIQowi6LAUshAOlTBeoAQLpvGp0iKkMJ6ip1zV7AI+6a7aN+7jw54PSyxnb89fykETv7cHJ1puwNX5Tn6gK89FjNY9EOSyPuK0noy0NIm9JBnHiMlePIyfEZIBQ1rwAAhj75yusfQW8PO/74aE10yPtJFfkTa2uBN+5dNwGR7o7t4c0IK2JzFA481O2JaE2V0a0RM82m1Xy+eqGIqH0NedV02WFZlqe3RPYdSvlFxa8cet3Z8qfMkMvU4mGuAa3BvltAiLBXOKZxvIu+PYc2s9t8AsLqMHXlJMJT6KBFaI/orckaYadiBaaNtQOTrThMnsZ2rwQDwhOrx1Y1weCKNgXYAsZK1RsFb3vnmEEguSn4mhTIgHQp7enLQfX8bhoKj1BP1ydW3t3EvcRtIRRjR0mqfZzvngW6iNwvttfRMK0b4FEQDs25ysm/jSeWZ2E2fPJ4KiiA2MLD0Z5/OTiW78jtCEMAAKg3YrwX8dcVNGgJJpd9DKDdv4lI8Kn+jIxXRGa6k8GkANSnaJ/aAAHt9v+PIfEnQh7Q1blbIgJW/TdEuFy/5aAnPcOtRVh8uMQHQ0YKALhPERdhfSXqxemlthMU+V5MJp1Feh/spPiJksbAd4pKWgRhZWDgaV7IYuqTaBcxtYF2eCMVxgnPCvYTePsDVChRN5GUudzoVTdYP9IPeGO56XH+xT5+jk598no181yQcWMAGmB2AVmMtQre5FItvPR+QGJaSCXUON19s/rUjsbM+wkhovhCs095hr2aH/I4UGcyY1gVkNVaSTTBZ0Znfvq0s0+VWrBRRDRXyWmOwvlueWTL1VhWwfv3P+UbAQuKAKj+DcCkpoBr6+t+KHMsp6y0Ye7XQ7MzcxusZ7JioFywqwzhmiQH1aZdAEd2gXwFpV+bjrT3486qROddlv5Eex+9hrJbJ6ITqAtBnhzNg/YgoPZU5oAAAAAAAA==;" parent="1" vertex="1">
          <mxGeometry x="142.5" y="3120" width="831" height="463.98" as="geometry" />
        </mxCell>
        <mxCell id="V9ja9C6b1R4F-isLnQs--111" value="" style="shape=image;verticalLabelPosition=bottom;labelBackgroundColor=default;verticalAlign=top;aspect=fixed;imageAspect=0;image=data:image/webp,UklGRuiUAABXRUJQVlA4INyUAABwZQKdASo4BD8CPm0ylUgkIqShI9I7gJANiWVu//Jlv+G/wqSuqZnHO+glw/DRXZISYfyaB9s1Jz5fK/sx3usz+TP8P+I9NHlPvl9y6otcj13k/+yf0Xm//3X7Ze5f+p/7j2Df6v/h/VD/3P2e93f9//9fqP/rP/D9Y3/cfu5///iZ/f/Ua/uXUyf4H1EP59/t//////eW/+n7vfEj/d//h7NX+U6vXpV+rH9r/uv65+Dn96/vP+M/yH909M/xT5n+1/2//H/5r+2/t996H4Z/s+I/4b+5/63oT/Kftn9+/u3+c/6X93+Yn8V/wf73+7X989GfzH9j/3H98/eX+2/IL+Ofyb+6f2j/H/9H+2/Hb9l/re511X/Wf7j/KewR6s/SP9j/bv9J/8v838ZXtn+q/yvqv/Af3f/e/3j8cfsC/nn9I/2X9z/er/R////7/GB4ZX3v/bfuN8AX8x/w//h/zv5j/TX/d/+D/R/7z9sfeX+h/6D/w/6D/Zftr9h380/tv/K/w/5XeFf0py0iVN5YviCKaZ+vmZ+X/XnULNQi6URkIm+isMHesCxZPLwfavhPLLpW29VRkNq34d8SzKL1QSH3NtZFeDZvw74lmUXqgkPubayK8GeA1RqB4+908sXxEqbyxfESpvKr9UrEatBynkXIy67dcqQJ7LDPz4mG8G2nJa/py5xhk3d0xJj+IlZRb1yW20rNFymlTeWL4iVN5YviJU3li+IlTV867olBugXxEqbyxfESpvLF4zESg3QL4iVN5YviJU3li+IlTeWL4iRT+3r9yUG6BfESpvLF8RKm8qw91iAXqEN4V57SAfolUdROAuisLBaL4T15yvevWDOsFqh76u+p02Cm65oFGUr4UwjDefWAN6Ryalpf4aeRhG2avTKP7i+B2YAyYHMUjW1R3ef+8xq8U8CkyevtiC9P7vJotV5nACSNpTCW8q+GkSZM4GRu4KVsXYM+BrCl+S7cyHwgOFz3UPY+Prs8Bfm1lDYhOA/unli+IlTeWL4iVN5Yvg4VyUbbwkOw0HrHulFN3G7bR6aSJSwzSyLfF4wrjeRsNAviJU3fnbYy37Z3y/6vhIpsHDwKgMnvWJXxKtU+CBIQJ5BbLZRwhXH/yeUTPNVYK80rv9CD5Spr/nPPdPLF8RKm8sUD6obfl9C8WzvbQV8HCuWCWRJrCMZYDRPV188x9rA7vMVesm9FSoU5AQUeHiZtJoFKlWpdYEh4MTKbdQrbulTeWL4g6oTNjAbD9LO/ZdrFuE//f8+9qYAKttQEMMahQst+a3Nry654YwJ0NPsfe6eWHa3zaCV+2PD1f+pIdAUJYI4KUWyQX/APMipSL9c8FNi9aMl/qwXAMXfkXOW2jIei8X9XWo9IOKq28aUMsE8MIzZnO4KDD0KB1lxpEIbNzUhNw1oWEVSQW+2CGl5A4sUnVBXf9z3a7olBugXxEqbv1158HMmMno6Vjq4fZyUIAX+NlLDGwwjjxo7r6/SvAHnLaZ7li+IV+OZZ0NE1pqdUXINx8P3Jr4Zjvr+sxYXGDRmOYqAd/a+LQko842H6Pg8SzKL1IpjFBUaZ0u6AECVZZac2Urybjkg18tr24qDwM7ph8mMlN61kbZAawAqUcUkwgWFJisdshPGswvCah91VnyCU9lqpDwW9JbcUoNB0z5zzjpMGSmnGa6RokDNl2xbK39rFSCbDPbUiABy6ysBNiikztWTRMXIvqzAJ0OWb/zH0quscXVRHrwWI2zjBh2AHEEGm+erwMbPgaQhv47Hkyo7HmclaVbpDF+j9XQOo4RNEYlZFPyFcNcenR45QaNLKl76Qo4TQrdXIdVNH3vMS+1ehY3ey4ETs4M/O6MH4Mr52Hubn+oJI3sjgS7dpGrmN9u5/IfocdwsUCSTKthrZPNQylHPUjEMjUMqTF2OZ5o92sN2r/BH8+pwjt44gZFKHv2xlJQFKgFkKtrqeoQctbG3AcVsuqEqFQYDCCJf7wmrMVmYiaN79DJbiEYp0U495UQOXOIJv3zPhWJXzCsbEvKtVTMBTIBKlvZCWFAIGZQNEw56f6uU1XUEngs3v/5RHL9krMYImU68lDUpdGpYGcguloIzn5mWZ62hG45AhCKVbd0P4W5AyLJ68nYp65hulRur7SdtBhU72pV65fuAGhVp/Z6joeppuYtYDiW2JGX3NCl+euVT1CDleSzVuhSt2dFeaTOsDMvR7WShUvs4a8KgmB/1t5Btz1EpoCQpBq2hMH2dghH9zp5ond/b6MQM2eLA3KJLnB9k/OU9yAiSo9IOL6ai2kanMFcwzzjOW2eAPrtV6pOlwxybGIcs3BIkIiTF66us6Y6xHZFxjJTZP+y6zafH9p4JjW86N9MgqHwUCWRGw7XZ2LzTbWRXg2betTeSp21anUh5DR9L9wx950yohfFPKY+n+bIuqCkhpIEzzK63RXg8Hk/rx+ngvT8zuLy3UtRcXhfewmfgYfqf42vpcdGk7cDuInV5oEnprTFCLE5nYtuuQLGVRiSz7J43PAVcR7fyZuRR5czWhfAnAqX4XavoNvuh5hChKytbXa7QXRYs6Gn2PvONanmoL8Crx/eSgxXBrGoobpVj+KaPGE/uuTid4lsXr7DjQv4MDaX04Ss+3LIRigUKKi9mKh0hqOKk+MiJQPRbLxFsqOsytBdFe7xSylLfHNM5QMcKoiTfZiySBdprwSbIQr+LIMNW/Q6/lkogf8ZgAFqaUGMsT1aoKD6R+r7y/XCsSFVOU3li+IlTTD5WoNJgbQJRMtdRoBl59TnA11Oisoge4v0/X6+abRwXNnsHgo3e/uZptk55YUFaS7Zt0CqlzmoPUSDHG42ITE4huI1z4DTHRYhzMfk8T6CwP+sj0ARLRIUrg4N8PxrgwVzZsgVbASuT408pHs5yRRfAR8vhI1AeNzvno9oZ08oCBebqHLtMGunVxy3oj+gQH6+rmoy3F4D4TkYz81ijrVlNHVAzbSRKHw3gS+oM7AqGl39COIFqQDD7mzjRWUp68/5LchyVcPFsob3VAFDBtsSVg1d+agFmPQTFu4Xayyw1TP/iJIMOgAGTUTgc/NKjwiWze58vhoH59rAoJSB4tSbh7O8BGzFc6hZVxQaLoSv6IVIDLiJNOzbKy/hcaZnja7GzdWonCKMWDqoO8evz94cnlKk+1cMRZfAbhQFoqHzuaUPqv7QafQtsPuhD7oL7e4W3ba8/XSMYECQlyRklwkFIbo7AaoMaakd3rt8UHr3o8AHUZJ8QVe6qp9PA/PFhurUWSmb2uCWAWvw7pgPRDdqI2N9VccjLmB0Gqn4FziBLXpozAucUT6Wc6/93Q2FEFG82A13mFercwy4uSDMcYb4PBydWzC8Rc0vIjyimJJjMRCN43q8v2OE+Gb8Sqn5sOW62al8w86iWAZcpL8ylbCc6+kq+uCwyV73XKqujKvdSxLXmLGPZmxBOnEFPhi06AOicq52Hq/Q9eOgLvy+z08KBwXDjqfZJKH8YThAXZhBVg8bEuDZND3TSaIc5qCuY8BdF9XSqCGz5dcs/+mXl9qBC2jV8GxU8DojOTOngkzlA+m40294iyZDjdv1285NRSh7HgkCXvIP2om2eFQlgEVAlBfxzfcrxiMMeiX/SlCxm52t0vk1/y7fZXF+huIzsOOXtRsVcSPNsX6cH0JanJyGXnxz5IfBD3rf8OU1hHcuu6XDv9jrcP9SfbUB3llG/IL99hQQ9tIdHNUnVi+L3YtxZrmhLp2Mdjg2UNjIDDsuosW/oFzdgcNdSe5iNlkwTsRov3SILzDzuk3zDcsnXU4h+xEvn2LmczpRQieedcV/LdkP1EhC2NFx11IjUCH/CUJSKTfprDeKMdZFYHY4Xrtl+7VnhSORR2WriLXo14S3q8IoPw9UMxLcfeEsVfSskxw1yReiAt9X+Aajdqr/cWBwLWI9eCW1w4szpbYj3CH6hfFMRN65Fi6LRPyxIWkrUF7AbVTHsO12knX8vRgRU+UEvh+bgjQ3l857/LrRb4/WlTeWL4iVN5YviJU3lyZiqTVKwfv1CjEH9n9268vVLs61cooY50ta3GfyswgI+eu0ZdQ1EFYf9f5d1vGpuTLKtVucClAf1McZDzWm2NeKGvD5X4zmYOdi2vvGBdbiB3bLzDt4xNMYKmsIIlQb4uj50raM6hWbfqVzgoUyDqaXhRUIP3TyxfESpvLEc2pf54xvt6u8YrncOMr/8445als3TY+ZgpldB3XxkoSOlrFhUXByvzX45S17ZMAfPoTDylRBQaOV0AhWDhNCGGy1RcJX4yWqBvkFLUtMvucQMGiSpfqKDfVnIUGfyzLcvu3EFtDRZxLvRim1erAowzrWOuj39m/YhfrKk9c3e95BLfDXnTdKqyLO8LI6Za6Wp9x+tKm8qTKVVV6DdAdx+MKMJlRqjNfFmSe4cusDpZ0pDDiY+MRdeD7ua/tSbDi1pYSkZ8LCejhcbdaA0TSEGV8mFsybaxEweQUxz/BigXzGlEJ9i5nLPxFR0rwRfJK/A9njRvarMBrhI+YSbbvkJd3RyMuay82ngB//sX+6kivg4vfHUqhQfM5PaNh79yLw2aBp7W+zpc21ZqLf9+XIxGRprErm2uVHmloHimGbPC3uk6mDSXbNu9jbWIs9IOLX/fGl/mzsY4seWFTZyrfNZn/C6Kykf+bKWRg3R1ecrp5eBhaVj2HXnMFnQT/qc5vxWySv5atNYt7jB0WeFXJE0iQAqBr2bOAde3w6YLUvp8fZsE7uz8Dv9LclyRoLoKXCaI0n4uSjQUZ3CEE7yRAIugAvMnRYG/4/hIplCfHFidg83Apr6N8ggqMxp1odEm+mx0nv0jPqKdV3aartuXDOFWQGYlPSLsDnV5n03a5sc0Wnh1UGAgScOTvjQqB8xhRKJWu05YFflRuUlV0loxhvqpb7nWeNiHrmmE6crVaO/qlcCLKZ1hxhVjLwG/6l8buu7X7bH3t7OPZc6Eiac/7he7Riscx3YJ3g5KzZFaayjniJS2K+a773Cwpk7jrllX646wSOFnd8Fexr1uxQ+6TR4kAdFsP3PenDeTtWI8rjJwdeaJRNh1p/LeJMDuv/Q/58dtBMMB3tp6pXb/VJXygcAMe/UJmid96uGQ3RTLeH3NFCwnr6X0Qnle1h+u+1X0oJk52Pe2lJVt3sUFxjxMdHId0oAWNf1LUL/JkzHVLM6qIa6lzWLFJmBw4Ev9TgNulSH2rw6DYGJ/SasHDRs5bLEBzn93Xx25qygh7xiG7OF8RYLHmmHhk+Kbi5l6YG3L8YMHa/YilE8+ZWCnGaHQPQGee3L9DvEg6P9E7pysgHG4PaS9rFwr78NOJJZz583rwM014hAN0C+JDhEqLq2J6+utpA4QUHJEJBCBlKpxg0FhGvZdAGoTSKyNiatmResk9F83O/XQhNodUzFF347d0R7KIX3ymmKTvXJakQ49WodAs7Z7jger/mdN/ZqlnR4fOzIg1BH8X6NK+IlTeWL4iVN5YviJU3hOpdFiy4Gk5qkNKED7YayJ74R+wQW/V1n9Hm+5fm2qMtp0wmIZkBhjWgzXex97pZDuK6TtZOz6omeLLkzRIGVUL/+1LIRz25GRjdL3UrI3JvEtc5NVS2YTE5ZF0m2F0xlOj9EH0bvhQnFUow8X3r3vCy/dPLF8RKm8sXxEqbyxfBwrzoNPpKr6zY6DV/xCoJPeeBmCyqF0Ogrn1CNglDf7L5jKRx7CSwurbkZCiPw0SSajWNyQPXjRoHIrwQGNqKipriY5UWjhcYWNklAcYcVOaHQcLndSy4S0nchwAuleCJU3li+IlTeWL4iVN5YmNJzyyYeC//YyMJ4Ys5li2FRIZGC+PyltH/O5MA6ckzH+7cVYE0523num29SsMxsGrApneAyfajmdE0kK4e5M30v8cEPrLUeuXma0rxe0K7XngmCsRnKul3GL6R8K3aC5PYDuWzoSfjbiq4IuixZ0NPsfe6eWL4iVNhsCX0dq6/y/KDImnztC3ognPWfNpam+w8AAkm/xo1i/GERpYblYfEdzxalnDDILD7z1IBh9vNJm4GLXl9dkIh1EsZp2LEMp+QcFsJkLZOt87VNvYIYdmLQbUgdePvdPLF8RKm8sXxEqbyrD3g68fe6eWL4hBQcaGW/tYsP2TDWooM0VTe9uIlTeWL4SXWstOg0+x97p5YviJU3li+IWWmTQBugXxEqbv4CQlK5bRuPn86VuyE3tLZ7O8o+cu5uUKiQym/ZMc1bsXBeeASUq5ide1w2gXSLOIlTeWL4Snz4e/clBugXxEqbyxfESpvKsPdN/oqNX7eSmoLbOgXxEqby+tpdvuBIlTeWL4hvPQcXfOC+julQmgXxEqbyxfESpvLF8RKew2YWOi35GyXWw5vaGw8CZLVHPt2BlFMioA6PGmsSA83UZf130x3nMtkRtGrnkHj66KuBSbYtXofcva0SckSCayK7TuPSCgLzYcIH2+bRixryEqgPWzzGPGJoVwqfBg6Jk0/ZUDZ1Onwf310gfWDHayk9SRLOhp9j73TykAAD++YALfjRfSLm0FmSAhl8CXj9gVBZaZjYhALP8Kf07kKLteGa59ABiaP/L2d/JoJ55/9f9Irge+nygITDn/MZ+IFD9SFwfsmsX7RNM1/XNWkO/wo0FPXQ1QvqzqsXTVNsJpPMUJ/8QV75pEjf05hZR5OWI6uX/B7KIxGABsTPJqMVj1w5Brd3bDk/RyjS4OdfDP7eFd4LXXbnHKCkl2nE+LvgF1K8PUSo9v3gh4wm+N/2tjMtDKMN3C78DmKEEmD1MXithuUASQ7PH2B38P/def8PLOidcQEqn9Et0BM6sghJgXoTRl7LkYRd188J52kyX93L79DjoQO0aDb+ZmM/tyOtDYyFardqnxG6tM4JeIRX3XqYeqHERxn2+89yi0tfc7ICFnBNVBNQmM21iyHkEAeXduKhYHx0b/qfVG0GdjKXULao+S4CZuXHbbWqzvdHCbjf7CT/s8TjabniIwxkJXXBoWprPq+YEvAcJx1joZ+GdedlsCrFPq1JMxS/BhH4K+21bCRJUDuox+H8T01V1//VkvSAaVEAADd4YlALiUio1a8o9+jNB7PAHvem/0wzgcrmnolJf/0A71bW8H9fqKH/X/1Qw9mwAAEchhzw4amS0WvgVXYhfW/6xr8dNvTIJpH5YGM29P6AH2BmFwk7Ppj+27U9ii9e7tWl8aLIOf5jwJBxDVbGdq8Yv81XbzE4zMFVrykV4ZhQ3j5awhtNrYhG02cRa/Bm8Z8CHApxSJFBb7TIfoyZ0HzI1ak8Tw7crFlzYV0W6wFDdHpzNou//L6TtECgl3AzbO5jNlXgZvfU9fxEIa9vM5tafrUgBDOu6GqamD+beAOXweznrnwpSKmPcftiPcBq/iY8DBBw7BNLWs1k5TANEUpWzP8D/vmfLhYGDWvvfqLR3kQOuk4QQMHAF/QyeVwos5UOYYjifMKchhKosOfLlJctskahPa8nBRYwv9jVZWu81F0xzjTUPPnvdOnSnzlF9t0zAg/Jgl9k0/n/fH9QYaWw4SDu/h/H/QI7KH7utTASqbWoSexihETSZZZ11JjjWAev9o8Vdv3CbKW5YQzWvUwn3Ghgs1HRfbzcUwg5poibzpmO0wczhRvGz6zP2woouH3xEvNfGvQ00jSgVLSQ/FZakUAC97l8EZ3w4/CY6cQf4qe8UCtWGwCgbkO096e+I1DwcagVMjF9M9PwvjLlSQQ6wc4OTAWtMOQLT/gSaqojbw7MPwOMGiKG0QFOIAdw4cnovoBek5zelvO4F7ig0498wk0cpS7hwemTnOSADDrmCJsapAwD2cdLsbZDAix1+iz2dlwAAAAAAAAAAAAABWZDWW8FwKZBi3fnow8g913fuQbmEVUOZjLZ3w1Ms22xFoHlvzy1hqzE86HoNAY4zvgEFJ+mou4Qnpp1GGl+mi1WhysIek/bT1DWXBIjAF7dspE3K+nZL0RQTSd/GjuTvSY4ftZmvCaTO4AyQs+d9Va8O/xp1BV3cv2B8AhlatOG6IebIAUiEKYVsjr0CPRpueBNRtFeKv4JnYEPMWJ1hGzwyEPZzkUHYKceeNsZs9R2zt9+uG1E8C8XqM4yXR9VjQFB5DMKnh+z+oOeCzeMtlYSLv4eAAMQUDCg2zWlQzcmOXXwbtdp3PrY0SnJsT+n8yfVcujJi4lEbQSIbLPc0rxUqAERVMxaUlKIuuAjAfHmr9D9vEjvQLMDrLn3t2lPSZkfVBEWhggeYWIE7qGhHkkeVt94X6hJJ89rvLkBNZxJyB0wPvgFXEoRgkdWvxSeCZ2Fcc3D3bc6DsQE72Q+w8EUhwrkfANhLWw9q0X3LzfVz9cZMVKX24RBi0QUJ1EQZX91GM+5h0lvnG+BEnsOCkmxQnHmYZ1sO58n3NKwqfaGcS7Kid3eMQdSttlUsvM4neTE9Jcshud7UtgPrrPZGRYKm8duA67zaaEnF1IzAq/4LYPOxXBw1kQWNHPS7qW0E8N7Cwa4Vgo5XH+d2Ho41eNm5iDOjVR7SvjgXAKW4EJa2wyxbYbSByXSqE+9YtY2gFiNxhImoSaREKZMeVm/JH25kXENDf1d0CNcKZpuTOccmjmIAgLv2yVkmpHkJoXSCcgGDKvYdgdGIwp4rFhvrmPnmNSho3keldChInl62rThugwjE+vQLT9Gzm+03utb9icFUyGv8hsA0w3XQ6ghWhtpqs2/ACf4MctcIOijMYturg6fV+Jld5HJjFboF+ZKGHfmjTaYNkzQZ5+RfhqWD+Iz2l0O2TGb8dfU+hGxbWvUola+OjEaA90JwnMpBqhr2t/tCHSJcm7xlDu59a7nmGaJaqu5opb9rD8A0r8+L8NNAQeET8etF38c9I+FaPc+tsL2ardeMvYj0pL9rS7uG6G4fLNMKSFFCqEsfMRZMPtQiLOP/DOdLoqUZPXyTreiy1yzRHrt5F3uDfI31w3dVxl9PtI1+KP3nf0+AnQPBNlrHCX6tT1OmZQpYImtCefUK0JOccMMJZOCZN4uvvHWn1ZmB7ua5eZ5rDRBLVLfPCqaPwbXoEX/8RWa/5N4qokAoqxVZ4ZTV7HyVMT07E5G93uX4IaGMsevk5Uq00DanY63YfVLbZ+XftiN9mvjZs4Kp5rS1NF5Xn5/jIm9ewSGpLG/RVpKOjxfmqoFHjafS3RM5JXYGW55saAxAjD1rvVB2zc+BdpcQLWIwJZVwZD1P9YPJHvO9EhCk/drsyv0gDCb7EPslzyIrLSHxetamUUxAoXZhRpFOkve6KXwaKwt6o2R7aI6ZJEdr3TXTkFXkKvQAFx2XdP3dnwg9LBROr2U0+E3G2d4Auci0jTYbRVo5RMAgPRq/5S7BtD2wWNnaS12Jpp62qs0QbNzjetWSiiFkfeo1LWO6eszFF12eqSghGFf7r4WMDEstPaU1uelWOtSrby4XzAhtuYMOjZ585hNvv4XJMyEkHHZhg3bS5oxXPNIg6ByZVLDnGi4yV+kAYaWoD3UV4IW+OkApA1+R6W3PVBQIy6NimERR8UpqN1DcocXYY7C/88ChBu2s6myZX0kAucZt4MyNLqNfLNZ4MerMIAABOTohVgUa7Oz/eplGuzs/hHDNQxF5bMsXx2lQMLn2tX7T9k44YgPpmqMGeeESctNviIRqmGzdLfKYLVUe/ftAAZMXI39AGgi6s9mlUfH5JmEXuRTxb8zZqLAJYuWH97e4vKyBOL6/z9ak8zvVimMlFCxiyH0j1XHXxA8Cp+WY7XRHvd2v1kFBUSOKbbm9QS6g4yL2Jdqy7eYuS7gfEmMfyT7SaGlH7K15or332HHpsrha2R33uiMQqQn+sVarFouwjV/OAbEFz8EYTviE4jVYYjvhxubDtLuaLX+rpWiS67xnG7ZWO9PuRJYig+C670ctbtNG//H7boD1wfKNSIt2kNUen4fiCmv9hhPZQvw1G7dlHoe1sbH61C5Pa8nWbhYg0vn+4+I2ERWea5OwKlU+34K8+umCZAErZJl/vd908ItYMf9rtLuRQmX61Vj4E9KphDbcPKLqJ70dGwVVOt0MvA9L9MRzd5LxD2wcjFaMC3gFck2pj+Hn4edwHYUf9qCBnBRhvNgJY6KI90PCeFO9Uf3+MkVbss5EdXWcAsyecphmjO/rfYhGaTtr8R0HNJt4hpMjuvbrG3/YyEpeJmU70gm8OGULLDaRjBthhP3DVpPcEuzhGKxxbOo7HNQ1RqTh4xIMIMTvy48lyqS93qoYKdVZXIGxeowauZ7Ig0kb8i8wcnSllrTsxfIpF62GQHrtimjjBUcGbN0XXmvFKlfnYJ+cvmYP0uQVmMMPWlYbkVKyFFvB/foBXwvLT3r9karFFIv0jGxteASeLnUsE+Enn1fr6KxYI+fTAhSXdoeSLJYbvjzy67DWxv/13PHYlfgZsug4SeU5Y3taM7XFh8IQUKzwVJFntwE+L+Zg3wttuPMavXRHgEQNBU9jpOneldLCiS0nV7MhTsAo+JGt15XNojmBAjIKHwH3PyRl6SdVHaz73W0XFSCXRIh8jKB9FDOLleEWtacoh4FpmBGtc9qIkamYi8fsIlciVd0BE61RwYV1WJdIUfa/eiQ2EGwPkCVjLpuysH8H67l3haEPnUHFv8RhYGEIGKscaVn8EnGvSxFNJn0l7oAWhINSFBW4jdnrdVKIuxHIlnadsUn7HthMwGADZphwMk81HhV+y2o9xYK1R1jyTvuBZWiEpZge2hKsaffOCBQGwT8IMCuxhFCmpSBs7kIa5yvPhBJslsSbEX3oOD9ae6jmVqmTVxnxHJtI/JD7gUUVM+2pVy2/RNEZUA/vnifO+aXT2T8vPVEpCe+GXipNVy4Hh3SIBYDq9tihIWcIwzNtFYSR/MOoP/bMxL2T9OlZ5yX4vF+z0y6qjhJMXxiqHXsf/ZXZSyTBSAVY258Iz5vX37GuUmmA3fYjsiYss2RuH+9pbastI5YaFOIcVxerxcbtVklEUOYvOUeprbs8jBMpTGSzCRl9mIL9iuPfFoiimhLZ/jeY1yQ2PK9j5TECMv0nepgb7NBQ7iVYvkUxDxxqez1rKGcVjO8blUlD5yujX8gMuocRqkxpv5GrNHTUWJrpnCYYKi1lS7q4cHb37JfE2M9sfoI33PuyxT71Wdc1Li3l+j2lgyV7+DI10y6vEpOtHT/CrnvFumQoiD8zjrBoMaJog2IYqoXXzbrGwIiK7DsEQtc6KxsblLEGUIAnR+zeU9TBN1Y+bPWYMPWYb6WWXm8R5MFJ89OeexA1rEvxeNsOGG1JlQtjvlyIJejahtj9O6f4DFj1OWh0cR+nfQaTI8vGRV7CopenwqyzUJcwmosZgNaZ4RtE4vmWHenXEUcPvW2B9zWDRsIiHU8oKjX+50xlXlW7qO8Y21IyhRXwU/I6lMfotPrN818xjaqjVazRZZXKgvHYz4MlCqm/GmR3lkoDj2z0jExumY75cvBsnd3XLMOfmEKx+i45xA/0OagDFjTO8ZdF5g14q6cGKtlUXpxjoBFrRmroglc9/ceH4DCxBzINjRMjBeaPebzgSEN9F50vGltUUCN248JvIfARmNRP3/YUNz6qJ4o4i6QLstcyv//Y4BiP9pJhJyPlSUJqjsQ/+NOQKl0F4cbstDLo6Lheagzs5vJeBt5YeeS69N3cAlu/Br6FW5KFRlA3MnrtOJh88vPMyon2ZJMBfsUIb38/1P7MPXPTm5fHFaaenjTc4qOUQ0LIPQLqxG4AxRgUQzOhcrwyAPnGuLreX9X/8arriV2/SX9GjeMHCd/ywiJLTbOiRBlByA55EqsnU+5u8sAogxcbjV5h7sOvCKADUq75mFqhKsAglWPDAnKyi5PZtPgwfWPdFvaKOeaeQ1OPsFhvr7XF6FV3NxImYScUm5Hmty+2IhOwezveDVu/7jWe1fD2knhOQ20PLfyoT481DQvmzcLgKzaURY1bGbLMbPqYH76UAf60x2OWvXoKtLQRxBRV2aqDcXuO9sqUVHyA2VeH0FKPOQsqRfJ8rzanOQhs3+fbMK2BjcvDJlygj5GycMAjt2OUps9dTvkiyx4XzReO5o3usW+nbjRNkfPQKavLDy3Dr+xHI+UMxeM3cahGq2mwjXJLnAnxmmHLy1f3gaK6t8xZPk2E+DimCr1Ydn7VuizoQoFS8PXaw/BDjnxEUoWHcDJtWFJ6BHsmluSnCv5Qcd/2UMCAYlhy/YMz8rYZHz1iUHoa6qqcBDdVe1ADTcVIuE7uIsmUm5A7+P2RAaCNw+IMg4/vXVgKH8/3rJlJ4+C9K3HxSiXZn+sGE8Ofx2VdwhiCjnSVJy7PtavCrfr10LIDCs6Tt7NtpM6T/AjQK0tzpMK5dpMk9OTp/m/vNZny3q7j5mAAQ5aufZqg9Kr6yn10elMBxCo2/iftDwtBfOlcdSFUdZNnNdg67zDslj8KYDDorvWtuFXF8mmfbDAZwmJ1lmqR7EpFnIA24qGgcVD/D2E5rzelmoisbioPvFkEGD8M9YqbDbZe65rOIsWBcSMug31rY3HiJxxQJOqOorSewsD9hVt/1vnR3YQ9xp1Q/Vig7LsWO4mtMDy76w5UkQEWTpVyQH3IkQSAcL0n1q5ZhQgM0PbOHkLd8+BJfgQlkZW0urV7pnVFpB1bXAFfgCiB3kDDhj2gtbzI5zSx/Pe3StXtn81hB+SpJhMmtkru1J9HPpwd0dJve6sv2qoB9bcJvxOJLrGkr67AY6B16D57XRBnduaQfMcuknONDSE7ZzkkdjXampFbKLIlxH5qNU5nJ8pPtek2uCrrkBFqnSO1J7rGeaTm04ush0ZO8no88wadxy34f5z4UV6KLAD+WwH6ODIIBXhpLcqCEOEchh4SH+iojLmo5Y4M0aAIiOHAt5Xo30njGidAd6WvsLJ5vg2F9LEAirNYf+WvKdfW8ojPwXRSNoOsS92kNvcmUcSUliKDrwHH78/iYVJswbt/lrp8w5+qYLIA50r/6XE+QFHTkGEpeQwlxMuB3QzoKVFm6otakc6mri6483fcHEFIiUpRuAVGrJ4SsJ4DK51chAebV5cYXPnYPJg7oqoDrPrHB0tg5v3OKM9knx2airyDPX9eUxUQvD3DK32WDQQsEVq+cVwKTQUqlEpIwD4psDnHb47ZXfSPf6LQG/XFDAKy8Acy14uALW9oO8bLHVx7oQKtxwaKV2hCTGT3Djx3sx1B28vB0QTFXlXhSUlASaFDXkrpM3/Os58/0lAlroDAH+xHC+ZbY0etMIS07TaWcNtXMwCU2OSwz2Cp7+Z5msiCrglEujMtvUme9gLsQ6L79TyqsqYDIJUCA7PHMxZBPzXzTmmFxhPjM7mt9MLI5ZbV2VriMlm4W1NqnTIKKtsp4f0Qp8v21wuVL2US09j59OEcZBIbMZ3wNM4s3cdbGkSkMJw89OlkPVJTBn71u98TIm3WqRzeuxMwTWx5/oFv0I1D3tVbuIm/bM24VO/8IvqxrGFVUMf3CRS61eLOn2x8b3C9trBkRIf7HCueDrBK1d4iXtbr3dQ13eRo4p0aov8H8KMyfRW5YTicdAhPhLJXmMt2t8S8HsnxCUr3PRNMkI3nr25fxE2dcmHUqbWOnUw88OfpsMh9DWf1As76pQ4lzNvtmkmpyLE00eys3ZuGdt+6Rb9MKqQawMblfbTK+NIRegMonfLBY5oBevd2rNqqC2kvmG9DCZuHSx1RzQ/vUPDzXzwc3KLiRzsHZDnBfCouEW4csBTPWYtgCYhTAy8Y1AbU5JKVOiH3IJprWS+Ibq7Efd+XOQUK7QVDbPrcGNXpouEzBeDQownEbKwBK6DTOlogGtvPNz8C9llH0IEHJA6/VH03ifWLwrjVonuGsQyNUwNNvkUw9It1PGf2ZzXY26OgeQOLyH8HOHV4Nt3xuoBh7pNtA4sK2D77SCIhRx/jye4S2x6vDpCToxGfyXaNKl24zU6RMoIvUj7lg9ZZwOeya99W0bFqNKnO50D8FKe7exKOtbNY9sFIrL26fsh1t47jIOqR84/SRP9VFY6THF1dhBvGN7Q1V0rBfKTppVARlVLyweUhLklb99cj64SHfvMonhKXiNtMOG/Ji7xezFGuTqW1544YYFdUAU5HjeKqkqftghNFNWH6dCqdF++IGqSNPmw6C4t9XWiB6eKQndDNHMy4/TOCBnDOKjQkz1MBiFZLprcmG91dncYWdb20s5b2NWrVnrrnldp1Hj6xFIzND2aV7tCV2FbwHQV0jK72qQKuEI37rnqpZzH0WOUxYLYKVxK7Sln0k+7PY72pv3hN+YGLWkjS8HIOw7YcrsvkRMdR2IKncY0OusF8VhTFrxShk4tEZDb4fmy+Ky1BI8LMTd+Y61FvalzSPC63QGn//zfu608YOjqNCEwuDz5g47ipZpEfLRJLN3gQ8HFImJYrjqljq5i4gTp849OKmSBsPJ/wJT+vbvGHIxcrJHc0m4RNe8ixAWzlEeQunGbeBQ6vXXKfkJSBLRjRSyKS8HNpNpda3r8WzFek9Csq/rVJSi18oCsh90Wr0rnS3ClKiO5tnI2ydPmr6C8aC9L2LJkgXdKn+eiQBG0Nuq/J7PMwKMlY5L7b6kmoryytFvcY5uTPXf0iP4MwXkWOVbgUfovR86nFDt1xBwmNAlPrBgIBkXa6oZyMDxef2//WmSxwSPpGnq5dGjhAUf8jGvy+JmC+VwFYN83vahp0m2iMB8bcRKJyOIzpma158TidPIEkqKqzFG3qLl6OnZg6bzxwYkDqCAiXqX4EKycAcXX5JUECVbhP3s3r5J0tUlh5naQ93s+AHRKx4/ov+3q3HNJpSBxbqeehOHPGiObYloJSHaVOdydN7HLVX8PAUE2jLycoPTZxAq5ZVPjLniNqVZSzXKJ7wPf8tDrKE3lj6QuC8U0lv2LdkXBMTJeTi7SpQ2H5749kJXziuBSaCkWF/WR/nTfELml3uAgH2v2/TtUVlzAFwvsfb29z3xTGUHkvWwe5JW/OmJtZ2UvOKltfFmdjCheVMqwaf4fihUNM9ub79hqugXaG6VIaigkTwcSX9ufTGPkaipXwbjgtV0qoNyyTlWrchIJxh6kkXG219HfL68uvW6Hn7fGwSvPnjFOnEsGS0oOvvPPhAzC5HVM3KRfycxyH/UBNKt/CeCLlgARs6fUjeVvpvjIjKBboRbnikBOAYkbYDgGMaMMrDc569NtFZqX+xD5RXID9VJp/DGdNW9mFqNVrAiZU8Ynsbgie7T88aTBp+IlRm51cy28IBpXLuz2+hHFWOHrd2oQptPSirhq7zScteKKJ9RX7Gyf6hLAdWzE98+/PvHLDvFHoMrGZ25kJWdO+0nNebGk59hP/CagCR6b8u7yCent0QnceXgc/cdK3d8lQ0TorOdT7dIR+Iu+aCxf/2ZoMSLjDTTGro9yYjo7lVMv1IVY3nRmh8OCB8lWJft2lDBeBvuJhG8IsWZBLEAp3PgayzrLb9SLroysAUCU//f4m2gdEvlNWqBEKElvW0gLcsILY4wISKNfORI8xVgJ00KjRc+nr8BjAa6ABo8WaelSD3O4ErIqDDN4CuYKMwYGcti2rIhJ1wUIoOdYHZB/ZvOV8NUMZCLouZ+hQW24wr+WyqKb/Q/UC10oD3pFOGyiSqSouhixqZyIFD8bl0P9V4aFQ/txlISKhPkBMvH8pTb9uQ9sR/cM4hG4niXeGf1CGbLS0gmkS7hDhYRwsk8du8MPt4UwjuEMZOp+Fxbr3LL8seE3lUOHPcdj12cT2/4DfkA0ZHpNHX4qdBLK1bZFLbfQvZ1nqJJmggzjPPrJWWpMLZBvFaoHds0uKHC2B2Klmwc+g3IUQoRILhcAgNoNXPt/q63+hMEs1Cx8XKTi5gAeqttG8np+ZrzFFD7RBtrl/wq1Qi6L9vwAkZbpNMxw/2u6oOJu8+XnH/WbLauyI2KisfPfiO27ORx2V9f/y0od2MImxbzSeIj/jTpqhyb6CuMUPjRGgWZ6H0wXXpBfamp2ybeouWH5IbUbMrbyMnPuP6p4hwyXvi1rP2nGnTnBrtzbWLvjkQTrkwslfZf43BHWMr51N1WeLlBMAFk6524KAWU1sotuRMLYER+9OHItQ6AXRUn2aDNJjvJWWHX+V6T6QsnXyxjXVi/dyIvz5b5EeaX5S26rMB0qej7hq5wEINq8+79vgF2jkHr/zTba/6DYSe+IHs7N3UvMBJetOpbZSqri+nggvtFtoLefHz7ZWBewWDTlPqzADdNAqqliAlyKzYrkDHgzQAzjzJWWk1WY8PLi4reHuo7RdxP6bNeiVV/pVvujyKnan9LsVrQSBdRFIOxIfcLk1TLWXhSSoq0HJ1O+NnEcjXZvkSj7cphnnwlZ/YdprHDzBJQJjjGK4SV9+v8E4tP5U9qWqCJjRSbR+x74jV/jjWJbn2PxjoreVzrcBtyAnpD9KaraCGldaIEws0reK2OvK0TNaEwuYOzQP2wD0ZQOKWJgC7D6Zp6jaqdStMxz4zApz5jfjx8DAhz0DJAFrC72gV/QgYzkKJGmarvfTs258yUL35QqrECtZzR0yhrShc5BlqK4fktrHlsjkqhj5qIJdAhz/NsMftXRfTw/1GsegEMvE2bG8pNkzoAy1ZhXI+Qi4BJP/Hrba1QYlaJaQpXTbZI0cT5njbBpcxBlaOXFN3qdnVnic/edLcGCSarEnW7utPtMKb6OAhoLy+6VFFBTYtIUDzz05/rLo8bg1ROjdjHpWGH9vwibP1IfVJTJKopAbzHkV3zI81SD1KG7/CPfneZb4pCphXqSGz08tzIYbcW9oxMvkaeVX9siubdRy4doVbkS2yA5aKXGH6K6r9UBQQ8H250P4Udori719DKpyiF+IiMMn07J/a7ZYYPULhME7/8vWdKRKDgRlP/kouZ2O80leM8mtcw+lyYC4U507dUZh5pqJZcZMjmaaa5ukcmypnHjMs98YnArciItOt+4xNWaRXQoQtFGoL1hxYNoH1TtY+Kf1KOPVX9oi7VGBo2KgGsumTKS2VLlklm1wYV9+TWftUiP2zG2zSXMvxc8HVf2/2ySVr3FxmsocJH458Wno11OGl4/90kZkVyj+XOU6EQVQVkMNrQzaMkCmPt/955oKPa0poBZ5rt4CzpwI7qjaoT5OTDcriZMGffIBIvNWr49JBYh3vyMjnFvD6Bx0Mh1Af7pr6HOwv17s/3GBTsHvmZw1ambsC3AGN6heYarbbeUuG1qMAFDnkr7G2WDxzvdu/55dOP/CuK9RILVph1i2CIDWWhDsZeVw8w4K9SnwXKoVNO/QWhZu/AanGvkgkZnpVoQ6msekV/CKCm5Uq78HWyQ6pvgtr2T0R/MAw+CRXfeUB5i20FRaFIgNBffWwiRTjFmG1h4ld2+hEXKMB2FMMfU35aO3cTrvuvxPN1eO+FUryxeHmWvXN9ak5RRp+1knwWQ7WOyxTspGEnKGvX/ulqAjrpE3hU6f7rJkTZq48fQg8fD9LmAyRuZMiuISRZ6N0QFyQFJytnNGAuZNZlJ6f9TpnCOqf0sadTrr4XHk06bRVe8L0DTQ068YkQrJ4QqIFmo+QJIb8B2ZhQntqEvamwxS1Ti08RorcP+TlDdv70nOTNoEBx+mT2G7rm1wJaawCytyTrXm9IhyCtCMhx9MnnLAHqLXkDDuSfl/dIyh7TSiqhTgITvbwZEldSCSFYNTNRCenOltXzPCI63ZnKmd/qPQZI0u3usnJdiEs2ycnjCEDvRssNRxO39A3sIrUdhOevPnwbHfzjjqn7s5QbYKVXSR62Hzh9w1kbliWmGASiAq6rbac+sXJeCsioyvbVERBXhbgh2E/5QGNlAL0k9KV1t5e+vGq2ulcUNhLMhB0GH2Ce+NTjtR27332UnO2FHtE0HfdRqZhAcTO1muRe4Dz01XpyHrcqUr0TQWzy9+WjL6CQHxn/O8LIACZKjg3PLh06YIwZkc3lfNSVakOdyhfHdjQ2hO6jaR3VKzDThE/6D45mqH0mxRMrQ6lx+FispJnrwvEeHIJcmdh64521X3+MXd85hgyGkK88FC0WgEGHg/Dx03b4eSaOU2NxzXzF7pu2FI/4LtWyYY5BC0I5L4pnjtr9dFAm7bioOWK9n+/zlgHxLO1inbrv+DKj2KeA/cknBB36ObpHBKynVJ1GsmcaCSdhcgMfJn00fd5jIWz5wkQAtuymUJBAO9DiH7mhMfDQYqx7r2dDYRrzvj4z5Lr6Z796v9891Y5cyxb7akv5BBr/z2UfIL0uh2ytK9hfx/JNxgz7irHC/h5aVRj+5Hgn70lMVcGcFhOX8NsR4nAwUrbyyaUQ93viKzn3dAX3CMhPrRCgktGGUsObaMIWHxratfEIyFO7lHOwVaTcDQceutac7/xSl4isejyLzvpjilNUxunXKHRZMQyq6gjHEWUKCCXNG7RArL0ZoFtboKbB4EZgxCrD7X1Vpe6LcD3gwxFzmJvi3VvJeXhGQxNIHeT3lYEVO7CDyJB3MrauhifN4m0NtNWcBabdvTcwWCEqF+s/0qUU02hY9kVeZI8xP471/l1UxaKXjorxt2Sh19jUu2qGlGNEb0H7vgp1fJ7DmOINP+O0SYHNnUaxE5ApvmGE+gPRUvEi41H3eX8LqEP/E1F4hlSX7Q3fcOmwMKtP47XCsMD3SflWs68dp33XfGI5kDFHlVh/Xw5oxSxgCJiqyHOzR2q5Ngl3renYFErr3y1xeGI7PU25n/xHQPrsxJygDTK23l0HKIygIjplpmOzhO4arSS5TE9FBED8Tm83YAR9hQNneVu5AL4FBROfKil8XpCQ5kOhKs0y9SWQ4zhn5m0LsRmE2OcV259Dz0dE9K3gJO9FA3uqD58n5U55rK9/on6WzoZyftDyU+dqpASiMAZMzVuqWgIOa6XfjPr2kUpt/BWdfND/om8L87nkMhQjw/EWrXxjq1ho9HLnza/kHQ4oXtUgkf661S8em87i8onJJd2eQXwOQwDbqCUtlrrxVz0/lcNnWsjZpSgrO5iW/kK+jnXY8CrrtNv9BG/XhaDP05inw93yL5D49uUcppz4n/lJGM2EDOJCHZKMUrp6k1T5Cljr5UrIwDjlhMuQsKHVPTddYL1wr5ii0Q28FQHe2wglZoh87hybPrd2GvK0GCp7GF1TCMBuc4Doik5ltQ5Yo3In+ang2u53tzF8qlXeOnjVpQ2RlxJk5BETvcuRiJqdFCUvj4TjvBmyT9qZsyVSP98h9aQlvBPoaUps+VA87jqEzUJhmHNkZnpwbn56LotLfZndJuw6oATr8UBmHLf+mqHO5pynv1E1siWWE//fQ9oe9P7hi33g6OAFgkEhTq/+IqDhO/N2UtWcHpyqAgIffi7qDNN6I1R4PVJSxxzPzzvXOA/rBkh9/P2O0H23yfC7it161TiyNtCRsgGY/DcfFZQsOVRRqV7hGBj+WkR9L5cYrPaRRbeHEJzInNnau5By6MlxZAA4BUUrzhZJGpxggAuKPdQkimZo07mNdgHIk9DOBNsETxTmIZ0CN3xB27ZrgfdjQVZCTYnBupjEwHfRhwt/9GAwcSRlaemci2YITzKIaA1KjHGJlV8SYvXJnqj48mvj/LZuVtMGeromL+7P6ENtJxzPpHwf3f3NbGUzkZ6OEjSYrkfGjUyuou3KmXGQO88miI+CVw34b2L+W/fhi7JlhzLS0DWJxvBQ/BUDj0GaofPUWD7785DB580ZrMiqCilXCY4f6VAATj9QG0SgmMXUOK0MICDVAhZDpA9vGVJ3SKSZV37zA7Z7ZrgoFZjU7otZie7LF8k0Ni12ncumB70kL5/ztbTygprTswvV89sT9MFbmu6gzpzaSZaBnOGTRuIoiF/DVHDSyrhkcpDQ/OK9GBrLXLT+bKI67dIVt08qOA/HNGYic0ZBlPpT62WETC24zL3OCz6pAtg2bLX4gl27ntPBQSXjjgvvkyXJFicV2Ni3jGVshpO7hm7TPr7KwBwDX1PollGkyfB+/MEBOR2zcCbMDYOxh8IAQBTR6zq/uOWCzwEfDyUpjSBX6VM1vxNJOlA58HW/TO0RXT2JarXlN7JxAwEZ/sYS6kLi6HBRaaq3E0C8YfRp4AJPWtt4k/e6/4UItPVSMV6uSwHfBBVbUj/JUqA4zqY1Ves0UpMt0bxbjq0Bevz7hY+6xyzthSDNM6zEDeDsl7RMNQIcCpDDsnSAAwR6b5pACnvV8w5IH/rbrp8Cx7DLDflTIuw+QsqxcKzxdrK5X5mNvawgnQeulBrZGrEvq3gFuRy02eoT/cwmpNs3+YXxLdcWl5187JSRCTx9DsgOD5T/rXwbhgBaVZEzTs5SCUOHgebj5788AH7Pc7UzoNoieQAAAAd1Ey3Fo5nNE1SV6s4A8WwHbCplXM9OB/BQsHypWph25/1xEOtLihK6L4WIwA848QmNybk2wt/a1LqXxNsouFCQ4SazoTXkPOIQLhWTB2wx7QswEjwEGGVh3kH5j4ZbnPX0FiT2h6NCahSHYQEb1XtviXLigAg27yiflbGXrpZaXbQWP/aEECJz6QdX/ZJ6s7se2G4Mo7LBYBJY72oytahnz8i7JYN8X4sG2PsDdmoBpWIwTdGqYXxZWD/pxhL5YyFjzt60VfrLZgtZ+PDDBL0TCpAP2wUBSSD8SSSteIyOAYsStSO9kbd5bMcqRHgUZnXAn2zUs5ynVgjx+VTLVQ4gaUEING+r7zQC7oazFwbMyrjGAy9etoQI1bFVvQqV2Dde02Qg34h5RGD/IwomrThoKS36M7hAPnBV2SGXdyGHes8vmP23zhIo8DNHgEgQDuwZl2sQ6sad6lGdfthBWfePS/A0xxgKS/NDlvkmUavlMtLRNtw8EgopnDUi/S2bn+mscpIWZBW8dov7Qeh828BaSRxE8SJHZh0mswTf4I95/9komdekQk+QbOyTN/YkWHUU1ZV+bs4OshJXCdjEEtzZXaS6BKmzAIHhrW+cbh2Lbb8LhTU1O6GDRmAz5HEBMCXIa9UvSWfhF2aS6bReDLN3r82bLVTryjlquKvguohGemZRlM+h5A9xpSggqdLfGOhyJFSRqr9Mnpv7WOy/CnydOVAONVXZR3CCSeWPuB4/jNzBuQ7rfhtX2m1VpjXya4YiYJekp9i/J5NHqR+fdSYwfdG6V1McUWreaQfa5UYe6DQk63/5/rzd0V/DpLrlZNI2fBQnV/dHCx6yeC1A/ThgOkuKzgF3wpEjA+qEae0QOvuIULucwk1o55IS8c6jLzScCqk1ZnLabdxrbUrzDjqIqhpANuAP82YEYRSoPGYmzUFxG/I/P1A7JT+4Qdh0xR/NqZWcOsLbzWY2ZiQpOCXDtpAIfgHhbDzTols4EP/oEWuOXNz1EU0H3Bc4fZkx49xy4dwFeiUT3eH9Bv3zwVZ9gzpclwrz5c3jFQUMTRAEK/yLWcGT8HxthttUL7ePFcUI+frx0qb8Ymngvou+4rgaw7a2vnxF0HYOPas9/QrgA+ahsrf4oiAwn4/OHqwGQmwMzEjHS04NxGIkw32HS+XU3S+pkZhkYFtFbGq8WMdh9SdYpcJYgz200rUlxCRXrjpLDCNTmqv6PhvfrKItd4OnOy+GCsYn/m12bNsH7d6WCELo8W+P2JJ95TxhmVZ8PYRTeCDEF8M+wPR0UxS1Xb0784xo28puEM1tBhOog1dDe9A8ons1m8uRxTw6m7x3mukgZvXWs1rtdOAa92aphJrKwInBYdIasCV0HY+qWNMhJW63F38kPz8u84t5fT5D0grqMYGV4Tm62uD7EhV9++Pa5+N4wmsxuVOMJ+ss3mjf4it1UCY4SWgt0ahpunYp5ILIpFCp+5p3+dEVtUZbjH7fKz8IBo4B13iwAA+g0tmwfey3a9qmgGUN9CKdlQNtC2fY1n7vmItvYO55XA8kAaiIWK/66siRHf36YX1o/BTU5SHYN3VGWVWrs09kfcXxccYP5JqgcYBZiEf0uC0cjS7PW4h5+QwR5Ix1UNmek+1tWofWG+B9YWSgpKWt4d5KZgMQfNVpyAwcjZ4EGFC3en1ZO2+r6a1UvMDgwJyDfWKFBMQcHtGZ3sO3q3td6b+6ZgzbDdqOfBEblh6vVxHrOrwOCz3kLZL+V7hjl+pDDNCO0OP7lI0wRmfb/Ph5Jc7Rw04SKEKml1lB+AYs3e/I3kzX8dLTM23E9XgYHWnR/gIxrxKPNWAPv5ZhGhCGmFPYUsfkcHua0HsXL/mjKDIKmffpOSJGTwqc0LQfHgDa4wbVh6ZAQ+atF3BZtgk2tzadw/6t49nX3T9FtKDnXT9Yh7di2Aa7p2CVpq+N+fGj7OodpSZea25h75+lCYKAWa0qiUPfoO0Dcdhx083bzVGsfu4qipkus6tXx4jq7Sl+NBJ+teVrHYzdRa2JgscEkEEx2IlHoh4tY/tYHH/X+bkzZPyWZO/pAQGDlavUK6NXsilyLpHcMkHckT79qUFdPQtt4C3yGT7lQGUzcqCq1xYBK/DXWsbiqDnpJAK6fCup86ysz4oWUHezwbBQ/e3btBXuJo4Vr8BP4M+JPY78IzIV5OlqsET19RBYiHjvIJJMPk6JT+82mesffYJLretuXiNX1YxtOIfTo1xpzRkF9/28Xa/bWvvdWEc0p/VDTMbvu5pf+nMJuFQ7QRm8m9JmQWu25nYVSfzohbOnEK5bU7JXpMeuwbusY2/vLwzMCFMTVaLUZSnEImHoqgB+zBnqos4BWZYm6sHmC94APfaqo55q1ItHrLo2SG7b4VdRX2U+EOPdJeV/vu6tHktfp6GRaubghwZQuIWfja2YS43TLQFA8GUT5E8j40Rq0eHKXe9aqCqbau4bYgVCxqG82VhmoAO9YIPS4sc3uEfNSh/8H3Ie1d9UwfLajesWcPU6E4ewh9pDRPXWIX+3daYfVps/W680KBnGeOA+mhITTSyHiBHY/9x5vrvsyKOpsf95DPPQ2+rhIbGtG+UeCrjU3mJXRkGNzK/V2aeJa0zIxjcafMzvDHq9S4fKuIkwh7Fj4VheWjfEIDPQdvSeQzUVEJFY5ZT3qZ+TeP+bVGllNUiRBEBtum7EUXcj4ooHOmyiyP0DCceSfbUU9uX8hEsauLxIwOONwk0qyLmJvIrOa/st3nIFBBgB85S1Fr34AAvoNSrYDs237GitSaaoW+8gNiCf5vRJ8vQHLR2xweBEDLL0zLDpoC+W792cQaODRZKCKbCafZO3L/9Gq67y+nKvAxX8KkegoVfDJWRXD+9vJvexNT5ZGaebWWXkrY/U+EFqRmNJFYqlLK22n4HL1VxyL0K0vF/NcEeONmaq/9gW9wIFn0VyKQPsTKOwgUF1ys1mqK4nILMIyAqxhJ/84SKNzfRZqmPRGsT0CSsAnMkdStYI3oi7ly1IZII/XEUwV1498NrZ8QQ18XzFR5VCn7G9CE5gzCD8GvOqWhUjn5Oq33Prt5cfhFsLvgcvhI3Byly5/3MXAijGai7SJU06itSmZk8g7FfynqXOkYT75cm6garD8F/qB5Ge+kcyJk6gd8fjjoX4n2J5PeeiinYonW1dA2qER4EzYF8AQml05ti0K2z63YVTq4qlhO4EZSfyKp/HsDQ69b0tX/vFpt++cyp1WB/6HcMxr6RIHqlZrPOQbvBIJqopEagZluJsZjKt2j3eHNVh63PU/blA72TNxfHfWxTPDPjv3zNFzKGUbEZA2duNY57XumEuyfLBNro9K4dIr7PlBW+IV3w3EG1nU2YsKlJ19KTfIJ0WNPZYKRFjmSrqXQBzgf7qxFulItBULGn/RFLpHEyMwzEhHh7cGksS3rBh/9IRsnbzbRCIVBl2VD44p7a9/SyUN0csmxk9N8HRUTiN/8BBccbwQged4KALe3kMvZWZQA2l76kW7fi48AExp6vekQBgwYWWecNy49VlVbvC2CO1tADPzaNM9gh36Rb8XIrF6CqfG2FoNghNM15prSzrKfyLCXVTkpKuXT/0xzruvnYAhSLQ/Ct3gmumwYODiKom3H8AlEVt6HPi/WSApvFzV7UUael04w35IU1afe/2b2Qtq9LYtaDLrFzoTgdjMfRJ2edMwhW12W1etfei+4k64z/ACK2P+V/3L4dURsAx8933CivMhmM3pDjEHnfh7VFa0PIxQ1owjuWQFO1Om2rhVhzPhR1TbAKt5u+553hpK3qQuuodLc9i7UkYYMB4wtTgJP3iuP+1HGI+IzzhGvhUQv0jFXGmMSpcY5GpegMEbjRx2b0nUT9CB02p/U6foaaYQ54qH8Cut0cNMRYSpKvy7h1H9JBXoq7N6JjJZNWTriBiJJ79LJenItuleZsrsGSyw2YlwtGKUgFX7fxOpUEfOH3g+0da3+a2+lUmY/1tLJyXvULovNZs+vtg+bC4Xa2vWHkLB7SOmyL9a+e9LekS1JnjzEyuv99f+GbxwnrQXRxwE7uVlQFkS6cC4R8ngP3svxaeq6Xhx/vS+bHA/WZ+ufL1Q/ti8ZBpWthsglseo5Q51V5l+OoGmbX+2Tp8nOxAUEBO8+O0SOxyOr1bHQbab2RphS6Za/Dt9lvnnu5PgaNHBQ9rga96GMpB36Fny0poBWT6allfYgKchxxlFf/Oe+LVUHY3sPmkEzjlQxQu/4ngScFWkGNGwNUZEzFwpg9Ibqw3zxIlSBHdeBN4WBFh+crZcbYCvAPhUxJl2EyZJ1fowNIESiDcGkGA+TIl/jzuaB4Zg/Itwz8Sy7N1ZHVkfMwQccUD2OIVTxpz/9QgBEc8GYVdpV1pzHWKuQHNot4rs59WWDZg8Aw+bdUWu18lR408sH1REL+6BCcyYYdW8Zm5z1MP/pA4Wuo7Y2MMlWM7CYETJPPJi9Rfw560CI9V6m4vsmHt+9a1588jdLKpXHM80vkP/FQYcbWt4D7mgVYyaYepyuCscER1ULzFxjZn3m0AbnEGPfAyGqfqsTPocZHoRMXLuvulhHgAtl6ctIxE5gmaugIqSk5j5oBGGodXHQoFnunGu2OOKP7RuSidu9Aj9YApXBR+BA/G9+/iv2VC8cFzXu6yy9KmIytODU8jvk2RzXGvggkH3dT5nOyPqTWTKyIfN40SjKyGyBJXkv6uB9QC+HGY3ZzhNVjRnonAuO+QIWav+HQ6WpEd+/C41XGk4hirWtqBfs0tjvJBMdYqBdBVxixas9Gv4iARehYvfHEWkzpIQA7M943M4lCZzl/ten7DQKd7KKl+11YPIq7QzrCNRteXtW0XspsbCIJ3CfwOw3jqyRSawVZnwTkE2xZbiEUmL0E+m6/mSWtK69l85FG/o8F+ea9BQO8c462gFW86BA4Rinr6fpalh2NyTKKQYf+RaNMBvST1snq+QNv8OO6jChBkBmBB2JvTQ20kyaBy+hLCbI2H6UZ82A1C73KVJN5caMVwiZa10WtN4p9ogDcS2Y3QSB+JZQcdPjPEWRA4KAGwz//4ChGQxDrMmcOUFr5TYTyR4pfRbyk0ugK9v667stLUhwWGotUMi900fOcw6+2bKPYGiD4z/85GuLD5F5TpAbrxcQ/gncbqD0s1vp/Q6VIqBSkWkAR6MVkxZJAm1uBsIHrceWN050zQ+0njerdMx1YfkhQtn1N2/zyYTKMopSem8bb8BIfToADp5KXAtoxfQKWwmgzH207gWcnEG2EM/hL2tEx5fo476f9vShp3/D7Ea+86R/AnSIuBgilbkyZLM2Eep+rpOgmaWIbNXPcZ62HNMKenR2fyo7GoMNeUAbZy0RfCmz+3WhOunjekBdT+yifZx94DdoV8GW+ea2QV2I5Fb7EePOUPfMJN19Gz+9h4ImCf1s0WL6vAvqTCQ5YXZuXLh/5HZgLtlSFZc6WZD1iGOwArpD170kHbudTTeCpyisQxHxc6hDfY1xbAXhMOYWGtWX28Mgxing0jW0lcJ7xLwdNG84O5GgZSppKyOvTFIX2S5ojtrOfPdEFQgBpznIEs0FcHJiPSUTZdZz458K95CG7X8hvWTgtgorPtv8j7jhnCHdu2K9M1+SoFUYWBnOfUEHDlGIQgbS4Z7q85eojppVW6OGBx0/9zsytgd+A+qerzgW+/IEz+1nbb2O15H9aXg3cIrOuuztJnxs76HYREVk0Z+nLQlsORopxV/Or4FKc+/rJCa9MQB5cI8Y4R/YB5KejgLBvQ0LiDlojp0NeSqw5ot9pzKrRXjnabBTIhUmM1foSjTqQLOWv1qP6Tvl1NTMBmxapo1to2KCb6P6InnQwC9FfbJSK6s1+sQA/Dy2eTADhbeL47kFigcykSE98BtZgXDtyOwIiqrQtlIDpj8HlJYKsR+tGq9vI4RueeHccO+Zet7Znh2WGUzj90QiKkqgv2MGOxobSaGGrl6pjLk7si//dtIVgDYKj00rI+J3Nm3x+fEVskevDweJG4QeWbrGuv/KFXOX7Ndy2R5o8QpPygSRSSruZG/San6+hkkh+wVb28Zp0KbVJngJxRFGf51Dq03yHyxErFs4Yk/ymgos07br4+A6Wae9tygTWjNLPUbGyo85wI8a/j9rYR2JYVo0toPHkbA7+b+jK4MZLq9gs0qaCpjxjICfRx5oWc2L2Y3+wlwqpnGTIpOPfCjIVPWQafhyvmxwhuWAJtnv+bte3m2Rhbk96sTrV9zdhC+V20Sye9v/BaIGVDbGSAMzqqcXAcQkWsaSn/3ATvDFE8I+s+8W240Niar4osDMo8V2HfSpBmRWU/tJJ8q6pIwFsJRYl7NeWOuSAudKDe1OpfE3d5gSAjEafNoHskP/YmpOsBMZI6cHSPhb7q5+Y+l4H6cWAcCCtx5SPtTi8u3u/TENAg4SypeDsdAPjBd2Xbv/NpqwT3JrwX9fZDG16VJ/pDBJYd0ZEZr0GZMsB2i8IRAX8GSxjdqJ9qSe3vXoqsFNkTMrHtWkaxnle9XzqTexquuCPT0wSZVHobB6RxV7i4qF1A+rZHBZAtXC77FBf7kWTnxyxBMgpfk/X80lAQoCSiPpulbtpji0jhFLZFMpltxf+7elxjQZuiip6h/IQ3gG2VT9zyLGfprnqHVp189fYXvS7S02e5mJjTF2gJz+CVFXS4BXLNeAZoCWtwtKi+xDAOSCWukPqcdKq1Rlqxlsk6RYBEdiSKN7waaYveMN9K0nu8kDLt2MKjV1ZMTWlMDKio5ccEXjTcpKYF57o3weiz6MlPFfAr0+WbXAlfb2iHs2NGuuDW5GPy0kwcBQ8uj98pZ32fqAWzMdZ1VCvE5O5kA13joqGC1u2AMXYbZNhWKedfneZJrCAB79RjmAXblrjHD1hNIG6hhj/N2fmlhxPK1N/6H3l2BEKtf67dTZcfCz2S/Tg3afHwezxk8SrVIdNmWFSU9LxMs0ian7jEdL57jVhOhEhOit9BXaN4FsMAekzJ9VJ2cNJjCO7BADjSi7XPJQ4FXMQV7hMUrFeNdhAq7dbh9GjhxxOSkqCUDh2g9xx1mMjLJjJPaNDjRTab9daTInnMoR/3x0MBIlcGXtndldZ0j0yAaN/ELoQkf2kXH1vuGB4znSc6gME1HHb3w7aA7XE9/iFwh6HewhAKdzrDR+16QeLcp12uG57CNIxLWViH9l/nm4hbWabWrHbMdh1rkt5w7/eIWA5GD2baiaIbpTblPMcfFTrt8SZufR1ZfEvSDr1CvZdWmjHlXdBUyiGitqGifxo4Da8qaG/bWtXcZG8xJnDH9D851uQOGAXYcef8jPyZlMpJ/EXqZjKYiyX15guRVYO8OvKMu5IiSPncTXYIJ2KHDIwdM+b4PNBpA7hEsapo9jvOO2umoX3AB7reYFGXONb16WZ+DxYiVr+HN7C/xWQpT0KlkdkYW/deIRASVRS+0xoYqqG4E08Zh2m92sPNpOHYhL5/iFk9r1SoMer4un9QCVp5R+brS2jMIzdjUcVBAzk0qzOiDAcCGHy2JuH3tt6SXHLYB6Z3bO9y/6y3PQV6LWOoY/O4WuExmAHplgbocvjQoxzYJtbyMJR4HS0DJm/Tv1uonxU1Fp+pP2ReiCVMtzuPBBuoS8idNLRKoxbgp/DcnYHUl7yYLO+OiV934xZQiX1VAXglWgF6J3EchGhRVL3H800012QgUoDh3dfkqnZsJZC8DXJnaQA7URudwf6BaNesQXTgLssz5ojUofnWY6+J6dK/15WiXF9gWNR1SaRR9Av/MZ1oymAl0MOxw9I2n8ncQurzyg3HRe6t/+WjyhJbQ/OPBqMjnfFbKJ4b0Auj5KTruphXPeQfXy8xi1ANkUSBpWDWE4JKBrIM/oF2ju4ghNfFAlAam8oEemeExiBmNaocy1Eezsi9fJUMfjgjoc9usMmIp3F1k83XejXVin8v7LJG81apLZrYOn6pFa2WNOvYjFo1a1aZXU91VofF8Hth6nAo3VY+VGZB0RrPhMyHKTA8VYB9BsDOK71EZLuCGWgpSlEkVYBwwTtHN0jr5lNdHfSQWtpHFKBZqDlr45HPra0EBt7Q39fUhChNhpyNcJDfOB4BGhN018Zjdy0YdYcKvOyJ5QpZik7W35b+gZzV0ItTaNG+N68fF1neYFxvZ/H1EfcZPGeB0btLYiCtY9LeDASVXU+UtpO+mFf7tl65AQfRjsBNeZq4jMFRTFS3ve6fOcPVGl/41J+NAnAa+LvVyLi0QH0xOwCeuhThSldGQNYJlJr0F3x4N08AwZv3rqFtQ2O3G6mi2xrPqqVwUUs2lrHtA3hxOmC4Hr3CTJ2ZfLEz41pMakJNETeI2PfiRdKsGzaP0LkwCJjYyirIpw3sQ36GHfQGhfpqTnqS9Wqa/oqB4KZr2mpaaqQ09FoScuPueTGDe4UhFDcvPfq9GlnmBE/8z55C02M+KnpSt/jnYGYiekakSMQTuL9KOYtV8i8Z7wV2GZjMVhgWJN9DxQISbcLtbRJfwSef8jPjH2LwyfigqDlAVyMFV6W/12A921KUM236tOql/bNgPfgwKxHWGTy6kE70K9ywG5dp1oSWwYY5+7EnL/J9I0pB9olJy/PjjBbbxtsDGT0U1WNl2EAN2HKAR+3ydQhSNBCC3LT28k67rdKc8Y0BBktgzYbCtXYyed+1SUeKlRtCVZpl6NMjRjVkGDr5VGI3MFObZYnJZnYzOCtWkRGVoevDk4PgpS2RHFIWOtDUsXJlhRJj1Wbc15b10tqqgfhrvBscv7DIACR6UO52SDMywCbCg2LGs37bd5aL3Ctgev7C7OdYzQX10epyiPNnLUug/GMmxnTw9fkEzgGdQx7WAq0tjFeYFs8nVUEwvISQ7GBRj0A0f3rKz9MIIEBbwLMu50i1zNeCrZopLbGmnjxNuIUQAqTyjWdiqfeihyjNwrHEURmeCcn0rJ6JEtlg78hVn/riR6/pzqdEZZgpAIsVPzypHsFefrumKs5BgJOTYzDX55CAsuSwgKusaL8bNMJnPj1KAOQDyD4nK1ckT3xLp2ojBRkWeKuOfmPVfoS0rKygsPJ8Y2g51+xVllUCit94jvBzdbuwlOJFaJB5mWtO46pr425ri/64I0LfVfdBtpHrWn+48Oa+FTSj+2vWqQT54DGXaHLbA5WJitJauA4FzGe5vOTthMMpHfxZjSAFrjGObPawtdYqYrTgR/VZTY2WWPbBV1+yVRvZv++ZMhT6Ox5k4flQEQL/COCZWlf2g65FKQK11j2xBKmikz/35nsckmpEughcjSUYXjCHJcIuqXY+nlbbmWgvc8tw6TZ+PhTsNwp+Tc02xQAJivVFPtrqOjUopnf4Bhc1DuDwZr25eQpfdOSxfJb0baVG2UPNRx0dOFtFawHAIUMt8wJVtBTAAKrO8wpXrGLSghKxwjjULGqMpXrRGkJQPPREH5Z+pzFaa+/Ehx9KIUwgLFxsCXKS7H2bGXIpd0NiAOBYb+MUXkOPw1RW1sY+QGxiIW4FfBsZ7cZdFaXCndyiYnogZBo/KqrzLzs1fV0XIwMcia91TbNE7fzTsh/H0PMGBtvbfx17y7fxflqS3n/aRJvuTOgFxhhZSI/+yYvPaYziXUiyzVsARyjSRXIwZCD1TX+K6DBwDs6ML9If6ZnQ+Q9WHT1NtHA+qGa2aCy2Wk8FBO1T+vl0bQ2FrQdRk8QV6LVIVnuOrxdd2BwY67i+HOcUkRHUDoWeBpY45ce9njqBhn0wQUxc7iZF92g7P20b85ztDkNLaZnfmExMlcjVx/yfcsg6jpCHVsxTWG/l8ehDGawSbUwI13CRR3zQV39JYTh7rTXZQkDKik0DvoKaI2XuhZzcxS6qzpqXPEX8mIz6rwmGDpo7zwBD6UhY5Z4s3zMTDAiR4kXOyEsMAzqe53IUPAV1h862/kYDo6xlMmVSEmr+7dteeknjCqtK9LNrqLT+gLFygJFZWs6rb0BqixRHB4YQi7l78Gxnbzh0fz/kGj9+iDQqAj4BtPUSfsK6GKYVJwY7GAb6GXRM//zoF0KOGUjgL3ux7F/uTETtbKqAjWq8QwPqjtbCv/KllMbccF4lgYgXL8oHJ4io3ADAGyc4rnm+7mGk8JkUpPIGLoWFYPLDtsEuw3pqTTx5plxoCDjv70rhKCNz/uxGgWKl1p+eOUg+0rHftah+RQOLySclk4PFPsy3ilU3ZOqVoS8EV5TBHsnPrHoH4Uk450p76m3JlH8qsMSiI3sQiOv+V6PPPFkaye4YeY/P1x/b4fRQf9CrbMdcvICFH4E26+jGNoThtnCBDCMk+0viRn74IQQM860pt/g+hr5jQcoeKNANjxZ4iJNMWNctZrQgXFgm/WxbMl3J7O1d2O4W5bAKHmD/BpnVgbehoyAQtzO61js3NcQVsNw3d6vEZMSqAWjuL+gBlcZRs1jkdrg0Gl9XZO9wyA5gqd7Lr9G9Tl+gUuHeP7Za+dnrR0uOis+4T5BhNBsrUAG3hqEN1d5MlTdy/1Ovoj0tBfOKrwhLhjkDWvz7NX8Gq0oHqirnwkBevSsgW4gumIzknZi4DiZNOxaS4z8Xl2erERbI/oJvy02jGsvQwo4cMB4dGgTAegYmJ8qo/uZ2ge7yImTkozU21ZPAoBti7GowllLc3COPeF4m7E4cNiUoMRNmxsPhC/m8j8eS+RtuYyNEKOEGi1KIjeEFEgM6jYMmgd0moxwct+2U6kr7Ct7MYtwP5fkLwx62+YO0MdaXVWr2aY0skML/7RdrDj6TM4EvJJxWmcOIP2/AtubG1msJ/Ycs59CHmMx8AlznvvYFdiG/BZJr+3hiEibMTqnxuCh6wEcZIxWeXMk65thV3jO0nO2WGgjUjNWq3hDlifBQ4/aKFU6Lxl11/j3HXiNdtMslUkdYZ8BsWFM7C/CG8QORuT3NxoyYPsp9zUGwhpoV24OpJ+K47kGpv2lpfYKFKPL+/FJ7jKYFw5+vK7CXbZF91ZAZkHb3B06SMNMexf3d5F8JD1Xu/EEew1uolhj2iV0EqVQ5C2jCdu2UD0o+esXzT9iPHIlzH0IJXM9PGhbsBmXCmTxYJfxIYuMTgVfcAPQ4Af2Jw0qSBhyX3e1xyxpPdKNB9hbVhElbDTdrjKWbpVHI8w0mwIOzv+FkNGilL/RirIb+W6ZR1qdHLSVRukbWK1shRCcIL6PEGiX38yxGCl5k+mlejMoDgT2LAtSFhM3DLEODLRlWbHump79Oolm8lgKTLBdSoZrvvBIaGcxweJS/Lzmn3FZrajYCA3shtEImQIKLlt4EN8yZWan0YOWb7gE1WNOwtiplq7RyHblsuWxsF76zBiOd0nV2h0E6EU4qHfNF//pCxrLjKSGQBBLXAejsBxzkPA465r8TgewwIPmyLrJmBAWeOvhJGz05BK/OUySWy3Jdxt+qQ33f4X7aP9yZ1QhfpscokgMoXOIofjdrmGmiNt/ewAqkIS4Yi0Gev03CR4TMD0a5J8nrfX6MHkJEN8uCHUfFjWTg2zCnUvg3KvOyQMRF2D909ObvnDHxBPemXzfYX2bFcx0pEABHkuU7PkkJVonESIaeABNtPW/xL7RDcAxZAJaW40reZija/fmFe4ICcBmYFbNTwEeKLWk3vy8I7At587x7AmDW+AYEr4hTsmxjBnXcyO4Qqq1Fg2WYhnf3SVjaICHRXpBzNXp/lYukGwHqDEqBVEJZnci8w9vTwGkPLBVkqt/euJCOPjGn+UNU6hY6xUlGLvfzvnFI7kowqrp/Cs8r3W5kgBAh6T2/tpwwvms++7fSaHSFz2G00zcWRhg4QIT9DY6L3Rs85yHghNBlBo394HNF9uNj/+VLlubt7lUK6koTCtSUICi6i/oFIMUSSYTakEeWSJMz+fh4YSIYsW3GDnixWztZP43wBQlngjT2As7tUeqngjRjcJM/J1Hesir5VbzG+af9W5rRhPUxvWeKT8shNWMVvUMYpfn8FWzaSpmtfsg8tGItZRf2UPwlbp21FOBk6x1Hi9Q8yjr7r+NJ+0U0a7Rwz/GOYT5XqDqckuzvgsNARFlpkxblIvGGB4IFYjlZjzUPx5d/AzcDGFERxBW/XYpFFLaP/gRJtkHKdVtOYeQgFI2p915rk311zJQIfT1UNpVAezFp7gb8s6wEK3hx+ku6GyTLBPoR6KLk25/npEUZyL/Z3A09NLJhJc49t+gP22u70SAGCta1KZjMIJWUiQNCT1xaHI/UtoMDcNaolnxcYklg2qr/j8cQMpc9bJ+eOrs4Ti/kyFd8b3/PL5DxBLe4nWY1afLUmDUgxunBwczo8RSy+xzidKWizz81ttk4rgFZTcqq123TiNVBH7JB8FuRuY8E0eNRmpUY5cNv9f8EzZGDFWdHcKOPFnUIZpuKOy0WSKIop6SwiYp8yem6YhAzkYh3LhpPGSXQW4/YKrvVYJr8380bJw/kMOEMB4Qv9RFUkBZSq7Gmk1jafvi9+oEfQriBnK8xUTC5OUk2VthdKlM6BbVZ9BOwUdKILFQunIpcKjlrRzn2Yh0QDllyNngwiUksOKe5FQvdxBpy6j9qrjmIBV2HmVwMg+ZT57meyA0TSjgyRodO/qbLsgTdy5EbjHbjdoEXwZ7JB/TIAUwvF8QhFmA+pcz9EinioUehBWYcPlGInW9RFZ1iSBAvFhAJ+egWPKryK15HYs6VkC5Zwa/0PAKt/yiXr1QEffZ+cgrGAd9ovJgFz3G/OmIX9ANE+hVpSVZGCkYCktIqzkBh19kiN0GdgxD01jQnKhAHOhk+L5xs/a93asE46C2Hkho55eL5EXgTFqZQdyxH0To+csLBAPkKzIBHNc02LGHObPp14X2rY3F+HeQmNhmNjPVrf142HYOq0+BKU9dB1HgDH6azIy0Dr9yjrQR2DKCDzver/rg3YtLfaW7G3JTH06M8GW7Gc6JVd91AcuE3S7xzGiH98HTHnODu1ZHMkrnnBYI7Fe9Rk5Svguivu6pRbCct/r2+kU/z9H1i8UwisHyV4UnQU5bvX3qJi+T3ZTdLxV6MQJDIj6Dj41bDktNFCAyFN8zF2s9IW9EtPWlL5jG09IPZzMVJ1i3NmL6C7wMyMdlx/Cfy3A66aIY1HSpUdvX5AT65765JP00nGJ4JLaE9EVGPqikDxB0HWVAM1teJwUxbIBL24Dugwnwiu3cKGwx/z0s5k2x9vBXn3uOBrx8YBDoZZOFz/hQYaiiQ1IW4S/73BfgijulSPpNQV3V5P+WQC0JvzMIfSg3rZQuo/8SvvsxAeYCmNtXRX2h3i3N2WKqb6aFov7QH8uKsG1X8YnpVMh+FVq1C3S30oyVEQAixZt3srVV2nDvqjdRu1Fvpj6e8DPIJzIEkqosa18Fc1mkggw163cSIG1Zm9i7pvBw4HCnusV1b5gp6CYYnWVzCNgqNy36yYmGFyg5vAC24P1W9vsEpnwAE4O5HzfVmJQHaVhEhaQGo/nyxJ1cMsZ+OAuPDHtqmqRprsr+VBxuFVO5Qei7yDsDiV253Qo9DPfNzNOtN4PStlHjWHQCcrfvC1y7rV9na5XfUmJzvJxoeJb6Yixzue9kNrtn+0uf8LRSP12+LarbGW7oGYHtON5TDRKhdBBS89okmmQrqs/xHQpMFBpUScnVpxG6YlRY860/3ukVlmpvNsgWzfNz+7Zw1VqradBMm8RJxnWLxrtZI3V2/5nmeptKN3DcCR2TLFHpLP7dAVX45L/15nt4kRDBNtglwmDSCg7sRtrMJSnqaQwQAfaFE1p+ET6kZbdx2n5nwXG1lt3O19iaBEPvTEH7g4pHIhVmDNayZkadhe1h2Roab+Mfx2BsCWj4Cn+xz0FyKwZJBz1iD5NkO8iRlmGrN87J7+Pn3hxv8vyJkGWe5alfOGTpWVVqGtNQBdjyb93cpLCNZq60wWThpPySVzBdZqKgYkgCSYJpRZtMyg3/EizUiUkvQz+1dX6inZbN2noLNmBUpyseK7BVkJq3h+QK3V6+C6QXnLu7Qnz1yO3pSWSqdtXmgoBuUD/3lK8YqkiKuqVul5obrkV0D1n+B3Lbrp8dS2iJnVqwONeoDB7dc/UmDDki2ZiWzQy/3wuHEBUjRgQ+qukERpLLMOAjnoz44fpK3J9r2ZbqSjE2NpnoKR/Lqi84QPsIXn8IFRZT8I1hpYfwqrrEQ1+gFrS5f/ftSU0U83ioosiUJEPTHz6A/0/G6DpROWZROb3EFYMF6BSwRkHJ6RDGDnawLtnEwDxZXi+NIrrwiUzn7+7BP4/8fY9rbzzyjFjKKPFd7omnFJC9gGVYTgI2AiHJW79Ds8wqxSCAqaxMxDIC40+Pkw6EzpUxCFy8/xkvcjqBY5/+8qfJYgppKSleCInBwcvaDd0kMUcWE07tmssAtkRNeNF+5HDEbMtaELQ6U9yaALTIDOsw/r3MWoFruW/7IKf1Zv2WmzpDZajfgJR/VGUGeYrnGiR0XttbwcfIJZiD7RJU2yovHER+jeBMdxZLgIGMLan3PtP6dymSx4R/yDYv9kD3EpPiCjY3hi8FMxyk84SmkaalAGaUPp4yX2rnaGltAE1+/27braPafkysRPaw6WjKBAweH2Z44OtWHJ/ZkOZ8YgBV0olodkXbM4h8r+8yeA80fY6PICkysJKVzX2fbjTKY27245ct7Uq0r+kAm83ZDXLnu3ZMeKvsgozlPIlpXTGsrUqBevZnGcaO0nG25zaER+olmdDUqx3wxngmqf7kgQJ/H3QI594pnkw8ImFvE+oDfX1QFIppEctmXCtAgg8pJMQ5uwLytPpwoxuqFuExlOYYlqhfi76biMsrMpNBpG96eiMIsB1rOEwFA9iKpPljyjfKjjHSGUjYNDShOr0Bt4WFcSER+7eevIOtDLBczDvUmy4vpmDp5L+KREfdZOUR79ahgMrxbYKnvBLFjmn5AgVpiT6z10RshAyAD+F6gbE1dMC7V6p3DuIDDuj/4QZfv05HPkH3eKo6JtU2gbUmoafNixvGMSaJGxYPq8QBqkrnqLbrD27FD3hwxPV0OtCdzhbcrDl9QM95smmFKMJ/RnjesRYDpaxvN2R6M5zQ0I6W+NPZW0mhwiYcAYWbjKGWEvF74Xmi8ujqoCTs4FE+NCHzwfg5Qbw2Ck17Loj1r5RsThtYXLtNIzNf3YkIBHLczz9XIhQYnSCkklsw/tfSzx/7qmtqCWC4/zmD2bWwW3/9UaSfXfPgw5rfLABvjha7zK6eVspy/4bpG3hcxEKrVga6yA0ZAPR0r3mvrAXwNjXC5nwPg6rF/xHvwAFt/QXKwruhehxVR3sS9iHPpPaQ8g7aqa8UMsltOgX4nDfTnV4HOx0DingoR8yq5hwYZbt0dmhxPSR6k5VFOxIDM4z20EMpAclbPjVvpgn72UDLlzQlc30bAdNSoDmMSn8H6okKrBrvVO47FMjjNiXbISH1UTcs/MrTfbPry5sIDsBw2l1pRvDuslhD9dvbBDCgeafhPp9GosxzfcYy4jsKtadgzr3xIAkdYYlEt2hAcq/RFL9TYDHdoHIJjRlWtGNP9yLiLBDCL37ZdbR+h/lPGkqibh1PPdQORMlYYWpRyPiv02d/PdAeyO3SmAwPfTEmfDhLepPbSjBk2ueHe5jBu/+XHGim6vmvfDPNMSWTnE8ugXTg6mBxwXqLDY2qxJKQp1NCPbd6/cZCx6x6hlpppOwwK54oOWyk6l6MtLlHMyr6cWtiFdJSqx+MUY2ospZ0+mn2yHmRY6AAbKh8cJR2MGsL+ruFO5kLehQMyRFdlGMwsb7FB9TCdIkA3SjM/NX8Eh9uxXZ7hUGZ9TNK/rSHywXa/5vhQSay7oqPwH5OMXNkuTX+CHAnH1sMuxNB47/3Bn70W/O3HS8la9BBMYIaZVu+OamQxWxr3NPZ/U7VQEmW7hHp6fJ5UMAhuCiVsf8NdTWQxSZw+hrc8iZxLRAbWITi55B2cmbdIEkJz0IynIqvmM4gw6f92Ppx3xv4qvPAXKGhMqRY9dP5xO6IpllFlLDMeOc1DECN4fju3qHj5aUy1DVhteZJIvY7E6a3u7E6IHWLwJyQpMYFqWbTJwpMqJnCXVyQa2e71LC5tNTeBKHOcTEoVigoURT3Z+Q25Ypq5tqTjGHx+W7sye11/EvI9Bl6DglSDraGlNAfv8voWIDW7nV1sgcyONsvIq/qrdij/wyJpiWzJmHrptb4ahiJbsG5XLHnYhaOtr9MWxoJB5YlZjeVI+ErSROde7qFAzkWDwbhfFxmNwkQUdEM4E7zRGwYdjpukUG1tJxPUKN8JLc4Hj6Rz2JzI9phc8RBRKMaLywzSBISPuiKQyi+SWaLmMLoMEG4OEBYcC/TcYQlfAfXoZYSLbAnyhmo7LspcGYa53atKpY3+YZRCc2chJRaDJ0xVfDpt8OWBLiGtkNYyavDihdVlLc/ZsnByeAN7/h3HvG6Jm/O403OUWgudcoOSp7oybU7C9BYDboJIRHIv4HRt3HFgnXf4nTCW9PoiQdjdaXMOGt0Cr5dddatPCVqYGMq13Uh3caSjAJGZGGhZPzP2Rg1uhtCmnPkPMwwQYpdvYYeLuXOqa4gsffEl9g+9xi33EGboLom4gfFVKxqfJEiIoGpK+gzJ4ueraEWTCVJv6vYepUqwOyPakVlKoVADGS8ud935i2VociZwIKDuR7mY/U0Rn4sijTgM0hkHoM5rt+tDztk5aQA+L6h4SXkm4DIkLUbTc0KkU82k9fFKTfHbKa8zuM3EKGsiuLe60RyBl7nqnpnDCm1zO8k8ku9qwBKelzRgQBDjax4qgUuZCMpWJgW/lDez1Aj5zI5rTkGGq7kDwPPRztaJq/z7letmiCmv/0HIqE5SmQ3VzNk1QaY1I+5fkdwk3s1iRjoYTsUpBlaG+YKXGSNpYK50bxMXzO6wpHLRlCD8Q7IOuKGDDqRHHdpf+G/e1pLXSE0g+smncBklTu+82shXtg4LVli/ZfmtTtFoZuyF+pf3013xPizw+76n/w024ar2Mapxmk4m7wbiuXdp/1zYJFIiaBaooxDDupb6CacTMvfxFJU+33M3Afxgg1uFrk6RIbDYaeJPQAR4zbiERBGn3EPQUL50zvsqeE+dKmiR/gzfWD2YtmjaPGhWV4IiqcihQHvISAGO21+NvVzwQkKXHhKkr6eeYQFQDjSkN7dK6XSlNFXQkIjS8oZdY6wYrNqDupz5wrj6ATw2XUMoWMq6wuV8e2AxRgIktPkj8kcNUxppEeGavRqUH5ZhvivbbNe7ComprmxBC47e2T6/FAXQXHHVfgGV9KY520206maneK5pE+GXqz2Lh7yGGDJBjHSzloRMCkNXuIRBu1+QBaIhBNKf/V5oruamDGMJUEJBxQd4zVIUTKDG+y3fcjequnQzUhkuwwz0c3B+GqlzP+ECXrCb95K+7d4qd4OQeFVqz/MHSVWQaze+ZpHGzwq8IsCY3Dr4nqCp2RilxtZHQMQvXsA+uMBmyAvQERU1RT1GA9C4x8rZEOQ+w4TVulgBbFXPPX4yhI58f+iwV0g5ekaLR1iMzUsPRD2XAtS++6SXtYDGg8ceMiIvOZgCKYENUnBI0TKv8In7bPvnfyuO6nWly+OiSMQ3t9afSp/f29MtCbinJICyegDDq/nbkTx6oFzYoAKsGc3WpAEW/nXRYS7WKAUTQbgeTspP7TnHjbeznHAUqApt1mZ4r8UsDlFkCAPJ48Ttx8PLYmQyCLoUtO7P3VMYbOiMuh+4MJKuQesNQiv1+UPVi8FZAah2/zmdDgfXkMzv+SdPvqK8qgI8UHWXRbBuanAsNHR+kO+l1UQAal88KURStA3/pIbsrX6XAAI4aD5LkqCifY0A+day0YoOgoU9dgIR5P1mMHUDens/IMPGD83Z2qBggIAE44YqI/67B9FGX4X+AMZoxfgMNvLDP0VW06m6UblOwY2C3BPw76/mNBfj59KKASkQAAAdGTBqcLuwtykgpOvJaDWc3Saa32yk5/dY5R8xbjqMT3jh+Mi1r+X7BjS2ok5vfdKxe+lAR/HFbg3Tzcut1y0n/TVahWV4IirXzSlNXInEBauoMB8C6ByycAAAqCn+wR7u3N0sLCk4qIBluKwwUQ/i9IDZABGJPIgapWAViEN8Ocp1Skf81Eb5TLh9Q6dlxyV8TVUA0jj9hgFkPS12b3d4t4h481FUlA3ORUR63jkarUMFgz/PWZIbU0sf5CIJEpBsUBq/gCxr6Lfn4p83Mid/OdFxrfkhihjN1JFkx4E1uWTcizaZ4m9GrstqImcetql/h/+z/TGlItZItWFLBcQXptFfmNwOlxK6aMNu37kJp5Q4scMM1LVzkUuDVB2uPf5m3k45s66irIdqL0QT2r/b2YcOJEvtpVvtBXthcBLBzDEN7hsMe2dtKFWnmEZTnXWbr82wQ3G6ITq0fzMwCxldQRS43BjPbc5Tb9P/ER0zxVxqwTLWiKnyxIhq3nyHxd3taYk6QETbG4XMMKEaUY709Q23ZYJVDscWRs9bHDhG9DV/DTcT4f1I5cyDGYsagh7H1I8xs2lhotUqcNubvurIG3CIONqWG7ojozNKnyKM16yXdDW4a/NW4pCm9qsjPwEzhwnPu6ZzJ/+YrfJC2VByN0G074hXMJJUMzf/MXWIAFRtTCmkUfDNXjgbD8WNiJi+L1Ni0xvEh8Z15RjA95+Uii2KI/7CgjZABluMXPdfu34IAIbg+USOJnOjNXmwrGs1BRLH7HPcgQlCPTkBcgIs7cPo910PGQumWO7yQsVuo9/8WwHoY1vbVQBvUa4jAC1ZH2tKWqY8+aIL4IcgN54tZNEI3uSoqpcw/D2PVDbxmVe4/6vj+fuuB6nFB2/BokNdKDCxDuLn0b4o6hFLKpn6HZAX931t24CgTUgoeoaL2J9Lxrj2hbsp3hCG8EIMa2MjhOowbcsSLDOBFxHo/LhiVqxzO39a6k5hdd9/hC/KjXGdu3k0eCA9frSiTL3hLvpcU34jd1ITEeodJIsF7h1lUHhR9BZTZ8aE0TdjGmCJMYitsRs6lJlcbQOjE8sMR4MFOvQLfmQjrbVZjyFoZza3mFx8xNqyOO/qgfSEuFn/xTvCrUEt7wsv2/6LifhYKO+XO59gKVIaoG6NWwE0wkLjRdtV0ibesJg3jNTJz7MFuVjjtlYlRFtce3HS8+jwjkzCxCRfObSsLmiAayn2yNnn4ute++wzR2uH5JfO4WHtyvIYDv4Y/WZIkrgjDziQ4x/gMmbHAOrSCJmuZ/ba+wbEtigpeIYZaUnuFhB2oKRLVbI1uI0n12E9ZMLEGibW7Hd0kadK9aqewV7iQSc1ddQw+5zdZp+UNUDbzZphrHM7nEktXykdQI2HJv0uUbwtmXXLuIfzuH34c8DCTH2A13jXf5Lkc9qak/bTvEWQ5u/BekkC8ubHO4nqLXPc6kxJBeB6LO3V3Fi49CGEKc2mPqnnJHv98MdbXpZYWdbeAXCDfSKyQw1G+y3xveJrVUZIRRjngccKJFmw1z1jbDD95AUGCePY8M63pEJIuCV8CuRsxuXYwHfVfmoYm8NXaz58KVeIF/IjxjxIdZGWWUCYPqdNaH+ERhe4pDC29EcYN/RgoVvHNa3nVYaF6fjn2Niyjv3Iq6RuUZTAks67A5vGTBt5kahFgJjlvl9L7Y9hAcaMHQZQv/5qeLslpipm2x/dqA0arsxZ4AAwFY0s/xzvRzlhBsI+29jyYlUTw+WNfOefPWwL4k/3T50U02QEpzEThm1M6SygArUFs3HTGTMB+QOjiJOCjtEEW4qklHZAWCtALmqGcp/9ocmzN95WoQIpAAsl5o07e6b2xQdg5g3KGrq0f9aRWG94utSp+DFBka3wzJsI/lv+IQLhO7Gzf2Jd+JRmgWM6p5/nxIG30qaWxXaw+qywZM4foyUNlAX6+pL2q/yF38BQiE3hokMTLqZGXHuvCo3eQsvCHjUa8vKfyWrYgj+wvotTtmML1R6aX5hiXXhP9FZEd+cyTkuJAuyZkD90K54ln5j/Gs28yGf6FhrvXFnixDjpQEDIv8MrgociADzl0pQVbiCmToWGEolV7amqh+iyZAzmY0rXXCImZs42Vr4E+5MvPDgc7/obovzn2/G63R1CkXmZtFwK0+wq8daMCAd1MJsu2bfJPSwxem3jEJnsAQbse8Xa1hOUQl9DZ09yZVVdAqrn6OL1TLXDKCjpNvNYmAs4Io6sYvTAoD9uDpsUc1FEgzd6rTuwHzP8hD4L7m/5FGSJF/pMVeFSTTsKpiOB4fmMp/y8hYVi9bsk5Y/AHPQ+lttFGxIQFfW/XSg4OXKuBEVzvTz8/n0Q6R/BCeDufYCUSyIydubhQCeaTcuVHmhxA8JYQu57Ktr1lD/h/zbYEUvQdDzl38QnZJ/qpDjCYfx3LU2LBT/ynKf/xSz1w9VmunMGYRWsQDvQnA6Svs5TnXVoNFzyhKfirZsi1A4URNU/gx6Yg3LzSGGlSWYPWl4GumWnX+aPyndqRI109DHYXsb4IrpxDcLOc14XJxfoMnxWxVpt8nSwywCFN86KCTCYsrkhW4JjzJcQ2zduBl3FM3A1jLRSyUxg+p6eXI1GX4yhnN55gPU5gpeVLXpmbbX0bIwdizlhHd+b1DEjb78RYuquR+gbT/gYRNLHavvNgeZ6SZBQNdCl9m1hnPc+A2IG3QBcVBCm9mOKWNTs896hEJ3Ai7u3Smh4Xp+BFBnJWC+HoZflZsX70BMH4kESEoJRokfy3W4uRH8VjrkGij1DCWdNdeiHiAfoTnaprYvYJO4raj/6w3QNLXVQuFm5levEedJBVuCPgJe0Wk22Ni+ty/OdOJeFwpFbX2EwiIn90Nzv26UEmI0+O6bxlgzh5g6WU6TQ00Psc6qEBnJn+UebrgITU0qljr0tQdG+kusKruUibmnEU5cc0xvmRtTOQHxL3fcBdVqE2NfqZ7nSbiYHC/er3l5ZM5YvY5lDh3r4b1t/CJFuQ0whGt0Bsu05zSQK5pKZAliI58PL6CyM0PYmt3K4w9rZAbEMFq+lnQ+ezqr7Er1V2WWt03H6nxuly1VdU+fnZ1kt06/Lirz1cWpunEfwOdeqzN1RyZtyRcdjxKNDQsEzuSCCkq3mUO0/bNKs90CKQc7dsV4zV/9ozrTwLyMrOTIkFPzYrRHJcDhISZteprSFMgZlK2Zo8H/iKoD0enqyy0wAxQrDmlSN6qi9293eTbvYoew3wLQoQdXRgOs4z3e6QGEK1eOLK+pJUOvqyOuQxHeG4QzhsLJM3uAFBmnRf6c748JQCguTnuiNH5ZTc7KQactOOxEYvaih38dRRfdzmClY8Lpkp2BNfRaFjVujf3wAz4MjRf2ndRUUrkrJBc9CTDJdhvPDHq3XQs0Xhr5Q33c/ab7xwOKx2ewcddWjeoOFav40o4nOblclmLvzYG1gd8ibemygr6Py9lYxqqib31kjVpMenJ0x9GJ4l1gO7WObZ4X2Sn2jPwHnkxgX/voErjbPUwcR6cg+nTxKo4wkWYa5Q0rtSTihRGQVpwpBCaNqZBcg1er8KYdLrQTa3+uhL5f+ShjYdlGqRLANB30+PT6PDzY2tUiDbyUh9Xc83XjDUhb5CtUymZTG8ED7yHHiQUQVHmniatlbOLK3K2w2G6iJu26UAsVlhudqyYGLyYd2acgRfZVT5bfGjEtKmTIFrrrAQfuoBR1MXR2v+I5RgAPiyLnH+2/eqn7mKVyBhrHXTvKP4DBYMU0luPjR1PSYGqTRdo2yDh6cc7gNB+f+3BDuAazJBtIAdMeGrPseJHHhC1U7ECg9ZHmI5rKHc5wQgtsCfwHWR9FmjCJM76K9AQcyZtoqWtqwoa9qg1MgRBuJoifiAtZBkkcAGWm6TlmgDT+3YBX9275GSMJYgEBm0VBcOyj+ogWAP1UTbTYJfAq9khdbEQVqIZVPTfxBd7lWU+ZbgClY/4jUUZDUM5S9hjQ2GiVrSKP7kWK8QBAZOA7qdBAYt73Pe42pzjry0d/PM71BHxy58eBmkjpqB/RGFW4iRNNET/qOhpgCY1i96lJJhaMFNx7g3zUO2c6yQydnUlUOv9/8TY/0ZB4aPayjPndpmMl5CWWg+byH2TUx/4GX7539gJYZVnDS3bF9nsoJk55DQSutoEofr/nddzONumMDpIQlbNhzt3NZCzja1wN7U6HAcxs5+43vvBlb32zF911IGd2S0Za1ViJpZCsMjuiGwKQD66hEnxEeLIlH3bjJsMHg0R54tv0AW4bSjnrz3rARXmsIqwEa7T8gGZuITpBcCDBfaV9kLzUxnLmOTPrIVkxbr6WgTaWJAIJR8s4pXP3PgfRUpK18uCNoNe7NNEKBHN2H1HdYQ9LqqCZncasw55fC8dQJGoYvuYj160XLuVEqWFhTPY/zD2TouShhNJuSTXIcMu/YKrFAYWaoTEtqr7YxX7RhKY4VNoCntyDPJtejENe8efvWlkjPTFpU5m9Et/tmu9cNt+Hxa82keZAB4CZclu3OaY9QMxKqESxStYxvsE/RF4NgP3quJ0aUAd6/OFKsId/n73HdYQ2qWr0PoX/EoDRi7DxRplJG3x8rLDro94qP/1YGyXn5llPOwzZVKgttb5KeSijPFDhVUirATxDoDYFpHrzszFZaWx8UN44SyZVSEYP9Pwp7yhqx37qNATvYUdxtCLg6Wa8PePYVF2/JOCAaKchtDV6sH6FnvbfySnvjXo+MKvSlwf77k5cn87v9gUQ6a92/zQ/BQgQTqzYxRkD5NSSHCBpPT0uHTfwVx1/J/17bjaVFLImI93Au0Tyv75ZrpKL7j/OaFa2jRx0s/qP3Jzxp98DIlxsiPFRYDwSZYZ2LZir8HqZny8AZfDGcyOrbi5nFabUIG3SO/FRd9JfJFEWjWwGAKxl9HLtQsUJitdzIQtIOkZMRN0XaM5qkn3jpGeDOVNvyvUixdz3DxbGsGUyhVJYeLWTk4RRzv56qutW+jPLBmkb5WU2++PxpP6gbzzC7FgbUqOLyXLjTnAG4YTt14547gL0yKV9qRmBbYjVZ/KQqYgju5B1J+Wq92KpBsrBBvZEU0yDeo2Pw58S42RHZNpTzJ3UpULH5qz4tUot1SY4exehtmfWAmoZJ4R+b9JzTmUQz/MBhJwdTF36L8FZ1/DK5NYUaAK0NQxxVSYIYF0WRi+PPMKOSxXyAF/+G6j1n2gixWV48jsEkSew+BZFPo5UBcXZjylpnYC6zFfMEbsHalofzjh8EvbeRB9AC0Dp+A8DBiMhDaQdLm1+EpFHnVUc+XnNjFYnwy+DxD6X0NOT88ddV1uhYdJOYX5qEsszqMvVmEHUFmvVASFg5eins/g+cOw5B0VYNolmc78QmtKpQMTsWUqwJDiYaFWilbXV670Sj5iQGa/+KNMgA9LOY73UY4jed/J6rDlTQexXGIj1bnyNzru0Am0cHj1UUlL45sTOJ+SoB4P482iMj7coL1DobSNH9JOHQv7ok1yuTzzOSMe3n0tQSQHcHnGx7R16m/w/Iv1IdzAPqO6LIgkQimv7frXRMmZMNGvxrRsa3EuMhS5pwHyksvXV+fEs/K2ugzvu3IkFYpmTU0hgOqq4vNQ/C+lf9Ub7F8maygK86/u2NLPl/3B3HqeRZ073jJ0NkjQNYDjT3GMtvC3h6n3PkAQX5l4yvscjgv3A6fE8BQcUW40BZx5XlAAAKgAAAAMQcYt0Zz2hE7sfx79VOvr0M83f7ETSH1RwHnjJ0v48VezdPiLfL6OAucKI5c2tcKSJmu1gV3NFgjibaOJby6i9ug1UmLIYOwqrGCN1STIv5yjgLHrCENc5o1aHwG5bUs+ZDcppjM3zH/Dcih+Jh6QC0cYh6nimLkY6I8nP+WQvyC5IrALzFrGawsgPkSMkEBmuLzKVNi0H1zbxf/zMWwt2W3FknLm5M+uqIUeJo5JFRt6AOO/2ltjbsZOE5z/g1jez1G3M8i+FA3Zhqgl7shotDJc6FaqhhcoUYOQoAhKvllS3BztIxMh7r2v7T8/TXDqsJ/BDVbTn9TQqFgX+PtvT1yBXcd5DuIwIfpXEOLn+JipaL44KZNXKePqeS0yox/Z1+C7NXGZkKoFaKo9Eqdlv8fKE9ZZ7G20D2ECQ/GjwI2kG4BD4tRQu/loion8sHBrNPiwpVZ4BnV2GfbvTes1+MxGI9+vHZt/pyI210LPCxdg1su6ohLA4cu0bL/g/QpuhWkt8GG+ykvYGSK9jdTb48xeQHVahxGiqvgznXk9Y63Yc4K9gJBwYJdaFf/7zgPUUa6+71yGA58iHu8xAxy7BTPj3ZEpSGE2ndr6wMvDiCr3Tp94Xyx7z78tEHtu9t+S7/1xA+8FSxUbipBeYhs6eBG6AiKFGcw4sBEcLCAsl2HYbAXyEhzvKy9RSL/GrjhcV2ID4Be0gOexyxv7HhIwD/lwZOl9JjAsL0HgDRQ9XwaT0W13fsuW57KYhrrosblXc/jWxaUFRtroWftLVUAfk0L6FYVwqWd9lrztuJAKVwdVfI1o0PSv9Ral8H579T7gFIwKWwH8oHwhNCdRXxvHM8+NRam/pq9bDwGf/8nFk27XLeWvpX3Kev3Vh+B9TQ3A/JDHJ4hVFKy+a5u885OmRQM2OFWd5ZmgBF22jVDMltU8oCEl6rqVfwOefpatSAfaaxzcKT9bOWzEr5E7+Kx1yr898GhjPA9CHqfD/PhCpsX4H1AJrSCvgdfcMhPdOsqUAAAAAIf2l790D7Ar+kGeAoRLQJW58uAyrJpbcNV04tH6LloZZp0lsUdFFXwY6RMr/cGQDD9YiPwD7gwmnXrppqb4nAD0xFjfLPJRPzfu84QzG9LSc3rbF6jNKOdZr2qEWiWxUOn9Wd6QpvH3C84YS7M4DuiTOiCdvQFOw1f7oL3sub3ul6EiGqGXDFx1uHK6tisqiEt0zlNVhehbLvN/4sOrOqCu/jC9fZa9POCbMW+wAc/6M5UW+fZ8SBvzes5Virc+2X+RiURSWy7dQC4O7z2Wers+4w7qXI/8rT1DhklnUSEUAVA8lsWdS3+MffNikVri9y/w4AlFh0Dnaifh7DizRPbui+GC8J6CIYbPMjtVS1goPC4R+yGkSiKu0OoC2cE0EyG0joXMnsMW04YgRtNp7JrHYusCBOKY1zGKQAOvCn1un1Cva/IHU6KtaujRPVUTwyLsJ1myjoLRVaymMpbIa3Zk4otBLfWsQUFoDgrt0KWh7tugq49+CwoZBgem5l/5xRZ4qedAsiIvXh+54qtTf47zvuUYAAAWnTOKtA/SJDMYtf02vi8c6G0XDO99tLt73K9/aojDSCzS3zbh9kMeyAMajxixf9ktKPmxAI4xl3nNEUACXT1KPuGD5icv+Sl4pGSNl1Q/NFb3l0oYNfMwm6yukCzDnhmJyj2W+trXPWA3ROZanHCC7TY2ycmhy/7M5JIwax4MIwjvINpBJy999D/wKqi1ypEM1FEMKVpXIATWcCACH8lqgx/XYH5lw7qW2GOa8gNw8MHGP102JfdGkDz3kIJovRw7LoXFl9Lz0WXDazq58lrnWTujdrPH+rSCbO/QlARj4xa2PKCqotfA9KfwtblFyWMQCfTErlJugBdKGT9mrRmoNUJCn5S5cwCLPVCaHvZ8x1POP5wWjucBE82+GnxZtydF+BzX7veeXkC2bm5stKMIY8UUU4xEYpluoK9zSZGacisrp3sFHYRN6de+5txajmySG8ug8+gz2NCTkdeSst7NPerGShZjvkTIzM0S/eLOAEnhke56W3rc21GpebkBzLqKiJv2o3Ao7m7+AJp8VOKYvsgwinRlmNVzM0jUFmwu821lkR8+T27P44+CVO5XilXpsDWayMexMWQfph1vSJSRJvTR4X3yBXA04knvSCFXml5R0HfItyAgWeTF1UxqTywx7/jxH0XL1KYFg5onWx9sEbiVHC+du+hdvGUd7IP59c304JEVOnIV4odKKoJJ4i/L7aHeTj4KW7P6q4Xfbo/SnDR11Q5fj3ztX1dT7cUt9k1Hja3alj8VBzf+AACoVqJC/PQb/XDNGkXiAHuXddVFUrHsQ1AAAZ4X49yUFtlx/cYVlMwy34A0It4ObFMElwRIU/P+ZSPO10fhfWLQpHCaQijRAZduFGp9uYL/JuhU4tSYGkF9R7XiLELUEPlVtvtoggHpUveSGz/4A/O6dNqK+kqMMDT9SDcK1JUGKp9YevSUn6XCKXo25eawPyUlhJ/RrSffSC9EmhIDOMQvkAFUuvyyVG+28fqjI+s9B07BJZQs2XGASAO3FVocsqHxQLSgzMNW7txtNyPMXXAp6RRqHD+PgLDU7axShoKNZcs9Ic1dZrEdTkCfQdIJPp2j1pyJXlODYipLY4tnJJ8sA/c7tBy0uxDeiYZtUYEeGt7sURWt8s88oazOQPkWGZRO5YryCxYodgPtH3Jll4C8u4+DGvC6ZYbNsIisPLdIszOK1unGk2kAPecP+GYNx1E8MIUVuzF5XgnMoLw7X4472dxiIOC129jjzpfQj3LBMOMH92XEYO09L5NQHj8tknevT5sSGe95sbAKqyq884pM5OQH+uPOaqTgM0qwi46S+Jv18e55edbQrKjo0BSGIDZtUyZABT8EvxDi+WQJK0pQmg4vMygtkqv2OMyYQ2Gka+pQfa9/A++s2lSnEgvIphZQTrjQBl3p1+A8GHj8+Ya7NZJ+3nTPgnGS7MjzE4LeRWN5752pu6ehqWpB5BcZpULe38rBTwAizb8MSKpmd1Zu+hgXGA2T0G7EJh2fxdWyaX3MnmXJvF/qQXCpREMnqH0A3KhlVGtSbteOvsev6id/z41LS8YBguVuulYyRN7wWUJHZzu3W2eKQmuHTGNlL1npGkyc8IdtLdhnUsMXmKBa9tDsqrzL/vElJj94mhB2WcIPBB1ANSRphQdFVgTEHm6pg8GN5Ovx47EJ8OYHpKQd3wiMjVZDT/TnS+cmXgsw4hvbucY7e16/6L7vzTbvGyOSqsVE9rzXfu95XlASgTkcuQzXETeR/TQUeWrweb1/OGgSNRksW7juEpHq6GJ1wiYv9Il5YuQCqNTicR9qGqjQ/hwxYMDFlIAgJOxRBAAAIlehNC8sWFu+kCVwikuoI2SjqQTbaEKciRC7oO89ZZ450urDf+zbqya6NHfDHHjG81G0mw5x7himsU6bFCwsSL7XheTP+QHeDMMCC5RU/teBkLqalH88Tq7nRoIlc9StT3TJBfoHmnAkkPrKhNAsuJux1HqIZmSkz0NvjQfAQ1/Nh2GDP8l1hcPSpapI344uG/xInUQNWMkVQU4Tamhyn/tMKroDbI+sY3ZYf3ATyFqZY2wzA1pFHl5ni8m1EtGI1/x6kRpJ1gKa7/DTtV4XNxG1GCGQFV2Dqc8EgVEQsM4wuGKgC2KuDQtz4+D3nDaF8BkCM4+SCCLtMYF2/mOmhFZfALY9Klg3IumdMOJ4cmQdRDI1YMIz5DM0c2sr/uSTcKARGweDwk/1C6S5fB1csspb3B/L6RZmt7L/zfd5L1F/LLRXJkAIjglgMLIakCVHQ+G0S58O7QerHa2wGab6orfCjkFG2m/4aWfSC/siVWpA/y9/9MmLpz9ZFOpC5IPZNEKwlQ7AuLTfqk8LIfmk/MIzLlE6MCXFgl5Ir79GMK1dq3H9yZqDFM5tEA4Ge4mZY8efq729+RaaLfoTZbFHy2fWPM9buOeGxashFiTNbEGhG/SEwF46DGGS2aNlPoiixGQR15A/RWgMXHPrr4zdL30UAshoJZILL6Q9n4fg9GiQvZr0+jt1wXhhAs1qQhOQ51FIwCdw//342J/QwR5BfQSdkhgHlJaE3Vb8nuAh7+T94HLbEJWOqfwYeU2rcu+irTVisCBN5LvvApQyExeo2dbxgSSvPE+CA1gKpR3RIRBRK7MkI4alKSkAWRRljwdFXqwOuZi2qAthnutORfiBGEHxCW3lvgf8ooOCx2mMDCD34Qp7MfVnnG2GlHtpkVz3ehew/OwNE/sf1rMP18jG1X1whfC+Vpy5qmxq8AA70YB1+KIGUo5v4BiIhgSBjgLhELACC1aIepZ3rEyvtUAL7cGOYGOU54Aib6ViYq5WTnwDJbdS1zvHx4G8IwfxQhbHZ8Ya2K5/DyP2SH1bBeUFQIDUbo2nHtCAaNgI9P0Wrf8an9DxjN2uBDnL2i3e1TVEMrltei4t5VIciV1IlEr/zelu+38MqALHdU5n1fhO9lAijhQcjHn7VSAqyrdPVDWlNTXUc8tu6y7Qs5kVV95Bz5Fpl9JCKH4mKVd8kHcYWjjwbGDzpElfIUsNz+mpSknIzVgRmA+JUNpZl35TjjXYQ6mrpACz7xqi9yywWJyW2MLfb7cg3gqJWhQPlsb3Ns4DXlWMdJzCihZAWSnFw7uu78sN7SBHGhmUfTxZ9L6xC7kyJ4gPh39qH9iUYF0ASAuQXPqABbJXxKWwu1rMXLKcoxYo/Vz0RaZchqGxajSbWn9cGnDDd+sMmRP6i7hjztY8FEjrIvYmh3C4YdbAIu18/gD7SSNgmDeemlHobiVbslRc67e4t/p0gmtRDaa1AHdJVZjxkGGrg6kHTOVBgyi+XsxYbYQ0QD6W7g0u39cZ0EewjjmeSx/qYnfA9QB22cEbgfWoV8AzOy3kvGcqIP0ACYdKvnHUmD4xcYEM2tzbqtJZqxga5st7K4wQlwAAAAJxhKhr0eRw9/kNdssgjU/j77zUw+xcNLuwzqdWDx9B+gH3A7AlQYKmbKzSvbdXQCIPAEvAUslHOF/S9GtxfwPIBEEHI8ND4oRJCO2AYRC5qozD1PdN+aTKHfyjBAKnzgkGwq82lszu4xWWp7eL0AQyfbqqX5UovKaFeSUfBmOHLaAb1jdXwON166sMxbEfEwns3AjM7toUhLdVlXaK7+Ix6Qh2LPfXR2Zu5wXOZG8uRViD6rCpL33EFQFaLiG+0O0c+RmHYolX116LyfSFrOetUv3BjBCwQtAeyZk7eDWoJmD2A/EjHgTOUgXUOhkxFiIm7eeCA+JusOAn0wHfcvWOpkxRCyR1Sv4r1ynI7LkLLCOSSKrwE/73xPW8bUyNPom+oMzb84yWZjqUireDY0iL1bmhIaf5ns4FbwD7s2PgCTPI5dnLnexFdwPzuxujYP44vkEHZDzUN+BBYEHrn4+xMrZ7P8+KQ1xybvNTub2LdAaHGgwvd77hyG5q75sXp6gPOrxEF4/0ZJUs9apWxTn/ZYMQ5n/GyEX/u/5op6h2d2DyPcYSFEeY2EHyp3XhDBPIR311WEAJ1uhiOZBtnoJuUO6dDOxMQTRpLwn4Bl86FkDJ5mIm3nFIc2EyBoz2bAmg7z3feFuwBVO2tK7RFeRdgWgj0VKgNuNVU+xqXV3Kqw2i0gumacgF4BOs9sjH4YQ04GpIPM6OCDZ7QQrdDWwxalGFJwle2E2DhpzQe5oR/l8v078JqHCw2wV6TruJnMvj22dPlA8AAAAAAmz1/1yQGcL03l2Ntb+ASr9+52ksINSOCILFXQuvkYhDz9OWuufO29KPoo6wq+dmFVOSIMF7CPTDLRBcsXbK4CCiqZhUyMuO0lhxAAoIOX0mKsSpD0KciXw059SL8b83v8eJltT1xBbHIABli9tknF6VrQe/W+KYCoHvLqfD4nfj/OXDYVsAWu6tHtJebkQuts1g7NW/Au6k2cWlHtpU3ju4Uao9WePDOafMZocHg3h/PIcj0qVdEll2qBLQLqGA/7+CZbcn3dzz3RCFpDKaTDl32cmfHip8wlx2sXsyv+m81x9BKC9M4FWn0aA16K05b4PsZ3AQgUWPrAibe5oBgEPhmd4JhSq9BEUVOej8H9uJXZmHNq839gaj70PzXWIqhN+hKv6kC3ENIH7T3uPfobbWBLbn02Dl5M9YqYEKBlc0UW/TU0/DkVBftOhwCZxTp0hNVyE8/BZWYBiulXBGzsX8z0jPkAUuJ16Nb/6AqAKbqm2MtEqqigrJ7zk3dYxoCBTtO2040QyWJplp2KEToAj+ZjEz5/B/lojT2TAIdtZP7Qpa+rw9qkFtIR9rFWOJPvU24kgMT7Zv8iRHREFIj6DyucGEe9Q/tgow5BOc2l6H3bP9BsFalSz87RQF5zrXwy1OMWlon0uIEM1oZKeKLF7w6isqWyP3QO5QiwB44ODWerBLSjaTkunHclygdyhxgjy68dOFfGIgQSZnyj3pPD+TbVgeZMPkc0HtTYu8YKBkg/p0Rz9jv838CA7eDWAjJdXnnpGbcbEOKqxHOI61g5M/SBdADfZcm3x4OifB9aEs6ezl0P5lqVWzfaXgcxPW7Qv7bAHaAJMQyAOHVJ9qsigWqku/gQ2ar/8lXfCoIfGXJfHgAAAAAA==;" parent="1" vertex="1">
          <mxGeometry x="170" y="2680" width="732.52" height="390" as="geometry" />
        </mxCell>
      </root>
    </mxGraphModel>
  </diagram>
</mxfile>
